G04 #@! TF.GenerationSoftware,KiCad,Pcbnew,(5.0.0-3-g5ebb6b6)*
G04 #@! TF.CreationDate,2018-11-06T19:13:36+00:00*
G04 #@! TF.ProjectId,stony_skunk,73746F6E795F736B756E6B2E6B696361,rev?*
G04 #@! TF.SameCoordinates,Original*
G04 #@! TF.FileFunction,Copper,L1,Top,Signal*
G04 #@! TF.FilePolarity,Positive*
%FSLAX46Y46*%
G04 Gerber Fmt 4.6, Leading zero omitted, Abs format (unit mm)*
G04 Created by KiCad (PCBNEW (5.0.0-3-g5ebb6b6)) date Tuesday, 06 November 2018 at 19:13:36*
%MOMM*%
%LPD*%
G01*
G04 APERTURE LIST*
G04 #@! TA.AperFunction,ComponentPad*
%ADD10C,1.700000*%
G04 #@! TD*
G04 #@! TA.AperFunction,SMDPad,CuDef*
%ADD11R,1.800860X2.499360*%
G04 #@! TD*
G04 #@! TA.AperFunction,SMDPad,CuDef*
%ADD12R,0.800100X0.800100*%
G04 #@! TD*
G04 #@! TA.AperFunction,ComponentPad*
%ADD13R,1.800000X3.600000*%
G04 #@! TD*
G04 #@! TA.AperFunction,ComponentPad*
%ADD14O,1.800000X3.600000*%
G04 #@! TD*
G04 #@! TA.AperFunction,SMDPad,CuDef*
%ADD15R,1.000000X1.250000*%
G04 #@! TD*
G04 #@! TA.AperFunction,SMDPad,CuDef*
%ADD16R,0.600000X0.700000*%
G04 #@! TD*
G04 #@! TA.AperFunction,ComponentPad*
%ADD17R,2.032000X1.727200*%
G04 #@! TD*
G04 #@! TA.AperFunction,ComponentPad*
%ADD18O,2.032000X1.727200*%
G04 #@! TD*
G04 #@! TA.AperFunction,ComponentPad*
%ADD19R,2.032000X2.032000*%
G04 #@! TD*
G04 #@! TA.AperFunction,ComponentPad*
%ADD20O,2.032000X2.032000*%
G04 #@! TD*
G04 #@! TA.AperFunction,SMDPad,CuDef*
%ADD21R,0.900000X0.500000*%
G04 #@! TD*
G04 #@! TA.AperFunction,SMDPad,CuDef*
%ADD22R,0.500000X0.900000*%
G04 #@! TD*
G04 #@! TA.AperFunction,ComponentPad*
%ADD23C,2.000000*%
G04 #@! TD*
G04 #@! TA.AperFunction,ComponentPad*
%ADD24R,2.100000X3.600000*%
G04 #@! TD*
G04 #@! TA.AperFunction,ComponentPad*
%ADD25O,2.100000X3.600000*%
G04 #@! TD*
G04 #@! TA.AperFunction,ComponentPad*
%ADD26C,2.600000*%
G04 #@! TD*
G04 #@! TA.AperFunction,ViaPad*
%ADD27C,0.609600*%
G04 #@! TD*
G04 #@! TA.AperFunction,Conductor*
%ADD28C,0.508000*%
G04 #@! TD*
G04 #@! TA.AperFunction,Conductor*
%ADD29C,0.254000*%
G04 #@! TD*
G04 APERTURE END LIST*
D10*
G04 #@! TO.P,U1,1*
G04 #@! TO.N,Net-(U1-Pad1)*
X78540000Y-58890000D03*
G04 #@! TO.P,U1,2*
G04 #@! TO.N,ADC*
X78540000Y-61430000D03*
G04 #@! TO.P,U1,3*
G04 #@! TO.N,Net-(U1-Pad3)*
X78540000Y-63970000D03*
G04 #@! TO.P,U1,4*
G04 #@! TO.N,RELAY*
X78540000Y-66510000D03*
G04 #@! TO.P,U1,5*
G04 #@! TO.N,SCL*
X78540000Y-69050000D03*
G04 #@! TO.P,U1,6*
G04 #@! TO.N,SDA*
X78540000Y-71590000D03*
G04 #@! TO.P,U1,7*
G04 #@! TO.N,BUZZER*
X78540000Y-74130000D03*
G04 #@! TO.P,U1,8*
G04 #@! TO.N,+3V3*
X78540000Y-76670000D03*
G04 #@! TO.P,U1,9*
G04 #@! TO.N,+5V*
X101400000Y-76670000D03*
G04 #@! TO.P,U1,10*
G04 #@! TO.N,GND*
X101400000Y-74130000D03*
G04 #@! TO.P,U1,11*
G04 #@! TO.N,PN532_RESET*
X101400000Y-71590000D03*
G04 #@! TO.P,U1,12*
G04 #@! TO.N,GPIO0*
X101400000Y-69050000D03*
G04 #@! TO.P,U1,13*
G04 #@! TO.N,BUTTON_A*
X101400000Y-66510000D03*
G04 #@! TO.P,U1,14*
G04 #@! TO.N,BUTTON_B*
X101400000Y-63970000D03*
G04 #@! TO.P,U1,15*
G04 #@! TO.N,Net-(U1-Pad15)*
X101400000Y-61430000D03*
G04 #@! TO.P,U1,16*
G04 #@! TO.N,Net-(U1-Pad16)*
X101400000Y-58890000D03*
G04 #@! TD*
D11*
G04 #@! TO.P,D1,1*
G04 #@! TO.N,+5V*
X74500000Y-77900000D03*
G04 #@! TO.P,D1,2*
G04 #@! TO.N,Net-(D1-Pad2)*
X74500000Y-81897960D03*
G04 #@! TD*
D12*
G04 #@! TO.P,Q1,1*
G04 #@! TO.N,RELAY*
X81000760Y-89950000D03*
G04 #@! TO.P,Q1,2*
G04 #@! TO.N,GND*
X81000760Y-88050000D03*
G04 #@! TO.P,Q1,3*
G04 #@! TO.N,Net-(D1-Pad2)*
X79001780Y-89000000D03*
G04 #@! TD*
D13*
G04 #@! TO.P,P1,1*
G04 #@! TO.N,CURRENT_A*
X83400000Y-101550000D03*
D14*
G04 #@! TO.P,P1,2*
G04 #@! TO.N,CURRENT_B*
X86900000Y-101550000D03*
G04 #@! TO.P,P1,3*
G04 #@! TO.N,GND*
X90400000Y-101550000D03*
G04 #@! TO.P,P1,4*
G04 #@! TO.N,BUTTON_A*
X93900000Y-101550000D03*
G04 #@! TO.P,P1,5*
G04 #@! TO.N,GND*
X97400000Y-101550000D03*
G04 #@! TO.P,P1,6*
G04 #@! TO.N,BUTTON_B*
X100900000Y-101550000D03*
G04 #@! TO.P,P1,7*
G04 #@! TO.N,GND*
X104400000Y-101550000D03*
G04 #@! TO.P,P1,8*
G04 #@! TO.N,+5V*
X107900000Y-101550000D03*
G04 #@! TD*
D15*
G04 #@! TO.P,C3,1*
G04 #@! TO.N,CURRENT_B*
X88400000Y-67900000D03*
G04 #@! TO.P,C3,2*
G04 #@! TO.N,GND*
X90400000Y-67900000D03*
G04 #@! TD*
D16*
G04 #@! TO.P,D2,2*
G04 #@! TO.N,GND*
X90100000Y-61900000D03*
G04 #@! TO.P,D2,1*
G04 #@! TO.N,ADC*
X88700000Y-61900000D03*
G04 #@! TD*
D17*
G04 #@! TO.P,P2,1*
G04 #@! TO.N,GND*
X107950000Y-88900000D03*
D18*
G04 #@! TO.P,P2,2*
G04 #@! TO.N,+5V*
X107950000Y-86360000D03*
G04 #@! TO.P,P2,3*
G04 #@! TO.N,SDA*
X107950000Y-83820000D03*
G04 #@! TO.P,P2,4*
G04 #@! TO.N,SCL*
X107950000Y-81280000D03*
G04 #@! TD*
D17*
G04 #@! TO.P,P4,1*
G04 #@! TO.N,GND*
X105410000Y-88900000D03*
D18*
G04 #@! TO.P,P4,2*
G04 #@! TO.N,+5V*
X105410000Y-86360000D03*
G04 #@! TO.P,P4,3*
G04 #@! TO.N,SDA*
X105410000Y-83820000D03*
G04 #@! TO.P,P4,4*
G04 #@! TO.N,SCL*
X105410000Y-81280000D03*
G04 #@! TO.P,P4,5*
G04 #@! TO.N,PN532_RESET*
X105410000Y-78740000D03*
G04 #@! TD*
D19*
G04 #@! TO.P,P7,1*
G04 #@! TO.N,GND*
X107950000Y-71120000D03*
D20*
G04 #@! TO.P,P7,2*
G04 #@! TO.N,GPIO0*
X107950000Y-68580000D03*
G04 #@! TD*
D12*
G04 #@! TO.P,Q2,1*
G04 #@! TO.N,BUZZER*
X71500760Y-61450000D03*
G04 #@! TO.P,Q2,2*
G04 #@! TO.N,GND*
X71500760Y-59550000D03*
G04 #@! TO.P,Q2,3*
G04 #@! TO.N,Net-(Q2-Pad3)*
X69501780Y-60500000D03*
G04 #@! TD*
D21*
G04 #@! TO.P,R1,1*
G04 #@! TO.N,RELAY*
X84000000Y-89750000D03*
G04 #@! TO.P,R1,2*
G04 #@! TO.N,GND*
X84000000Y-88250000D03*
G04 #@! TD*
D22*
G04 #@! TO.P,R3,1*
G04 #@! TO.N,CURRENT_A*
X88650000Y-76900000D03*
G04 #@! TO.P,R3,2*
G04 #@! TO.N,CURRENT_B*
X90150000Y-76900000D03*
G04 #@! TD*
G04 #@! TO.P,R4,1*
G04 #@! TO.N,CURRENT_A*
X88650000Y-79900000D03*
G04 #@! TO.P,R4,2*
G04 #@! TO.N,CURRENT_B*
X90150000Y-79900000D03*
G04 #@! TD*
G04 #@! TO.P,R5,1*
G04 #@! TO.N,ADC*
X90150000Y-64900000D03*
G04 #@! TO.P,R5,2*
G04 #@! TO.N,CURRENT_A*
X88650000Y-64900000D03*
G04 #@! TD*
G04 #@! TO.P,R6,1*
G04 #@! TO.N,+3V3*
X90150000Y-70900000D03*
G04 #@! TO.P,R6,2*
G04 #@! TO.N,CURRENT_B*
X88650000Y-70900000D03*
G04 #@! TD*
G04 #@! TO.P,R7,1*
G04 #@! TO.N,CURRENT_B*
X88650000Y-73900000D03*
G04 #@! TO.P,R7,2*
G04 #@! TO.N,GND*
X90150000Y-73900000D03*
G04 #@! TD*
G04 #@! TO.P,R8,1*
G04 #@! TO.N,+3V3*
X82750000Y-74000000D03*
G04 #@! TO.P,R8,2*
G04 #@! TO.N,SCL*
X84250000Y-74000000D03*
G04 #@! TD*
G04 #@! TO.P,R9,1*
G04 #@! TO.N,+3V3*
X82750000Y-77000000D03*
G04 #@! TO.P,R9,2*
G04 #@! TO.N,SDA*
X84250000Y-77000000D03*
G04 #@! TD*
D21*
G04 #@! TO.P,R13,1*
G04 #@! TO.N,BUZZER*
X74500000Y-61250000D03*
G04 #@! TO.P,R13,2*
G04 #@! TO.N,GND*
X74500000Y-59750000D03*
G04 #@! TD*
D23*
G04 #@! TO.P,SP1,1*
G04 #@! TO.N,+5V*
X63900320Y-70000000D03*
G04 #@! TO.P,SP1,2*
G04 #@! TO.N,Net-(Q2-Pad3)*
X71500000Y-70000000D03*
G04 #@! TD*
D24*
G04 #@! TO.P,P3,1*
G04 #@! TO.N,Net-(P3-Pad1)*
X64050000Y-99550000D03*
D25*
G04 #@! TO.P,P3,2*
G04 #@! TO.N,Net-(P3-Pad2)*
X69050000Y-99550000D03*
G04 #@! TD*
D26*
G04 #@! TO.P,U2,2*
G04 #@! TO.N,Net-(D1-Pad2)*
X62650000Y-79850000D03*
G04 #@! TO.P,U2,1*
G04 #@! TO.N,+5V*
X70250000Y-79850000D03*
G04 #@! TO.P,U2,4*
G04 #@! TO.N,Net-(P3-Pad2)*
X70250000Y-95090000D03*
G04 #@! TO.P,U2,3*
G04 #@! TO.N,Net-(P3-Pad1)*
X62650000Y-92550000D03*
G04 #@! TD*
D27*
G04 #@! TO.N,+5V*
X78500000Y-80500000D03*
G04 #@! TO.N,GND*
X75500000Y-59000000D03*
X81000000Y-84500000D03*
X91200000Y-66500000D03*
G04 #@! TO.N,+3V3*
X91250000Y-71750000D03*
X82500000Y-72500000D03*
G04 #@! TO.N,SDA*
X83500000Y-80000000D03*
X101250000Y-82750000D03*
G04 #@! TO.N,SCL*
X85000000Y-80000000D03*
X101250000Y-81500000D03*
G04 #@! TD*
D28*
G04 #@! TO.N,+5V*
X78500000Y-80491570D02*
X78500000Y-80500000D01*
X75908430Y-77900000D02*
X78500000Y-80491570D01*
X74500000Y-77900000D02*
X75908430Y-77900000D01*
X101400000Y-76670000D02*
X99800000Y-78270000D01*
X99800000Y-78270000D02*
X99800000Y-84200000D01*
X74500000Y-77900000D02*
X72200000Y-77900000D01*
X72200000Y-77900000D02*
X70250000Y-79850000D01*
X99800000Y-84200000D02*
X103200000Y-87600000D01*
X105410000Y-86360000D02*
X104240000Y-86360000D01*
X103200000Y-96850000D02*
X107900000Y-101550000D01*
X103200000Y-87400000D02*
X103200000Y-87600000D01*
X103200000Y-87600000D02*
X103200000Y-96850000D01*
X104240000Y-86360000D02*
X103200000Y-87400000D01*
X105410000Y-86360000D02*
X107950000Y-86360000D01*
X70250000Y-79850000D02*
X63900320Y-73500320D01*
X63900320Y-73500320D02*
X63900320Y-70000000D01*
G04 #@! TO.N,GND*
X75250000Y-59000000D02*
X74500000Y-59750000D01*
X75500000Y-59000000D02*
X75250000Y-59000000D01*
X81000760Y-88050000D02*
X81000760Y-84500760D01*
X81000760Y-84500760D02*
X81000000Y-84500000D01*
D29*
X81000760Y-88050000D02*
X81200760Y-88250000D01*
X81200760Y-88250000D02*
X84000000Y-88250000D01*
X91200000Y-63000000D02*
X91200000Y-66500000D01*
X91200000Y-66500000D02*
X91200000Y-67100000D01*
X74500000Y-59750000D02*
X71700760Y-59750000D01*
X71700760Y-59750000D02*
X71500760Y-59550000D01*
X90100000Y-61900000D02*
X91200000Y-63000000D01*
X91200000Y-67100000D02*
X90400000Y-67900000D01*
X90400000Y-67900000D02*
X89400000Y-68900000D01*
X89400000Y-73150000D02*
X90150000Y-73900000D01*
X89400000Y-68900000D02*
X89400000Y-73150000D01*
G04 #@! TO.N,+3V3*
X81350000Y-75400000D02*
X80080000Y-76670000D01*
X80080000Y-76670000D02*
X78540000Y-76670000D01*
X91250000Y-71750000D02*
X91250000Y-71250000D01*
X91250000Y-71250000D02*
X90900000Y-70900000D01*
X90900000Y-70900000D02*
X90150000Y-70900000D01*
X82750000Y-74000000D02*
X82750000Y-72750000D01*
X82750000Y-72750000D02*
X82500000Y-72500000D01*
X81350000Y-75400000D02*
X82750000Y-74000000D01*
X81350000Y-75400000D02*
X82750000Y-76800000D01*
X82750000Y-76800000D02*
X82750000Y-77000000D01*
D28*
G04 #@! TO.N,Net-(D1-Pad2)*
X74500000Y-81897960D02*
X75897960Y-81897960D01*
X79001780Y-85001780D02*
X79001780Y-89000000D01*
X75897960Y-81897960D02*
X79001780Y-85001780D01*
X74500000Y-81897960D02*
X73897960Y-82500000D01*
X65300000Y-82500000D02*
X62650000Y-79850000D01*
X73897960Y-82500000D02*
X65300000Y-82500000D01*
D29*
G04 #@! TO.N,ADC*
X78540000Y-61430000D02*
X88230000Y-61430000D01*
X88230000Y-61430000D02*
X88700000Y-61900000D01*
X88700000Y-61900000D02*
X88700000Y-62600000D01*
X90150000Y-64050000D02*
X90150000Y-64900000D01*
X88700000Y-62600000D02*
X90150000Y-64050000D01*
G04 #@! TO.N,SDA*
X105410000Y-83820000D02*
X107950000Y-83820000D01*
X83090000Y-71590000D02*
X83500000Y-72000000D01*
X78540000Y-71590000D02*
X83090000Y-71590000D01*
X83500000Y-80000000D02*
X83500000Y-77000000D01*
X83500000Y-77000000D02*
X83500000Y-72000000D01*
X84250000Y-77000000D02*
X83746000Y-77000000D01*
X83746000Y-77000000D02*
X83500000Y-77000000D01*
X105410000Y-83820000D02*
X102320000Y-83820000D01*
X102320000Y-83820000D02*
X101250000Y-82750000D01*
G04 #@! TO.N,SCL*
X105410000Y-81280000D02*
X107950000Y-81280000D01*
X78540000Y-69050000D02*
X82800000Y-69050000D01*
X82800000Y-69050000D02*
X85000000Y-71250000D01*
X85000000Y-80000000D02*
X85000000Y-74000000D01*
X85000000Y-74000000D02*
X85000000Y-71250000D01*
X84250000Y-74000000D02*
X84754000Y-74000000D01*
X84754000Y-74000000D02*
X85000000Y-74000000D01*
X105410000Y-81280000D02*
X101470000Y-81280000D01*
X101470000Y-81280000D02*
X101250000Y-81500000D01*
G04 #@! TO.N,PN532_RESET*
X105410000Y-72910000D02*
X104090000Y-71590000D01*
X104090000Y-71590000D02*
X101400000Y-71590000D01*
X105410000Y-78740000D02*
X105410000Y-72910000D01*
G04 #@! TO.N,GPIO0*
X107950000Y-68580000D02*
X107530000Y-69000000D01*
X107530000Y-69000000D02*
X101450000Y-69000000D01*
X101450000Y-69000000D02*
X101400000Y-69050000D01*
G04 #@! TO.N,RELAY*
X81000760Y-89950000D02*
X80346710Y-89950000D01*
X80346710Y-89950000D02*
X80000000Y-89603290D01*
X80000000Y-89603290D02*
X80000000Y-80500000D01*
X80000000Y-80500000D02*
X76000000Y-76500000D01*
X76000000Y-76500000D02*
X76000000Y-67847919D01*
X76000000Y-67847919D02*
X77337919Y-66510000D01*
X77337919Y-66510000D02*
X78540000Y-66510000D01*
X81000760Y-89950000D02*
X81200760Y-89750000D01*
X81200760Y-89750000D02*
X84000000Y-89750000D01*
G04 #@! TO.N,BUZZER*
X77949119Y-67818999D02*
X77000000Y-68768118D01*
X78024999Y-65278999D02*
X79130881Y-65278999D01*
X79771001Y-67100881D02*
X79052883Y-67818999D01*
X77000000Y-72590000D02*
X77690001Y-73280001D01*
X79771001Y-65919119D02*
X79771001Y-67100881D01*
X74500000Y-61250000D02*
X74500000Y-61754000D01*
X74500000Y-61754000D02*
X78024999Y-65278999D01*
X79130881Y-65278999D02*
X79771001Y-65919119D01*
X77690001Y-73280001D02*
X78540000Y-74130000D01*
X79052883Y-67818999D02*
X77949119Y-67818999D01*
X77000000Y-68768118D02*
X77000000Y-72590000D01*
X74500000Y-61250000D02*
X71700760Y-61250000D01*
X71700760Y-61250000D02*
X71500760Y-61450000D01*
D28*
G04 #@! TO.N,Net-(Q2-Pad3)*
X71500000Y-70000000D02*
X69501780Y-68001780D01*
X69501780Y-68001780D02*
X69501780Y-60500000D01*
D29*
G04 #@! TO.N,BUTTON_A*
X101400000Y-66510000D02*
X95768118Y-66510000D01*
X95768118Y-66510000D02*
X93900000Y-68378118D01*
X93900000Y-68378118D02*
X93900000Y-99496000D01*
X93900000Y-99496000D02*
X93900000Y-101550000D01*
G04 #@! TO.N,BUTTON_B*
X100900000Y-101550000D02*
X100900000Y-100650000D01*
X100900000Y-100650000D02*
X95250000Y-95000000D01*
X95250000Y-95000000D02*
X95250000Y-68850000D01*
X95250000Y-68850000D02*
X96358999Y-67741001D01*
X96358999Y-67741001D02*
X102258999Y-67741001D01*
X102258999Y-67741001D02*
X103000000Y-67000000D01*
X103000000Y-67000000D02*
X103000000Y-65570000D01*
X103000000Y-65570000D02*
X102249999Y-64819999D01*
X102249999Y-64819999D02*
X101400000Y-63970000D01*
G04 #@! TO.N,CURRENT_B*
X90150000Y-79900000D02*
X90150000Y-94850000D01*
X86900000Y-98100000D02*
X86900000Y-101550000D01*
X90150000Y-94850000D02*
X86900000Y-98100000D01*
X88650000Y-70900000D02*
X88650000Y-73900000D01*
X88650000Y-73900000D02*
X88650000Y-74750000D01*
X88650000Y-74750000D02*
X90150000Y-76250000D01*
X90150000Y-76250000D02*
X90150000Y-76900000D01*
X88650000Y-70900000D02*
X88650000Y-68150000D01*
X88650000Y-68150000D02*
X88400000Y-67900000D01*
X90150000Y-79900000D02*
X90150000Y-76900000D01*
X86900000Y-101050000D02*
X86900000Y-101550000D01*
G04 #@! TO.N,CURRENT_A*
X88650000Y-79900000D02*
X88650000Y-94350000D01*
X83400000Y-99600000D02*
X83400000Y-101550000D01*
X88650000Y-94350000D02*
X83400000Y-99600000D01*
X88650000Y-79900000D02*
X88650000Y-76900000D01*
X88650000Y-76900000D02*
X87300000Y-75550000D01*
X87300000Y-75550000D02*
X87300000Y-66250000D01*
X87300000Y-66250000D02*
X88650000Y-64900000D01*
G04 #@! TD*
M02*
