M48
;DRILL file {KiCad 4.0.4+dfsg1-stable} date Wed Dec  7 00:56:07 2016
;FORMAT={-:-/ absolute / inch / decimal}
FMAT,2
INCH,TZ
T1C0.016
T2C0.039
T3C0.040
T4C0.047
T5C0.051
T6C0.055
T7C0.122
%
G90
G05
M72
T1
X2.9331Y-2.9331
X3.0118Y-3.0709
X3.0315Y-2.3031
X3.0709Y-2.6969
X3.076Y-2.326
X3.152Y-2.503
X3.2087Y-3.2677
X3.4252Y-2.7165
X3.4252Y-2.7953
X3.4449Y-2.6378
X3.4803Y-2.689
X3.685Y-2.4567
X3.7126Y-2.5118
X3.8031Y-2.4114
X3.8189Y-2.6378
X3.8583Y-2.8346
X4.0551Y-2.689
X4.0591Y-3.0039
X4.094Y-3.563
X4.1654Y-2.8976
T2
X2.5158Y-2.7559
X2.815Y-2.7559
T3
X3.349Y-3.686
X3.349Y-3.786
X3.449Y-3.686
X3.449Y-3.786
X3.549Y-3.686
X3.549Y-3.786
X3.649Y-3.686
X3.649Y-3.786
X3.749Y-3.686
X4.25Y-2.55
X4.25Y-2.65
X4.25Y-2.75
X4.25Y-2.85
X4.25Y-2.95
X4.25Y-3.05
X4.25Y-3.25
X4.25Y-3.35
X4.25Y-3.45
X4.25Y-3.55
T4
X3.2835Y-3.998
X3.4213Y-3.998
X3.5591Y-3.998
X3.6969Y-3.998
X3.8346Y-3.998
X3.9724Y-3.998
X4.1102Y-3.998
X4.248Y-3.998
T5
X2.4665Y-3.1437
X2.4665Y-3.6437
X2.7657Y-3.1437
X2.7657Y-3.7437
T6
X2.5217Y-3.9193
X2.7185Y-3.9193
T7
X2.498Y-2.3366
X3.0217Y-4.0689
X4.2303Y-2.3366
X4.2303Y-3.7559
T0
M30
