G04 #@! TF.GenerationSoftware,KiCad,Pcbnew,(5.0.0-3-g5ebb6b6)*
G04 #@! TF.CreationDate,2018-11-06T19:13:36+00:00*
G04 #@! TF.ProjectId,stony_skunk,73746F6E795F736B756E6B2E6B696361,rev?*
G04 #@! TF.SameCoordinates,Original*
G04 #@! TF.FileFunction,Legend,Top*
G04 #@! TF.FilePolarity,Positive*
%FSLAX46Y46*%
G04 Gerber Fmt 4.6, Leading zero omitted, Abs format (unit mm)*
G04 Created by KiCad (PCBNEW (5.0.0-3-g5ebb6b6)) date Tuesday, 06 November 2018 at 19:13:36*
%MOMM*%
%LPD*%
G01*
G04 APERTURE LIST*
%ADD10C,0.300000*%
%ADD11C,0.150000*%
G04 APERTURE END LIST*
D10*
X103828571Y-98907142D02*
X104971428Y-98907142D01*
X107328571Y-98907142D02*
X108471428Y-98907142D01*
X107900000Y-99478571D02*
X107900000Y-98335714D01*
X99307142Y-98692857D02*
X99521428Y-98764285D01*
X99592857Y-98835714D01*
X99664285Y-98978571D01*
X99664285Y-99192857D01*
X99592857Y-99335714D01*
X99521428Y-99407142D01*
X99378571Y-99478571D01*
X98807142Y-99478571D01*
X98807142Y-97978571D01*
X99307142Y-97978571D01*
X99450000Y-98050000D01*
X99521428Y-98121428D01*
X99592857Y-98264285D01*
X99592857Y-98407142D01*
X99521428Y-98550000D01*
X99450000Y-98621428D01*
X99307142Y-98692857D01*
X98807142Y-98692857D01*
X91842857Y-99050000D02*
X92557142Y-99050000D01*
X91700000Y-99478571D02*
X92200000Y-97978571D01*
X92700000Y-99478571D01*
X84914285Y-99335714D02*
X84842857Y-99407142D01*
X84628571Y-99478571D01*
X84485714Y-99478571D01*
X84271428Y-99407142D01*
X84128571Y-99264285D01*
X84057142Y-99121428D01*
X83985714Y-98835714D01*
X83985714Y-98621428D01*
X84057142Y-98335714D01*
X84128571Y-98192857D01*
X84271428Y-98050000D01*
X84485714Y-97978571D01*
X84628571Y-97978571D01*
X84842857Y-98050000D01*
X84914285Y-98121428D01*
X86414285Y-99335714D02*
X86342857Y-99407142D01*
X86128571Y-99478571D01*
X85985714Y-99478571D01*
X85771428Y-99407142D01*
X85628571Y-99264285D01*
X85557142Y-99121428D01*
X85485714Y-98835714D01*
X85485714Y-98621428D01*
X85557142Y-98335714D01*
X85628571Y-98192857D01*
X85771428Y-98050000D01*
X85985714Y-97978571D01*
X86128571Y-97978571D01*
X86342857Y-98050000D01*
X86414285Y-98121428D01*
X78321428Y-92403571D02*
X78892857Y-92403571D01*
X78535714Y-91903571D02*
X78535714Y-93189285D01*
X78607142Y-93332142D01*
X78750000Y-93403571D01*
X78892857Y-93403571D01*
X79392857Y-93403571D02*
X79392857Y-92403571D01*
X79392857Y-91903571D02*
X79321428Y-91975000D01*
X79392857Y-92046428D01*
X79464285Y-91975000D01*
X79392857Y-91903571D01*
X79392857Y-92046428D01*
X80107142Y-93403571D02*
X80107142Y-92403571D01*
X80107142Y-92546428D02*
X80178571Y-92475000D01*
X80321428Y-92403571D01*
X80535714Y-92403571D01*
X80678571Y-92475000D01*
X80750000Y-92617857D01*
X80750000Y-93403571D01*
X80750000Y-92617857D02*
X80821428Y-92475000D01*
X80964285Y-92403571D01*
X81178571Y-92403571D01*
X81321428Y-92475000D01*
X81392857Y-92617857D01*
X81392857Y-93403571D01*
X82107142Y-93403571D02*
X82107142Y-91903571D01*
X82750000Y-93403571D02*
X82750000Y-92617857D01*
X82678571Y-92475000D01*
X82535714Y-92403571D01*
X82321428Y-92403571D01*
X82178571Y-92475000D01*
X82107142Y-92546428D01*
X84107142Y-93403571D02*
X84107142Y-92617857D01*
X84035714Y-92475000D01*
X83892857Y-92403571D01*
X83607142Y-92403571D01*
X83464285Y-92475000D01*
X84107142Y-93332142D02*
X83964285Y-93403571D01*
X83607142Y-93403571D01*
X83464285Y-93332142D01*
X83392857Y-93189285D01*
X83392857Y-93046428D01*
X83464285Y-92903571D01*
X83607142Y-92832142D01*
X83964285Y-92832142D01*
X84107142Y-92760714D01*
X84678571Y-92403571D02*
X84964285Y-93403571D01*
X85250000Y-92689285D01*
X85535714Y-93403571D01*
X85821428Y-92403571D01*
X86964285Y-93332142D02*
X86821428Y-93403571D01*
X86535714Y-93403571D01*
X86392857Y-93332142D01*
X86321428Y-93189285D01*
X86321428Y-92617857D01*
X86392857Y-92475000D01*
X86535714Y-92403571D01*
X86821428Y-92403571D01*
X86964285Y-92475000D01*
X87035714Y-92617857D01*
X87035714Y-92760714D01*
X86321428Y-92903571D01*
X87607142Y-93332142D02*
X87750000Y-93403571D01*
X88035714Y-93403571D01*
X88178571Y-93332142D01*
X88250000Y-93189285D01*
X88250000Y-93117857D01*
X88178571Y-92975000D01*
X88035714Y-92903571D01*
X87821428Y-92903571D01*
X87678571Y-92832142D01*
X87607142Y-92689285D01*
X87607142Y-92617857D01*
X87678571Y-92475000D01*
X87821428Y-92403571D01*
X88035714Y-92403571D01*
X88178571Y-92475000D01*
X88892857Y-93260714D02*
X88964285Y-93332142D01*
X88892857Y-93403571D01*
X88821428Y-93332142D01*
X88892857Y-93260714D01*
X88892857Y-93403571D01*
X90250000Y-93332142D02*
X90107142Y-93403571D01*
X89821428Y-93403571D01*
X89678571Y-93332142D01*
X89607142Y-93260714D01*
X89535714Y-93117857D01*
X89535714Y-92689285D01*
X89607142Y-92546428D01*
X89678571Y-92475000D01*
X89821428Y-92403571D01*
X90107142Y-92403571D01*
X90250000Y-92475000D01*
X91107142Y-93403571D02*
X90964285Y-93332142D01*
X90892857Y-93260714D01*
X90821428Y-93117857D01*
X90821428Y-92689285D01*
X90892857Y-92546428D01*
X90964285Y-92475000D01*
X91107142Y-92403571D01*
X91321428Y-92403571D01*
X91464285Y-92475000D01*
X91535714Y-92546428D01*
X91607142Y-92689285D01*
X91607142Y-93117857D01*
X91535714Y-93260714D01*
X91464285Y-93332142D01*
X91321428Y-93403571D01*
X91107142Y-93403571D01*
X92250000Y-93403571D02*
X92250000Y-92403571D01*
X92250000Y-92546428D02*
X92321428Y-92475000D01*
X92464285Y-92403571D01*
X92678571Y-92403571D01*
X92821428Y-92475000D01*
X92892857Y-92617857D01*
X92892857Y-93403571D01*
X92892857Y-92617857D02*
X92964285Y-92475000D01*
X93107142Y-92403571D01*
X93321428Y-92403571D01*
X93464285Y-92475000D01*
X93535714Y-92617857D01*
X93535714Y-93403571D01*
X95321428Y-91832142D02*
X94035714Y-93760714D01*
X95750000Y-93332142D02*
X95892857Y-93403571D01*
X96178571Y-93403571D01*
X96321428Y-93332142D01*
X96392857Y-93189285D01*
X96392857Y-93117857D01*
X96321428Y-92975000D01*
X96178571Y-92903571D01*
X95964285Y-92903571D01*
X95821428Y-92832142D01*
X95750000Y-92689285D01*
X95750000Y-92617857D01*
X95821428Y-92475000D01*
X95964285Y-92403571D01*
X96178571Y-92403571D01*
X96321428Y-92475000D01*
X96964285Y-93332142D02*
X97107142Y-93403571D01*
X97392857Y-93403571D01*
X97535714Y-93332142D01*
X97607142Y-93189285D01*
X97607142Y-93117857D01*
X97535714Y-92975000D01*
X97392857Y-92903571D01*
X97178571Y-92903571D01*
X97035714Y-92832142D01*
X96964285Y-92689285D01*
X96964285Y-92617857D01*
X97035714Y-92475000D01*
X97178571Y-92403571D01*
X97392857Y-92403571D01*
X97535714Y-92475000D01*
X98107142Y-91903571D02*
X99035714Y-91903571D01*
X98535714Y-92475000D01*
X98750000Y-92475000D01*
X98892857Y-92546428D01*
X98964285Y-92617857D01*
X99035714Y-92760714D01*
X99035714Y-93117857D01*
X98964285Y-93260714D01*
X98892857Y-93332142D01*
X98750000Y-93403571D01*
X98321428Y-93403571D01*
X98178571Y-93332142D01*
X98107142Y-93260714D01*
X77107142Y-95882142D02*
X76964285Y-95953571D01*
X76678571Y-95953571D01*
X76535714Y-95882142D01*
X76464285Y-95739285D01*
X76464285Y-95167857D01*
X76535714Y-95025000D01*
X76678571Y-94953571D01*
X76964285Y-94953571D01*
X77107142Y-95025000D01*
X77178571Y-95167857D01*
X77178571Y-95310714D01*
X76464285Y-95453571D01*
X78464285Y-95953571D02*
X78464285Y-94453571D01*
X78464285Y-95882142D02*
X78321428Y-95953571D01*
X78035714Y-95953571D01*
X77892857Y-95882142D01*
X77821428Y-95810714D01*
X77750000Y-95667857D01*
X77750000Y-95239285D01*
X77821428Y-95096428D01*
X77892857Y-95025000D01*
X78035714Y-94953571D01*
X78321428Y-94953571D01*
X78464285Y-95025000D01*
X79178571Y-95953571D02*
X79178571Y-94953571D01*
X79178571Y-94453571D02*
X79107142Y-94525000D01*
X79178571Y-94596428D01*
X79250000Y-94525000D01*
X79178571Y-94453571D01*
X79178571Y-94596428D01*
X79892857Y-94953571D02*
X79892857Y-95953571D01*
X79892857Y-95096428D02*
X79964285Y-95025000D01*
X80107142Y-94953571D01*
X80321428Y-94953571D01*
X80464285Y-95025000D01*
X80535714Y-95167857D01*
X80535714Y-95953571D01*
X81250000Y-95953571D02*
X81250000Y-94453571D01*
X81250000Y-95025000D02*
X81392857Y-94953571D01*
X81678571Y-94953571D01*
X81821428Y-95025000D01*
X81892857Y-95096428D01*
X81964285Y-95239285D01*
X81964285Y-95667857D01*
X81892857Y-95810714D01*
X81821428Y-95882142D01*
X81678571Y-95953571D01*
X81392857Y-95953571D01*
X81250000Y-95882142D01*
X83250000Y-94953571D02*
X83250000Y-95953571D01*
X82607142Y-94953571D02*
X82607142Y-95739285D01*
X82678571Y-95882142D01*
X82821428Y-95953571D01*
X83035714Y-95953571D01*
X83178571Y-95882142D01*
X83250000Y-95810714D01*
X83964285Y-95953571D02*
X83964285Y-94953571D01*
X83964285Y-95239285D02*
X84035714Y-95096428D01*
X84107142Y-95025000D01*
X84250000Y-94953571D01*
X84392857Y-94953571D01*
X85535714Y-94953571D02*
X85535714Y-96167857D01*
X85464285Y-96310714D01*
X85392857Y-96382142D01*
X85250000Y-96453571D01*
X85035714Y-96453571D01*
X84892857Y-96382142D01*
X85535714Y-95882142D02*
X85392857Y-95953571D01*
X85107142Y-95953571D01*
X84964285Y-95882142D01*
X84892857Y-95810714D01*
X84821428Y-95667857D01*
X84821428Y-95239285D01*
X84892857Y-95096428D01*
X84964285Y-95025000D01*
X85107142Y-94953571D01*
X85392857Y-94953571D01*
X85535714Y-95025000D01*
X86250000Y-95953571D02*
X86250000Y-94453571D01*
X86892857Y-95953571D02*
X86892857Y-95167857D01*
X86821428Y-95025000D01*
X86678571Y-94953571D01*
X86464285Y-94953571D01*
X86321428Y-95025000D01*
X86250000Y-95096428D01*
X87607142Y-95953571D02*
X87607142Y-94453571D01*
X88250000Y-95953571D02*
X88250000Y-95167857D01*
X88178571Y-95025000D01*
X88035714Y-94953571D01*
X87821428Y-94953571D01*
X87678571Y-95025000D01*
X87607142Y-95096428D01*
X89607142Y-95953571D02*
X89607142Y-95167857D01*
X89535714Y-95025000D01*
X89392857Y-94953571D01*
X89107142Y-94953571D01*
X88964285Y-95025000D01*
X89607142Y-95882142D02*
X89464285Y-95953571D01*
X89107142Y-95953571D01*
X88964285Y-95882142D01*
X88892857Y-95739285D01*
X88892857Y-95596428D01*
X88964285Y-95453571D01*
X89107142Y-95382142D01*
X89464285Y-95382142D01*
X89607142Y-95310714D01*
X90964285Y-95882142D02*
X90821428Y-95953571D01*
X90535714Y-95953571D01*
X90392857Y-95882142D01*
X90321428Y-95810714D01*
X90250000Y-95667857D01*
X90250000Y-95239285D01*
X90321428Y-95096428D01*
X90392857Y-95025000D01*
X90535714Y-94953571D01*
X90821428Y-94953571D01*
X90964285Y-95025000D01*
X91607142Y-95953571D02*
X91607142Y-94453571D01*
X91750000Y-95382142D02*
X92178571Y-95953571D01*
X92178571Y-94953571D02*
X91607142Y-95525000D01*
X93035714Y-95953571D02*
X92892857Y-95882142D01*
X92821428Y-95739285D01*
X92821428Y-94453571D01*
X94250000Y-95953571D02*
X94250000Y-95167857D01*
X94178571Y-95025000D01*
X94035714Y-94953571D01*
X93750000Y-94953571D01*
X93607142Y-95025000D01*
X94250000Y-95882142D02*
X94107142Y-95953571D01*
X93750000Y-95953571D01*
X93607142Y-95882142D01*
X93535714Y-95739285D01*
X93535714Y-95596428D01*
X93607142Y-95453571D01*
X93750000Y-95382142D01*
X94107142Y-95382142D01*
X94250000Y-95310714D01*
X94964285Y-95953571D02*
X94964285Y-94453571D01*
X94964285Y-95025000D02*
X95107142Y-94953571D01*
X95392857Y-94953571D01*
X95535714Y-95025000D01*
X95607142Y-95096428D01*
X95678571Y-95239285D01*
X95678571Y-95667857D01*
X95607142Y-95810714D01*
X95535714Y-95882142D01*
X95392857Y-95953571D01*
X95107142Y-95953571D01*
X94964285Y-95882142D01*
X96321428Y-95810714D02*
X96392857Y-95882142D01*
X96321428Y-95953571D01*
X96250000Y-95882142D01*
X96321428Y-95810714D01*
X96321428Y-95953571D01*
X97678571Y-95882142D02*
X97535714Y-95953571D01*
X97250000Y-95953571D01*
X97107142Y-95882142D01*
X97035714Y-95810714D01*
X96964285Y-95667857D01*
X96964285Y-95239285D01*
X97035714Y-95096428D01*
X97107142Y-95025000D01*
X97250000Y-94953571D01*
X97535714Y-94953571D01*
X97678571Y-95025000D01*
X98535714Y-95953571D02*
X98392857Y-95882142D01*
X98321428Y-95810714D01*
X98250000Y-95667857D01*
X98250000Y-95239285D01*
X98321428Y-95096428D01*
X98392857Y-95025000D01*
X98535714Y-94953571D01*
X98750000Y-94953571D01*
X98892857Y-95025000D01*
X98964285Y-95096428D01*
X99035714Y-95239285D01*
X99035714Y-95667857D01*
X98964285Y-95810714D01*
X98892857Y-95882142D01*
X98750000Y-95953571D01*
X98535714Y-95953571D01*
X99678571Y-95953571D02*
X99678571Y-94953571D01*
X99678571Y-95096428D02*
X99750000Y-95025000D01*
X99892857Y-94953571D01*
X100107142Y-94953571D01*
X100250000Y-95025000D01*
X100321428Y-95167857D01*
X100321428Y-95953571D01*
X100321428Y-95167857D02*
X100392857Y-95025000D01*
X100535714Y-94953571D01*
X100750000Y-94953571D01*
X100892857Y-95025000D01*
X100964285Y-95167857D01*
X100964285Y-95953571D01*
D11*
G04 #@! TO.C,U1*
X79810000Y-79210000D02*
X79810000Y-85560000D01*
X77270000Y-77940000D02*
X78540000Y-77940000D01*
X79810000Y-79210000D02*
G75*
G03X78540000Y-77940000I-1270000J0D01*
G01*
X79810000Y-85560000D02*
X102670000Y-85560000D01*
X77270000Y-57620000D02*
X77270000Y-77940000D01*
X102670000Y-57620000D02*
X102670000Y-85560000D01*
X102670000Y-53810000D02*
X100130000Y-51270000D01*
X100130000Y-51270000D02*
X79810000Y-51270000D01*
X79810000Y-51270000D02*
X77270000Y-53810000D01*
X102670000Y-57620000D02*
X77270000Y-57620000D01*
X77270000Y-57620000D02*
X77270000Y-53810000D01*
X102670000Y-53810000D02*
X102670000Y-57620000D01*
G04 #@! TO.C,D1*
X72749940Y-78099840D02*
X73100460Y-78099840D01*
X76250060Y-78099840D02*
X75899540Y-78099840D01*
X72749940Y-82149420D02*
X73100460Y-82149420D01*
X72749940Y-77648540D02*
X73100460Y-77648540D01*
X76250060Y-77648540D02*
X75899540Y-77648540D01*
X76250060Y-82149420D02*
X75899540Y-82149420D01*
X72749940Y-77648540D02*
X72749940Y-82149420D01*
X76250060Y-77648540D02*
X76250060Y-82149420D01*
G04 #@! TO.C,Q1*
X79349760Y-87700840D02*
X79349760Y-87749100D01*
X80050800Y-90499820D02*
X79349760Y-90499820D01*
X79349760Y-90499820D02*
X79349760Y-90250900D01*
X79349760Y-87700840D02*
X79349760Y-87500180D01*
X79349760Y-87500180D02*
X80050800Y-87500180D01*
G04 #@! TO.C,P1*
X80870000Y-100270000D02*
X80870000Y-109630000D01*
X80870000Y-109630000D02*
X110430000Y-109630000D01*
X110430000Y-109630000D02*
X110430000Y-100270000D01*
X80870000Y-100270000D02*
X82350000Y-100270000D01*
X110430000Y-100270000D02*
X108950000Y-100270000D01*
X84450000Y-100270000D02*
X85850000Y-100270000D01*
X87950000Y-100270000D02*
X89350000Y-100270000D01*
X91450000Y-100270000D02*
X92850000Y-100270000D01*
X94950000Y-100270000D02*
X96350000Y-100270000D01*
X98450000Y-100270000D02*
X99850000Y-100270000D01*
X101950000Y-100270000D02*
X103350000Y-100270000D01*
X105450000Y-100270000D02*
X106850000Y-100270000D01*
X80870000Y-106350000D02*
X110430000Y-106350000D01*
X83400000Y-99250000D02*
X83700000Y-98650000D01*
X83700000Y-98650000D02*
X83100000Y-98650000D01*
X83100000Y-98650000D02*
X83400000Y-99250000D01*
G04 #@! TO.C,C3*
X89900000Y-67050000D02*
X88900000Y-67050000D01*
X88900000Y-68750000D02*
X89900000Y-68750000D01*
G04 #@! TO.C,D2*
X89800000Y-61300000D02*
X88250000Y-61300000D01*
X89800000Y-62500000D02*
X88250000Y-62500000D01*
G04 #@! TO.C,P2*
X109220000Y-87630000D02*
X109220000Y-80010000D01*
X106680000Y-87630000D02*
X106680000Y-80010000D01*
X106400000Y-90450000D02*
X106400000Y-88900000D01*
X109220000Y-80010000D02*
X106680000Y-80010000D01*
X106680000Y-87630000D02*
X109220000Y-87630000D01*
X109500000Y-88900000D02*
X109500000Y-90450000D01*
X109500000Y-90450000D02*
X106400000Y-90450000D01*
G04 #@! TO.C,P4*
X106960000Y-88900000D02*
X106960000Y-90450000D01*
X106960000Y-90450000D02*
X103860000Y-90450000D01*
X103860000Y-90450000D02*
X103860000Y-88900000D01*
X104140000Y-87630000D02*
X104140000Y-77470000D01*
X104140000Y-77470000D02*
X106680000Y-77470000D01*
X106680000Y-77470000D02*
X106680000Y-87630000D01*
X104140000Y-87630000D02*
X106680000Y-87630000D01*
G04 #@! TO.C,P7*
X106680000Y-69850000D02*
X106680000Y-67310000D01*
X106400000Y-72670000D02*
X106400000Y-71120000D01*
X106680000Y-69850000D02*
X109220000Y-69850000D01*
X109500000Y-71120000D02*
X109500000Y-72670000D01*
X109500000Y-72670000D02*
X106400000Y-72670000D01*
X109220000Y-69850000D02*
X109220000Y-67310000D01*
X109220000Y-67310000D02*
X106680000Y-67310000D01*
G04 #@! TO.C,Q2*
X69849760Y-59200840D02*
X69849760Y-59249100D01*
X70550800Y-61999820D02*
X69849760Y-61999820D01*
X69849760Y-61999820D02*
X69849760Y-61750900D01*
X69849760Y-59200840D02*
X69849760Y-59000180D01*
X69849760Y-59000180D02*
X70550800Y-59000180D01*
G04 #@! TO.C,R1*
X84675000Y-88500000D02*
X84675000Y-89500000D01*
X83325000Y-89500000D02*
X83325000Y-88500000D01*
G04 #@! TO.C,R3*
X89900000Y-77575000D02*
X88900000Y-77575000D01*
X88900000Y-76225000D02*
X89900000Y-76225000D01*
G04 #@! TO.C,R4*
X89900000Y-80575000D02*
X88900000Y-80575000D01*
X88900000Y-79225000D02*
X89900000Y-79225000D01*
G04 #@! TO.C,R5*
X88900000Y-64225000D02*
X89900000Y-64225000D01*
X89900000Y-65575000D02*
X88900000Y-65575000D01*
G04 #@! TO.C,R6*
X88900000Y-70225000D02*
X89900000Y-70225000D01*
X89900000Y-71575000D02*
X88900000Y-71575000D01*
G04 #@! TO.C,R7*
X89900000Y-74575000D02*
X88900000Y-74575000D01*
X88900000Y-73225000D02*
X89900000Y-73225000D01*
G04 #@! TO.C,R8*
X84000000Y-74675000D02*
X83000000Y-74675000D01*
X83000000Y-73325000D02*
X84000000Y-73325000D01*
G04 #@! TO.C,R9*
X84000000Y-77675000D02*
X83000000Y-77675000D01*
X83000000Y-76325000D02*
X84000000Y-76325000D01*
G04 #@! TO.C,R13*
X75175000Y-60000000D02*
X75175000Y-61000000D01*
X73825000Y-61000000D02*
X73825000Y-60000000D01*
G04 #@! TO.C,SP1*
X68700920Y-70000000D02*
G75*
G03X68700920Y-70000000I-1000760J0D01*
G01*
X73900300Y-70000000D02*
G75*
G03X73900300Y-70000000I-6200140J0D01*
G01*
G04 #@! TO.C,P3*
X60470000Y-97470000D02*
X60470000Y-109630000D01*
X60470000Y-109630000D02*
X72630000Y-109630000D01*
X72630000Y-109630000D02*
X72630000Y-97470000D01*
X72630000Y-97470000D02*
X60470000Y-97470000D01*
X60470000Y-108130000D02*
X60470000Y-106330000D01*
X60470000Y-106330000D02*
X72630000Y-106330000D01*
X72630000Y-106330000D02*
X72630000Y-108130000D01*
X72630000Y-108130000D02*
X60470000Y-108130000D01*
X63050000Y-109630000D02*
X65050000Y-109630000D01*
X65050000Y-109630000D02*
X64800000Y-108130000D01*
X64800000Y-108130000D02*
X63300000Y-108130000D01*
X63300000Y-108130000D02*
X63050000Y-109630000D01*
X68050000Y-109630000D02*
X70050000Y-109630000D01*
X70050000Y-109630000D02*
X69800000Y-108130000D01*
X69800000Y-108130000D02*
X68300000Y-108130000D01*
X68300000Y-108130000D02*
X68050000Y-109630000D01*
X64050000Y-97050000D02*
X64350000Y-96450000D01*
X64350000Y-96450000D02*
X63750000Y-96450000D01*
X63750000Y-96450000D02*
X64050000Y-97050000D01*
G04 #@! TO.C,U2*
X61350000Y-78600000D02*
X61350000Y-96800000D01*
X61350000Y-96800000D02*
X71550000Y-96800000D01*
X71550000Y-96800000D02*
X71550000Y-78600000D01*
X61350000Y-78600000D02*
X71550000Y-78600000D01*
G04 #@! TO.C,U1*
X89238095Y-58452380D02*
X89238095Y-59261904D01*
X89285714Y-59357142D01*
X89333333Y-59404761D01*
X89428571Y-59452380D01*
X89619047Y-59452380D01*
X89714285Y-59404761D01*
X89761904Y-59357142D01*
X89809523Y-59261904D01*
X89809523Y-58452380D01*
X90809523Y-59452380D02*
X90238095Y-59452380D01*
X90523809Y-59452380D02*
X90523809Y-58452380D01*
X90428571Y-58595238D01*
X90333333Y-58690476D01*
X90238095Y-58738095D01*
G04 #@! TO.C,D1*
X77552380Y-80637075D02*
X76552380Y-80637075D01*
X76552380Y-80398980D01*
X76600000Y-80256122D01*
X76695238Y-80160884D01*
X76790476Y-80113265D01*
X76980952Y-80065646D01*
X77123809Y-80065646D01*
X77314285Y-80113265D01*
X77409523Y-80160884D01*
X77504761Y-80256122D01*
X77552380Y-80398980D01*
X77552380Y-80637075D01*
X77552380Y-79113265D02*
X77552380Y-79684694D01*
X77552380Y-79398980D02*
X76552380Y-79398980D01*
X76695238Y-79494218D01*
X76790476Y-79589456D01*
X76838095Y-79684694D01*
X72002380Y-77260884D02*
X71002380Y-77260884D01*
X72002380Y-76689456D02*
X71430952Y-77118027D01*
X71002380Y-76689456D02*
X71573809Y-77260884D01*
X71766666Y-83037075D02*
X71766666Y-82560884D01*
X72052380Y-83132313D02*
X71052380Y-82798980D01*
X72052380Y-82465646D01*
G04 #@! TO.C,Q1*
X79904761Y-87047619D02*
X79809523Y-87000000D01*
X79714285Y-86904761D01*
X79571428Y-86761904D01*
X79476190Y-86714285D01*
X79380952Y-86714285D01*
X79428571Y-86952380D02*
X79333333Y-86904761D01*
X79238095Y-86809523D01*
X79190476Y-86619047D01*
X79190476Y-86285714D01*
X79238095Y-86095238D01*
X79333333Y-86000000D01*
X79428571Y-85952380D01*
X79619047Y-85952380D01*
X79714285Y-86000000D01*
X79809523Y-86095238D01*
X79857142Y-86285714D01*
X79857142Y-86619047D01*
X79809523Y-86809523D01*
X79714285Y-86904761D01*
X79619047Y-86952380D01*
X79428571Y-86952380D01*
X80809523Y-86952380D02*
X80238095Y-86952380D01*
X80523809Y-86952380D02*
X80523809Y-85952380D01*
X80428571Y-86095238D01*
X80333333Y-86190476D01*
X80238095Y-86238095D01*
G04 #@! TO.C,P1*
X94961904Y-105952380D02*
X94961904Y-104952380D01*
X95342857Y-104952380D01*
X95438095Y-105000000D01*
X95485714Y-105047619D01*
X95533333Y-105142857D01*
X95533333Y-105285714D01*
X95485714Y-105380952D01*
X95438095Y-105428571D01*
X95342857Y-105476190D01*
X94961904Y-105476190D01*
X96485714Y-105952380D02*
X95914285Y-105952380D01*
X96200000Y-105952380D02*
X96200000Y-104952380D01*
X96104761Y-105095238D01*
X96009523Y-105190476D01*
X95914285Y-105238095D01*
G04 #@! TO.C,C3*
X92333333Y-68357142D02*
X92285714Y-68404761D01*
X92142857Y-68452380D01*
X92047619Y-68452380D01*
X91904761Y-68404761D01*
X91809523Y-68309523D01*
X91761904Y-68214285D01*
X91714285Y-68023809D01*
X91714285Y-67880952D01*
X91761904Y-67690476D01*
X91809523Y-67595238D01*
X91904761Y-67500000D01*
X92047619Y-67452380D01*
X92142857Y-67452380D01*
X92285714Y-67500000D01*
X92333333Y-67547619D01*
X92666666Y-67452380D02*
X93285714Y-67452380D01*
X92952380Y-67833333D01*
X93095238Y-67833333D01*
X93190476Y-67880952D01*
X93238095Y-67928571D01*
X93285714Y-68023809D01*
X93285714Y-68261904D01*
X93238095Y-68357142D01*
X93190476Y-68404761D01*
X93095238Y-68452380D01*
X92809523Y-68452380D01*
X92714285Y-68404761D01*
X92666666Y-68357142D01*
G04 #@! TO.C,D2*
X91761904Y-62452380D02*
X91761904Y-61452380D01*
X92000000Y-61452380D01*
X92142857Y-61500000D01*
X92238095Y-61595238D01*
X92285714Y-61690476D01*
X92333333Y-61880952D01*
X92333333Y-62023809D01*
X92285714Y-62214285D01*
X92238095Y-62309523D01*
X92142857Y-62404761D01*
X92000000Y-62452380D01*
X91761904Y-62452380D01*
X92714285Y-61547619D02*
X92761904Y-61500000D01*
X92857142Y-61452380D01*
X93095238Y-61452380D01*
X93190476Y-61500000D01*
X93238095Y-61547619D01*
X93285714Y-61642857D01*
X93285714Y-61738095D01*
X93238095Y-61880952D01*
X92666666Y-62452380D01*
X93285714Y-62452380D01*
G04 #@! TO.C,P2*
X108387980Y-92655076D02*
X108387980Y-93131266D01*
X107387980Y-93131266D01*
X108292742Y-91750314D02*
X108340361Y-91797933D01*
X108387980Y-91940790D01*
X108387980Y-92036028D01*
X108340361Y-92178885D01*
X108245123Y-92274123D01*
X108149885Y-92321742D01*
X107959409Y-92369361D01*
X107816552Y-92369361D01*
X107626076Y-92321742D01*
X107530838Y-92274123D01*
X107435600Y-92178885D01*
X107387980Y-92036028D01*
X107387980Y-91940790D01*
X107435600Y-91797933D01*
X107483219Y-91750314D01*
X108387980Y-91321742D02*
X107387980Y-91321742D01*
X107387980Y-91083647D01*
X107435600Y-90940790D01*
X107530838Y-90845552D01*
X107626076Y-90797933D01*
X107816552Y-90750314D01*
X107959409Y-90750314D01*
X108149885Y-90797933D01*
X108245123Y-90845552D01*
X108340361Y-90940790D01*
X108387980Y-91083647D01*
X108387980Y-91321742D01*
G04 #@! TO.C,P4*
X105887980Y-93228885D02*
X104887980Y-93228885D01*
X105887980Y-92657457D01*
X104887980Y-92657457D01*
X105364171Y-91847933D02*
X105364171Y-92181266D01*
X105887980Y-92181266D02*
X104887980Y-92181266D01*
X104887980Y-91705076D01*
X105792742Y-90752695D02*
X105840361Y-90800314D01*
X105887980Y-90943171D01*
X105887980Y-91038409D01*
X105840361Y-91181266D01*
X105745123Y-91276504D01*
X105649885Y-91324123D01*
X105459409Y-91371742D01*
X105316552Y-91371742D01*
X105126076Y-91324123D01*
X105030838Y-91276504D01*
X104935600Y-91181266D01*
X104887980Y-91038409D01*
X104887980Y-90943171D01*
X104935600Y-90800314D01*
X104983219Y-90752695D01*
G04 #@! TO.C,P7*
X105952380Y-71815714D02*
X104952380Y-71815714D01*
X104952380Y-71434761D01*
X105000000Y-71339523D01*
X105047619Y-71291904D01*
X105142857Y-71244285D01*
X105285714Y-71244285D01*
X105380952Y-71291904D01*
X105428571Y-71339523D01*
X105476190Y-71434761D01*
X105476190Y-71815714D01*
X105952380Y-70244285D02*
X105476190Y-70577619D01*
X105952380Y-70815714D02*
X104952380Y-70815714D01*
X104952380Y-70434761D01*
X105000000Y-70339523D01*
X105047619Y-70291904D01*
X105142857Y-70244285D01*
X105285714Y-70244285D01*
X105380952Y-70291904D01*
X105428571Y-70339523D01*
X105476190Y-70434761D01*
X105476190Y-70815714D01*
X104952380Y-69625238D02*
X104952380Y-69434761D01*
X105000000Y-69339523D01*
X105095238Y-69244285D01*
X105285714Y-69196666D01*
X105619047Y-69196666D01*
X105809523Y-69244285D01*
X105904761Y-69339523D01*
X105952380Y-69434761D01*
X105952380Y-69625238D01*
X105904761Y-69720476D01*
X105809523Y-69815714D01*
X105619047Y-69863333D01*
X105285714Y-69863333D01*
X105095238Y-69815714D01*
X105000000Y-69720476D01*
X104952380Y-69625238D01*
X105000000Y-68244285D02*
X104952380Y-68339523D01*
X104952380Y-68482380D01*
X105000000Y-68625238D01*
X105095238Y-68720476D01*
X105190476Y-68768095D01*
X105380952Y-68815714D01*
X105523809Y-68815714D01*
X105714285Y-68768095D01*
X105809523Y-68720476D01*
X105904761Y-68625238D01*
X105952380Y-68482380D01*
X105952380Y-68387142D01*
X105904761Y-68244285D01*
X105857142Y-68196666D01*
X105523809Y-68196666D01*
X105523809Y-68387142D01*
G04 #@! TO.C,Q2*
X68797619Y-60595238D02*
X68750000Y-60690476D01*
X68654761Y-60785714D01*
X68511904Y-60928571D01*
X68464285Y-61023809D01*
X68464285Y-61119047D01*
X68702380Y-61071428D02*
X68654761Y-61166666D01*
X68559523Y-61261904D01*
X68369047Y-61309523D01*
X68035714Y-61309523D01*
X67845238Y-61261904D01*
X67750000Y-61166666D01*
X67702380Y-61071428D01*
X67702380Y-60880952D01*
X67750000Y-60785714D01*
X67845238Y-60690476D01*
X68035714Y-60642857D01*
X68369047Y-60642857D01*
X68559523Y-60690476D01*
X68654761Y-60785714D01*
X68702380Y-60880952D01*
X68702380Y-61071428D01*
X67797619Y-60261904D02*
X67750000Y-60214285D01*
X67702380Y-60119047D01*
X67702380Y-59880952D01*
X67750000Y-59785714D01*
X67797619Y-59738095D01*
X67892857Y-59690476D01*
X67988095Y-59690476D01*
X68130952Y-59738095D01*
X68702380Y-60309523D01*
X68702380Y-59690476D01*
G04 #@! TO.C,R1*
X83833333Y-86952380D02*
X83500000Y-86476190D01*
X83261904Y-86952380D02*
X83261904Y-85952380D01*
X83642857Y-85952380D01*
X83738095Y-86000000D01*
X83785714Y-86047619D01*
X83833333Y-86142857D01*
X83833333Y-86285714D01*
X83785714Y-86380952D01*
X83738095Y-86428571D01*
X83642857Y-86476190D01*
X83261904Y-86476190D01*
X84785714Y-86952380D02*
X84214285Y-86952380D01*
X84500000Y-86952380D02*
X84500000Y-85952380D01*
X84404761Y-86095238D01*
X84309523Y-86190476D01*
X84214285Y-86238095D01*
G04 #@! TO.C,R3*
X92333333Y-77452380D02*
X92000000Y-76976190D01*
X91761904Y-77452380D02*
X91761904Y-76452380D01*
X92142857Y-76452380D01*
X92238095Y-76500000D01*
X92285714Y-76547619D01*
X92333333Y-76642857D01*
X92333333Y-76785714D01*
X92285714Y-76880952D01*
X92238095Y-76928571D01*
X92142857Y-76976190D01*
X91761904Y-76976190D01*
X92666666Y-76452380D02*
X93285714Y-76452380D01*
X92952380Y-76833333D01*
X93095238Y-76833333D01*
X93190476Y-76880952D01*
X93238095Y-76928571D01*
X93285714Y-77023809D01*
X93285714Y-77261904D01*
X93238095Y-77357142D01*
X93190476Y-77404761D01*
X93095238Y-77452380D01*
X92809523Y-77452380D01*
X92714285Y-77404761D01*
X92666666Y-77357142D01*
G04 #@! TO.C,R4*
X92333333Y-80452380D02*
X92000000Y-79976190D01*
X91761904Y-80452380D02*
X91761904Y-79452380D01*
X92142857Y-79452380D01*
X92238095Y-79500000D01*
X92285714Y-79547619D01*
X92333333Y-79642857D01*
X92333333Y-79785714D01*
X92285714Y-79880952D01*
X92238095Y-79928571D01*
X92142857Y-79976190D01*
X91761904Y-79976190D01*
X93190476Y-79785714D02*
X93190476Y-80452380D01*
X92952380Y-79404761D02*
X92714285Y-80119047D01*
X93333333Y-80119047D01*
G04 #@! TO.C,R5*
X92333333Y-65452380D02*
X92000000Y-64976190D01*
X91761904Y-65452380D02*
X91761904Y-64452380D01*
X92142857Y-64452380D01*
X92238095Y-64500000D01*
X92285714Y-64547619D01*
X92333333Y-64642857D01*
X92333333Y-64785714D01*
X92285714Y-64880952D01*
X92238095Y-64928571D01*
X92142857Y-64976190D01*
X91761904Y-64976190D01*
X93238095Y-64452380D02*
X92761904Y-64452380D01*
X92714285Y-64928571D01*
X92761904Y-64880952D01*
X92857142Y-64833333D01*
X93095238Y-64833333D01*
X93190476Y-64880952D01*
X93238095Y-64928571D01*
X93285714Y-65023809D01*
X93285714Y-65261904D01*
X93238095Y-65357142D01*
X93190476Y-65404761D01*
X93095238Y-65452380D01*
X92857142Y-65452380D01*
X92761904Y-65404761D01*
X92714285Y-65357142D01*
G04 #@! TO.C,R6*
X92333333Y-71452380D02*
X92000000Y-70976190D01*
X91761904Y-71452380D02*
X91761904Y-70452380D01*
X92142857Y-70452380D01*
X92238095Y-70500000D01*
X92285714Y-70547619D01*
X92333333Y-70642857D01*
X92333333Y-70785714D01*
X92285714Y-70880952D01*
X92238095Y-70928571D01*
X92142857Y-70976190D01*
X91761904Y-70976190D01*
X93190476Y-70452380D02*
X93000000Y-70452380D01*
X92904761Y-70500000D01*
X92857142Y-70547619D01*
X92761904Y-70690476D01*
X92714285Y-70880952D01*
X92714285Y-71261904D01*
X92761904Y-71357142D01*
X92809523Y-71404761D01*
X92904761Y-71452380D01*
X93095238Y-71452380D01*
X93190476Y-71404761D01*
X93238095Y-71357142D01*
X93285714Y-71261904D01*
X93285714Y-71023809D01*
X93238095Y-70928571D01*
X93190476Y-70880952D01*
X93095238Y-70833333D01*
X92904761Y-70833333D01*
X92809523Y-70880952D01*
X92761904Y-70928571D01*
X92714285Y-71023809D01*
G04 #@! TO.C,R7*
X92333333Y-74452380D02*
X92000000Y-73976190D01*
X91761904Y-74452380D02*
X91761904Y-73452380D01*
X92142857Y-73452380D01*
X92238095Y-73500000D01*
X92285714Y-73547619D01*
X92333333Y-73642857D01*
X92333333Y-73785714D01*
X92285714Y-73880952D01*
X92238095Y-73928571D01*
X92142857Y-73976190D01*
X91761904Y-73976190D01*
X92666666Y-73452380D02*
X93333333Y-73452380D01*
X92904761Y-74452380D01*
G04 #@! TO.C,R8*
X80883333Y-74452380D02*
X80550000Y-73976190D01*
X80311904Y-74452380D02*
X80311904Y-73452380D01*
X80692857Y-73452380D01*
X80788095Y-73500000D01*
X80835714Y-73547619D01*
X80883333Y-73642857D01*
X80883333Y-73785714D01*
X80835714Y-73880952D01*
X80788095Y-73928571D01*
X80692857Y-73976190D01*
X80311904Y-73976190D01*
X81454761Y-73880952D02*
X81359523Y-73833333D01*
X81311904Y-73785714D01*
X81264285Y-73690476D01*
X81264285Y-73642857D01*
X81311904Y-73547619D01*
X81359523Y-73500000D01*
X81454761Y-73452380D01*
X81645238Y-73452380D01*
X81740476Y-73500000D01*
X81788095Y-73547619D01*
X81835714Y-73642857D01*
X81835714Y-73690476D01*
X81788095Y-73785714D01*
X81740476Y-73833333D01*
X81645238Y-73880952D01*
X81454761Y-73880952D01*
X81359523Y-73928571D01*
X81311904Y-73976190D01*
X81264285Y-74071428D01*
X81264285Y-74261904D01*
X81311904Y-74357142D01*
X81359523Y-74404761D01*
X81454761Y-74452380D01*
X81645238Y-74452380D01*
X81740476Y-74404761D01*
X81788095Y-74357142D01*
X81835714Y-74261904D01*
X81835714Y-74071428D01*
X81788095Y-73976190D01*
X81740476Y-73928571D01*
X81645238Y-73880952D01*
G04 #@! TO.C,R9*
X80883333Y-77452380D02*
X80550000Y-76976190D01*
X80311904Y-77452380D02*
X80311904Y-76452380D01*
X80692857Y-76452380D01*
X80788095Y-76500000D01*
X80835714Y-76547619D01*
X80883333Y-76642857D01*
X80883333Y-76785714D01*
X80835714Y-76880952D01*
X80788095Y-76928571D01*
X80692857Y-76976190D01*
X80311904Y-76976190D01*
X81359523Y-77452380D02*
X81550000Y-77452380D01*
X81645238Y-77404761D01*
X81692857Y-77357142D01*
X81788095Y-77214285D01*
X81835714Y-77023809D01*
X81835714Y-76642857D01*
X81788095Y-76547619D01*
X81740476Y-76500000D01*
X81645238Y-76452380D01*
X81454761Y-76452380D01*
X81359523Y-76500000D01*
X81311904Y-76547619D01*
X81264285Y-76642857D01*
X81264285Y-76880952D01*
X81311904Y-76976190D01*
X81359523Y-77023809D01*
X81454761Y-77071428D01*
X81645238Y-77071428D01*
X81740476Y-77023809D01*
X81788095Y-76976190D01*
X81835714Y-76880952D01*
G04 #@! TO.C,R13*
X76552380Y-61042857D02*
X76076190Y-61376190D01*
X76552380Y-61614285D02*
X75552380Y-61614285D01*
X75552380Y-61233333D01*
X75600000Y-61138095D01*
X75647619Y-61090476D01*
X75742857Y-61042857D01*
X75885714Y-61042857D01*
X75980952Y-61090476D01*
X76028571Y-61138095D01*
X76076190Y-61233333D01*
X76076190Y-61614285D01*
X76552380Y-60090476D02*
X76552380Y-60661904D01*
X76552380Y-60376190D02*
X75552380Y-60376190D01*
X75695238Y-60471428D01*
X75790476Y-60566666D01*
X75838095Y-60661904D01*
X75552380Y-59757142D02*
X75552380Y-59138095D01*
X75933333Y-59471428D01*
X75933333Y-59328571D01*
X75980952Y-59233333D01*
X76028571Y-59185714D01*
X76123809Y-59138095D01*
X76361904Y-59138095D01*
X76457142Y-59185714D01*
X76504761Y-59233333D01*
X76552380Y-59328571D01*
X76552380Y-59614285D01*
X76504761Y-59709523D01*
X76457142Y-59757142D01*
G04 #@! TO.C,SP1*
X66438255Y-73104761D02*
X66581112Y-73152380D01*
X66819207Y-73152380D01*
X66914445Y-73104761D01*
X66962064Y-73057142D01*
X67009683Y-72961904D01*
X67009683Y-72866666D01*
X66962064Y-72771428D01*
X66914445Y-72723809D01*
X66819207Y-72676190D01*
X66628731Y-72628571D01*
X66533493Y-72580952D01*
X66485874Y-72533333D01*
X66438255Y-72438095D01*
X66438255Y-72342857D01*
X66485874Y-72247619D01*
X66533493Y-72200000D01*
X66628731Y-72152380D01*
X66866826Y-72152380D01*
X67009683Y-72200000D01*
X67438255Y-73152380D02*
X67438255Y-72152380D01*
X67819207Y-72152380D01*
X67914445Y-72200000D01*
X67962064Y-72247619D01*
X68009683Y-72342857D01*
X68009683Y-72485714D01*
X67962064Y-72580952D01*
X67914445Y-72628571D01*
X67819207Y-72676190D01*
X67438255Y-72676190D01*
X68962064Y-73152380D02*
X68390636Y-73152380D01*
X68676350Y-73152380D02*
X68676350Y-72152380D01*
X68581112Y-72295238D01*
X68485874Y-72390476D01*
X68390636Y-72438095D01*
X63509207Y-67531428D02*
X64271112Y-67531428D01*
X63890160Y-67912380D02*
X63890160Y-67150476D01*
G04 #@! TO.C,P3*
X65761904Y-106002380D02*
X65761904Y-105002380D01*
X66142857Y-105002380D01*
X66238095Y-105050000D01*
X66285714Y-105097619D01*
X66333333Y-105192857D01*
X66333333Y-105335714D01*
X66285714Y-105430952D01*
X66238095Y-105478571D01*
X66142857Y-105526190D01*
X65761904Y-105526190D01*
X66666666Y-105002380D02*
X67285714Y-105002380D01*
X66952380Y-105383333D01*
X67095238Y-105383333D01*
X67190476Y-105430952D01*
X67238095Y-105478571D01*
X67285714Y-105573809D01*
X67285714Y-105811904D01*
X67238095Y-105907142D01*
X67190476Y-105954761D01*
X67095238Y-106002380D01*
X66809523Y-106002380D01*
X66714285Y-105954761D01*
X66666666Y-105907142D01*
G04 #@! TO.C,U2*
X59552380Y-88461904D02*
X60361904Y-88461904D01*
X60457142Y-88414285D01*
X60504761Y-88366666D01*
X60552380Y-88271428D01*
X60552380Y-88080952D01*
X60504761Y-87985714D01*
X60457142Y-87938095D01*
X60361904Y-87890476D01*
X59552380Y-87890476D01*
X59647619Y-87461904D02*
X59600000Y-87414285D01*
X59552380Y-87319047D01*
X59552380Y-87080952D01*
X59600000Y-86985714D01*
X59647619Y-86938095D01*
X59742857Y-86890476D01*
X59838095Y-86890476D01*
X59980952Y-86938095D01*
X60552380Y-87509523D01*
X60552380Y-86890476D01*
G04 #@! TD*
M02*
