G04 #@! TF.GenerationSoftware,KiCad,Pcbnew,(5.0.0-3-g5ebb6b6)*
G04 #@! TF.CreationDate,2018-11-06T19:13:36+00:00*
G04 #@! TF.ProjectId,stony_skunk,73746F6E795F736B756E6B2E6B696361,rev?*
G04 #@! TF.SameCoordinates,Original*
G04 #@! TF.FileFunction,Copper,L2,Bot,Signal*
G04 #@! TF.FilePolarity,Positive*
%FSLAX46Y46*%
G04 Gerber Fmt 4.6, Leading zero omitted, Abs format (unit mm)*
G04 Created by KiCad (PCBNEW (5.0.0-3-g5ebb6b6)) date Tuesday, 06 November 2018 at 19:13:36*
%MOMM*%
%LPD*%
G01*
G04 APERTURE LIST*
G04 #@! TA.AperFunction,ComponentPad*
%ADD10C,1.700000*%
G04 #@! TD*
G04 #@! TA.AperFunction,ComponentPad*
%ADD11R,1.800000X3.600000*%
G04 #@! TD*
G04 #@! TA.AperFunction,ComponentPad*
%ADD12O,1.800000X3.600000*%
G04 #@! TD*
G04 #@! TA.AperFunction,ComponentPad*
%ADD13R,2.032000X1.727200*%
G04 #@! TD*
G04 #@! TA.AperFunction,ComponentPad*
%ADD14O,2.032000X1.727200*%
G04 #@! TD*
G04 #@! TA.AperFunction,ComponentPad*
%ADD15R,2.032000X2.032000*%
G04 #@! TD*
G04 #@! TA.AperFunction,ComponentPad*
%ADD16O,2.032000X2.032000*%
G04 #@! TD*
G04 #@! TA.AperFunction,ComponentPad*
%ADD17C,2.000000*%
G04 #@! TD*
G04 #@! TA.AperFunction,ComponentPad*
%ADD18R,2.100000X3.600000*%
G04 #@! TD*
G04 #@! TA.AperFunction,ComponentPad*
%ADD19O,2.100000X3.600000*%
G04 #@! TD*
G04 #@! TA.AperFunction,ComponentPad*
%ADD20C,2.600000*%
G04 #@! TD*
G04 #@! TA.AperFunction,ViaPad*
%ADD21C,0.609600*%
G04 #@! TD*
G04 #@! TA.AperFunction,Conductor*
%ADD22C,0.508000*%
G04 #@! TD*
G04 #@! TA.AperFunction,Conductor*
%ADD23C,0.254000*%
G04 #@! TD*
G04 APERTURE END LIST*
D10*
G04 #@! TO.P,U1,1*
G04 #@! TO.N,Net-(U1-Pad1)*
X78540000Y-58890000D03*
G04 #@! TO.P,U1,2*
G04 #@! TO.N,ADC*
X78540000Y-61430000D03*
G04 #@! TO.P,U1,3*
G04 #@! TO.N,Net-(U1-Pad3)*
X78540000Y-63970000D03*
G04 #@! TO.P,U1,4*
G04 #@! TO.N,RELAY*
X78540000Y-66510000D03*
G04 #@! TO.P,U1,5*
G04 #@! TO.N,SCL*
X78540000Y-69050000D03*
G04 #@! TO.P,U1,6*
G04 #@! TO.N,SDA*
X78540000Y-71590000D03*
G04 #@! TO.P,U1,7*
G04 #@! TO.N,BUZZER*
X78540000Y-74130000D03*
G04 #@! TO.P,U1,8*
G04 #@! TO.N,+3V3*
X78540000Y-76670000D03*
G04 #@! TO.P,U1,9*
G04 #@! TO.N,+5V*
X101400000Y-76670000D03*
G04 #@! TO.P,U1,10*
G04 #@! TO.N,GND*
X101400000Y-74130000D03*
G04 #@! TO.P,U1,11*
G04 #@! TO.N,PN532_RESET*
X101400000Y-71590000D03*
G04 #@! TO.P,U1,12*
G04 #@! TO.N,GPIO0*
X101400000Y-69050000D03*
G04 #@! TO.P,U1,13*
G04 #@! TO.N,BUTTON_A*
X101400000Y-66510000D03*
G04 #@! TO.P,U1,14*
G04 #@! TO.N,BUTTON_B*
X101400000Y-63970000D03*
G04 #@! TO.P,U1,15*
G04 #@! TO.N,Net-(U1-Pad15)*
X101400000Y-61430000D03*
G04 #@! TO.P,U1,16*
G04 #@! TO.N,Net-(U1-Pad16)*
X101400000Y-58890000D03*
G04 #@! TD*
D11*
G04 #@! TO.P,P1,1*
G04 #@! TO.N,CURRENT_A*
X83400000Y-101550000D03*
D12*
G04 #@! TO.P,P1,2*
G04 #@! TO.N,CURRENT_B*
X86900000Y-101550000D03*
G04 #@! TO.P,P1,3*
G04 #@! TO.N,GND*
X90400000Y-101550000D03*
G04 #@! TO.P,P1,4*
G04 #@! TO.N,BUTTON_A*
X93900000Y-101550000D03*
G04 #@! TO.P,P1,5*
G04 #@! TO.N,GND*
X97400000Y-101550000D03*
G04 #@! TO.P,P1,6*
G04 #@! TO.N,BUTTON_B*
X100900000Y-101550000D03*
G04 #@! TO.P,P1,7*
G04 #@! TO.N,GND*
X104400000Y-101550000D03*
G04 #@! TO.P,P1,8*
G04 #@! TO.N,+5V*
X107900000Y-101550000D03*
G04 #@! TD*
D13*
G04 #@! TO.P,P2,1*
G04 #@! TO.N,GND*
X107950000Y-88900000D03*
D14*
G04 #@! TO.P,P2,2*
G04 #@! TO.N,+5V*
X107950000Y-86360000D03*
G04 #@! TO.P,P2,3*
G04 #@! TO.N,SDA*
X107950000Y-83820000D03*
G04 #@! TO.P,P2,4*
G04 #@! TO.N,SCL*
X107950000Y-81280000D03*
G04 #@! TD*
D13*
G04 #@! TO.P,P4,1*
G04 #@! TO.N,GND*
X105410000Y-88900000D03*
D14*
G04 #@! TO.P,P4,2*
G04 #@! TO.N,+5V*
X105410000Y-86360000D03*
G04 #@! TO.P,P4,3*
G04 #@! TO.N,SDA*
X105410000Y-83820000D03*
G04 #@! TO.P,P4,4*
G04 #@! TO.N,SCL*
X105410000Y-81280000D03*
G04 #@! TO.P,P4,5*
G04 #@! TO.N,PN532_RESET*
X105410000Y-78740000D03*
G04 #@! TD*
D15*
G04 #@! TO.P,P7,1*
G04 #@! TO.N,GND*
X107950000Y-71120000D03*
D16*
G04 #@! TO.P,P7,2*
G04 #@! TO.N,GPIO0*
X107950000Y-68580000D03*
G04 #@! TD*
D17*
G04 #@! TO.P,SP1,1*
G04 #@! TO.N,+5V*
X63900320Y-70000000D03*
G04 #@! TO.P,SP1,2*
G04 #@! TO.N,Net-(Q2-Pad3)*
X71500000Y-70000000D03*
G04 #@! TD*
D18*
G04 #@! TO.P,P3,1*
G04 #@! TO.N,Net-(P3-Pad1)*
X64050000Y-99550000D03*
D19*
G04 #@! TO.P,P3,2*
G04 #@! TO.N,Net-(P3-Pad2)*
X69050000Y-99550000D03*
G04 #@! TD*
D20*
G04 #@! TO.P,U2,2*
G04 #@! TO.N,Net-(D1-Pad2)*
X62650000Y-79850000D03*
G04 #@! TO.P,U2,1*
G04 #@! TO.N,+5V*
X70250000Y-79850000D03*
G04 #@! TO.P,U2,4*
G04 #@! TO.N,Net-(P3-Pad2)*
X70250000Y-95090000D03*
G04 #@! TO.P,U2,3*
G04 #@! TO.N,Net-(P3-Pad1)*
X62650000Y-92550000D03*
G04 #@! TD*
D21*
G04 #@! TO.N,+5V*
X78500000Y-80500000D03*
G04 #@! TO.N,GND*
X75500000Y-59000000D03*
X81000000Y-84500000D03*
X91200000Y-66500000D03*
G04 #@! TO.N,+3V3*
X91250000Y-71750000D03*
X82500000Y-72500000D03*
G04 #@! TO.N,SDA*
X83500000Y-80000000D03*
X101250000Y-82750000D03*
G04 #@! TO.N,SCL*
X85000000Y-80000000D03*
X101250000Y-81500000D03*
G04 #@! TD*
D22*
G04 #@! TO.N,+5V*
X78804799Y-80195201D02*
X78500000Y-80500000D01*
X82330000Y-76670000D02*
X78804799Y-80195201D01*
X101400000Y-76670000D02*
X82330000Y-76670000D01*
G04 #@! TO.N,GND*
X81000000Y-84500000D02*
X80695201Y-84195201D01*
X75500000Y-79000000D02*
X80695201Y-84195201D01*
X75500000Y-59000000D02*
X75500000Y-79000000D01*
X101400000Y-74130000D02*
X98830000Y-74130000D01*
X98830000Y-74130000D02*
X91200000Y-66500000D01*
X81304799Y-84804799D02*
X81000000Y-84500000D01*
X90400000Y-93900000D02*
X81304799Y-84804799D01*
X90400000Y-101550000D02*
X90400000Y-93900000D01*
D23*
X101400000Y-74130000D02*
X106210000Y-74130000D01*
X106210000Y-74130000D02*
X107950000Y-72390000D01*
X107950000Y-72390000D02*
X107950000Y-71120000D01*
D22*
X101400000Y-74130000D02*
X102870000Y-75600000D01*
X102870000Y-75600000D02*
X102870000Y-91440000D01*
X104400000Y-101550000D02*
X102870000Y-100020000D01*
X102870000Y-91440000D02*
X102905000Y-91405000D01*
X102905000Y-91405000D02*
X105410000Y-88900000D01*
X102870000Y-100020000D02*
X102870000Y-91440000D01*
X105410000Y-88900000D02*
X107950000Y-88900000D01*
X92950000Y-105000000D02*
X99500000Y-105000000D01*
X99500000Y-105000000D02*
X101850000Y-105000000D01*
X97400000Y-103604000D02*
X98796000Y-105000000D01*
X97400000Y-101550000D02*
X97400000Y-103604000D01*
X98796000Y-105000000D02*
X99500000Y-105000000D01*
X101850000Y-105000000D02*
X104400000Y-102450000D01*
X104400000Y-102450000D02*
X104400000Y-101550000D01*
X90400000Y-101550000D02*
X90400000Y-102450000D01*
X90400000Y-102450000D02*
X92950000Y-105000000D01*
X97400000Y-102450000D02*
X97400000Y-101550000D01*
D23*
G04 #@! TO.N,+3V3*
X82500000Y-72500000D02*
X83000000Y-72000000D01*
X83000000Y-72000000D02*
X91000000Y-72000000D01*
X91000000Y-72000000D02*
X91250000Y-71750000D01*
G04 #@! TO.N,SDA*
X101250000Y-82750000D02*
X100750000Y-82250000D01*
X100750000Y-82250000D02*
X85750000Y-82250000D01*
X85750000Y-82250000D02*
X83500000Y-80000000D01*
G04 #@! TO.N,SCL*
X101250000Y-81500000D02*
X86500000Y-81500000D01*
X86500000Y-81500000D02*
X85000000Y-80000000D01*
G04 #@! TO.N,Net-(P3-Pad1)*
X64050000Y-99550000D02*
X64050000Y-93950000D01*
X64050000Y-93950000D02*
X62650000Y-92550000D01*
G04 #@! TO.N,Net-(P3-Pad2)*
X69050000Y-99550000D02*
X69050000Y-96290000D01*
X69050000Y-96290000D02*
X70250000Y-95090000D01*
G04 #@! TD*
G04 #@! TO.N,GND*
G36*
X61597646Y-58112297D02*
X61265000Y-58915376D01*
X61265000Y-59784624D01*
X61597646Y-60587703D01*
X62212297Y-61202354D01*
X63015376Y-61535000D01*
X63884624Y-61535000D01*
X64687703Y-61202354D01*
X65302354Y-60587703D01*
X65635000Y-59784624D01*
X65635000Y-58915376D01*
X65302354Y-58112297D01*
X65067057Y-57877000D01*
X77452893Y-57877000D01*
X77281078Y-58048815D01*
X77055000Y-58594615D01*
X77055000Y-59185385D01*
X77281078Y-59731185D01*
X77698815Y-60148922D01*
X77725560Y-60160000D01*
X77698815Y-60171078D01*
X77281078Y-60588815D01*
X77055000Y-61134615D01*
X77055000Y-61725385D01*
X77281078Y-62271185D01*
X77698815Y-62688922D01*
X77725560Y-62700000D01*
X77698815Y-62711078D01*
X77281078Y-63128815D01*
X77055000Y-63674615D01*
X77055000Y-64265385D01*
X77281078Y-64811185D01*
X77698815Y-65228922D01*
X77725560Y-65240000D01*
X77698815Y-65251078D01*
X77281078Y-65668815D01*
X77055000Y-66214615D01*
X77055000Y-66805385D01*
X77281078Y-67351185D01*
X77698815Y-67768922D01*
X77725560Y-67780000D01*
X77698815Y-67791078D01*
X77281078Y-68208815D01*
X77055000Y-68754615D01*
X77055000Y-69345385D01*
X77281078Y-69891185D01*
X77698815Y-70308922D01*
X77725560Y-70320000D01*
X77698815Y-70331078D01*
X77281078Y-70748815D01*
X77055000Y-71294615D01*
X77055000Y-71885385D01*
X77281078Y-72431185D01*
X77698815Y-72848922D01*
X77725560Y-72860000D01*
X77698815Y-72871078D01*
X77281078Y-73288815D01*
X77055000Y-73834615D01*
X77055000Y-74425385D01*
X77281078Y-74971185D01*
X77698815Y-75388922D01*
X77725560Y-75400000D01*
X77698815Y-75411078D01*
X77281078Y-75828815D01*
X77055000Y-76374615D01*
X77055000Y-76965385D01*
X77281078Y-77511185D01*
X77698815Y-77928922D01*
X78244615Y-78155000D01*
X78835385Y-78155000D01*
X79381185Y-77928922D01*
X79798922Y-77511185D01*
X80025000Y-76965385D01*
X80025000Y-76374615D01*
X79798922Y-75828815D01*
X79381185Y-75411078D01*
X79354440Y-75400000D01*
X79381185Y-75388922D01*
X79798922Y-74971185D01*
X80025000Y-74425385D01*
X80025000Y-73901279D01*
X99903282Y-73901279D01*
X99929685Y-74491458D01*
X100104741Y-74914080D01*
X100356042Y-74994353D01*
X101220395Y-74130000D01*
X101579605Y-74130000D01*
X102443958Y-74994353D01*
X102695259Y-74914080D01*
X102896718Y-74358721D01*
X102870315Y-73768542D01*
X102695259Y-73345920D01*
X102443958Y-73265647D01*
X101579605Y-74130000D01*
X101220395Y-74130000D01*
X100356042Y-73265647D01*
X100104741Y-73345920D01*
X99903282Y-73901279D01*
X80025000Y-73901279D01*
X80025000Y-73834615D01*
X79798922Y-73288815D01*
X79381185Y-72871078D01*
X79354440Y-72860000D01*
X79381185Y-72848922D01*
X79798922Y-72431185D01*
X79847850Y-72313062D01*
X81560200Y-72313062D01*
X81560200Y-72686938D01*
X81703276Y-73032354D01*
X81967646Y-73296724D01*
X82313062Y-73439800D01*
X82686938Y-73439800D01*
X83032354Y-73296724D01*
X83296724Y-73032354D01*
X83408708Y-72762000D01*
X90924957Y-72762000D01*
X91000000Y-72776927D01*
X91075043Y-72762000D01*
X91075048Y-72762000D01*
X91297317Y-72717788D01*
X91339204Y-72689800D01*
X91436938Y-72689800D01*
X91782354Y-72546724D01*
X92046724Y-72282354D01*
X92189800Y-71936938D01*
X92189800Y-71563062D01*
X92046724Y-71217646D01*
X91782354Y-70953276D01*
X91436938Y-70810200D01*
X91063062Y-70810200D01*
X90717646Y-70953276D01*
X90453276Y-71217646D01*
X90444845Y-71238000D01*
X83075047Y-71238000D01*
X83000000Y-71223072D01*
X82924953Y-71238000D01*
X82924952Y-71238000D01*
X82702683Y-71282212D01*
X82450629Y-71450629D01*
X82408118Y-71514251D01*
X82362169Y-71560200D01*
X82313062Y-71560200D01*
X81967646Y-71703276D01*
X81703276Y-71967646D01*
X81560200Y-72313062D01*
X79847850Y-72313062D01*
X80025000Y-71885385D01*
X80025000Y-71294615D01*
X79798922Y-70748815D01*
X79381185Y-70331078D01*
X79354440Y-70320000D01*
X79381185Y-70308922D01*
X79798922Y-69891185D01*
X80025000Y-69345385D01*
X80025000Y-68754615D01*
X79798922Y-68208815D01*
X79381185Y-67791078D01*
X79354440Y-67780000D01*
X79381185Y-67768922D01*
X79798922Y-67351185D01*
X80025000Y-66805385D01*
X80025000Y-66214615D01*
X79798922Y-65668815D01*
X79381185Y-65251078D01*
X79354440Y-65240000D01*
X79381185Y-65228922D01*
X79798922Y-64811185D01*
X80025000Y-64265385D01*
X80025000Y-63674615D01*
X79798922Y-63128815D01*
X79381185Y-62711078D01*
X79354440Y-62700000D01*
X79381185Y-62688922D01*
X79798922Y-62271185D01*
X80025000Y-61725385D01*
X80025000Y-61134615D01*
X79798922Y-60588815D01*
X79381185Y-60171078D01*
X79354440Y-60160000D01*
X79381185Y-60148922D01*
X79798922Y-59731185D01*
X80025000Y-59185385D01*
X80025000Y-58594615D01*
X79798922Y-58048815D01*
X79627107Y-57877000D01*
X100312893Y-57877000D01*
X100141078Y-58048815D01*
X99915000Y-58594615D01*
X99915000Y-59185385D01*
X100141078Y-59731185D01*
X100558815Y-60148922D01*
X100585560Y-60160000D01*
X100558815Y-60171078D01*
X100141078Y-60588815D01*
X99915000Y-61134615D01*
X99915000Y-61725385D01*
X100141078Y-62271185D01*
X100558815Y-62688922D01*
X100585560Y-62700000D01*
X100558815Y-62711078D01*
X100141078Y-63128815D01*
X99915000Y-63674615D01*
X99915000Y-64265385D01*
X100141078Y-64811185D01*
X100558815Y-65228922D01*
X100585560Y-65240000D01*
X100558815Y-65251078D01*
X100141078Y-65668815D01*
X99915000Y-66214615D01*
X99915000Y-66805385D01*
X100141078Y-67351185D01*
X100558815Y-67768922D01*
X100585560Y-67780000D01*
X100558815Y-67791078D01*
X100141078Y-68208815D01*
X99915000Y-68754615D01*
X99915000Y-69345385D01*
X100141078Y-69891185D01*
X100558815Y-70308922D01*
X100585560Y-70320000D01*
X100558815Y-70331078D01*
X100141078Y-70748815D01*
X99915000Y-71294615D01*
X99915000Y-71885385D01*
X100141078Y-72431185D01*
X100558815Y-72848922D01*
X100605247Y-72868155D01*
X100535647Y-73086042D01*
X101400000Y-73950395D01*
X102264353Y-73086042D01*
X102194753Y-72868155D01*
X102241185Y-72848922D01*
X102658922Y-72431185D01*
X102885000Y-71885385D01*
X102885000Y-71405750D01*
X106299000Y-71405750D01*
X106299000Y-72262310D01*
X106395673Y-72495699D01*
X106574302Y-72674327D01*
X106807691Y-72771000D01*
X107664250Y-72771000D01*
X107823000Y-72612250D01*
X107823000Y-71247000D01*
X108077000Y-71247000D01*
X108077000Y-72612250D01*
X108235750Y-72771000D01*
X109092309Y-72771000D01*
X109325698Y-72674327D01*
X109504327Y-72495699D01*
X109601000Y-72262310D01*
X109601000Y-71405750D01*
X109442250Y-71247000D01*
X108077000Y-71247000D01*
X107823000Y-71247000D01*
X106457750Y-71247000D01*
X106299000Y-71405750D01*
X102885000Y-71405750D01*
X102885000Y-71294615D01*
X102658922Y-70748815D01*
X102241185Y-70331078D01*
X102214440Y-70320000D01*
X102241185Y-70308922D01*
X102658922Y-69891185D01*
X102885000Y-69345385D01*
X102885000Y-68754615D01*
X102812673Y-68580000D01*
X106266655Y-68580000D01*
X106394792Y-69224188D01*
X106612416Y-69549886D01*
X106574302Y-69565673D01*
X106395673Y-69744301D01*
X106299000Y-69977690D01*
X106299000Y-70834250D01*
X106457750Y-70993000D01*
X107823000Y-70993000D01*
X107823000Y-70973000D01*
X108077000Y-70973000D01*
X108077000Y-70993000D01*
X109442250Y-70993000D01*
X109601000Y-70834250D01*
X109601000Y-69977690D01*
X109504327Y-69744301D01*
X109325698Y-69565673D01*
X109287584Y-69549886D01*
X109505208Y-69224188D01*
X109633345Y-68580000D01*
X109505208Y-67935812D01*
X109140305Y-67389695D01*
X108594188Y-67024792D01*
X108112609Y-66929000D01*
X107787391Y-66929000D01*
X107305812Y-67024792D01*
X106759695Y-67389695D01*
X106394792Y-67935812D01*
X106266655Y-68580000D01*
X102812673Y-68580000D01*
X102658922Y-68208815D01*
X102241185Y-67791078D01*
X102214440Y-67780000D01*
X102241185Y-67768922D01*
X102658922Y-67351185D01*
X102885000Y-66805385D01*
X102885000Y-66214615D01*
X102658922Y-65668815D01*
X102241185Y-65251078D01*
X102214440Y-65240000D01*
X102241185Y-65228922D01*
X102658922Y-64811185D01*
X102885000Y-64265385D01*
X102885000Y-63674615D01*
X102658922Y-63128815D01*
X102241185Y-62711078D01*
X102214440Y-62700000D01*
X102241185Y-62688922D01*
X102658922Y-62271185D01*
X102885000Y-61725385D01*
X102885000Y-61134615D01*
X102658922Y-60588815D01*
X102241185Y-60171078D01*
X102214440Y-60160000D01*
X102241185Y-60148922D01*
X102658922Y-59731185D01*
X102885000Y-59185385D01*
X102885000Y-58594615D01*
X102658922Y-58048815D01*
X102487107Y-57877000D01*
X105832943Y-57877000D01*
X105597646Y-58112297D01*
X105265000Y-58915376D01*
X105265000Y-59784624D01*
X105597646Y-60587703D01*
X106212297Y-61202354D01*
X107015376Y-61535000D01*
X107884624Y-61535000D01*
X108687703Y-61202354D01*
X109302354Y-60587703D01*
X109635000Y-59784624D01*
X109635000Y-58915376D01*
X109302354Y-58112297D01*
X109067057Y-57877000D01*
X109181193Y-57877000D01*
X109279823Y-57981116D01*
X109545658Y-58438784D01*
X109701892Y-58954629D01*
X109740000Y-59381618D01*
X109740001Y-103308744D01*
X109673900Y-103875708D01*
X109493315Y-104373212D01*
X109203118Y-104815834D01*
X108818884Y-105179823D01*
X108361216Y-105445658D01*
X107845371Y-105601892D01*
X107418382Y-105640000D01*
X80777000Y-105640000D01*
X80777000Y-99750000D01*
X81852560Y-99750000D01*
X81852560Y-103350000D01*
X81901843Y-103597765D01*
X82042191Y-103807809D01*
X82252235Y-103948157D01*
X82500000Y-103997440D01*
X84300000Y-103997440D01*
X84547765Y-103948157D01*
X84757809Y-103807809D01*
X84898157Y-103597765D01*
X84947440Y-103350000D01*
X84947440Y-100498819D01*
X85365000Y-100498819D01*
X85365001Y-102601182D01*
X85454063Y-103048927D01*
X85793328Y-103556673D01*
X86301074Y-103895938D01*
X86900000Y-104015072D01*
X87498927Y-103895938D01*
X88006673Y-103556673D01*
X88345938Y-103048927D01*
X88435000Y-102601182D01*
X88435000Y-101677000D01*
X88865000Y-101677000D01*
X88865000Y-102577000D01*
X89030446Y-103154752D01*
X89404394Y-103625212D01*
X89929914Y-103916756D01*
X90035260Y-103941036D01*
X90273000Y-103820378D01*
X90273000Y-101677000D01*
X90527000Y-101677000D01*
X90527000Y-103820378D01*
X90764740Y-103941036D01*
X90870086Y-103916756D01*
X91395606Y-103625212D01*
X91769554Y-103154752D01*
X91935000Y-102577000D01*
X91935000Y-101677000D01*
X90527000Y-101677000D01*
X90273000Y-101677000D01*
X88865000Y-101677000D01*
X88435000Y-101677000D01*
X88435000Y-100523000D01*
X88865000Y-100523000D01*
X88865000Y-101423000D01*
X90273000Y-101423000D01*
X90273000Y-99279622D01*
X90527000Y-99279622D01*
X90527000Y-101423000D01*
X91935000Y-101423000D01*
X91935000Y-100523000D01*
X91928076Y-100498819D01*
X92365000Y-100498819D01*
X92365001Y-102601182D01*
X92454063Y-103048927D01*
X92793328Y-103556673D01*
X93301074Y-103895938D01*
X93900000Y-104015072D01*
X94498927Y-103895938D01*
X95006673Y-103556673D01*
X95345938Y-103048927D01*
X95435000Y-102601182D01*
X95435000Y-101677000D01*
X95865000Y-101677000D01*
X95865000Y-102577000D01*
X96030446Y-103154752D01*
X96404394Y-103625212D01*
X96929914Y-103916756D01*
X97035260Y-103941036D01*
X97273000Y-103820378D01*
X97273000Y-101677000D01*
X97527000Y-101677000D01*
X97527000Y-103820378D01*
X97764740Y-103941036D01*
X97870086Y-103916756D01*
X98395606Y-103625212D01*
X98769554Y-103154752D01*
X98935000Y-102577000D01*
X98935000Y-101677000D01*
X97527000Y-101677000D01*
X97273000Y-101677000D01*
X95865000Y-101677000D01*
X95435000Y-101677000D01*
X95435000Y-100523000D01*
X95865000Y-100523000D01*
X95865000Y-101423000D01*
X97273000Y-101423000D01*
X97273000Y-99279622D01*
X97527000Y-99279622D01*
X97527000Y-101423000D01*
X98935000Y-101423000D01*
X98935000Y-100523000D01*
X98928076Y-100498819D01*
X99365000Y-100498819D01*
X99365001Y-102601182D01*
X99454063Y-103048927D01*
X99793328Y-103556673D01*
X100301074Y-103895938D01*
X100900000Y-104015072D01*
X101498927Y-103895938D01*
X102006673Y-103556673D01*
X102345938Y-103048927D01*
X102435000Y-102601182D01*
X102435000Y-101677000D01*
X102865000Y-101677000D01*
X102865000Y-102577000D01*
X103030446Y-103154752D01*
X103404394Y-103625212D01*
X103929914Y-103916756D01*
X104035260Y-103941036D01*
X104273000Y-103820378D01*
X104273000Y-101677000D01*
X104527000Y-101677000D01*
X104527000Y-103820378D01*
X104764740Y-103941036D01*
X104870086Y-103916756D01*
X105395606Y-103625212D01*
X105769554Y-103154752D01*
X105935000Y-102577000D01*
X105935000Y-101677000D01*
X104527000Y-101677000D01*
X104273000Y-101677000D01*
X102865000Y-101677000D01*
X102435000Y-101677000D01*
X102435000Y-100523000D01*
X102865000Y-100523000D01*
X102865000Y-101423000D01*
X104273000Y-101423000D01*
X104273000Y-99279622D01*
X104527000Y-99279622D01*
X104527000Y-101423000D01*
X105935000Y-101423000D01*
X105935000Y-100523000D01*
X105928076Y-100498819D01*
X106365000Y-100498819D01*
X106365001Y-102601182D01*
X106454063Y-103048927D01*
X106793328Y-103556673D01*
X107301074Y-103895938D01*
X107900000Y-104015072D01*
X108498927Y-103895938D01*
X109006673Y-103556673D01*
X109345938Y-103048927D01*
X109435000Y-102601182D01*
X109435000Y-100498818D01*
X109345938Y-100051073D01*
X109006673Y-99543327D01*
X108498926Y-99204062D01*
X107900000Y-99084928D01*
X107301073Y-99204062D01*
X106793327Y-99543327D01*
X106454062Y-100051074D01*
X106365000Y-100498819D01*
X105928076Y-100498819D01*
X105769554Y-99945248D01*
X105395606Y-99474788D01*
X104870086Y-99183244D01*
X104764740Y-99158964D01*
X104527000Y-99279622D01*
X104273000Y-99279622D01*
X104035260Y-99158964D01*
X103929914Y-99183244D01*
X103404394Y-99474788D01*
X103030446Y-99945248D01*
X102865000Y-100523000D01*
X102435000Y-100523000D01*
X102435000Y-100498818D01*
X102345938Y-100051073D01*
X102006673Y-99543327D01*
X101498926Y-99204062D01*
X100900000Y-99084928D01*
X100301073Y-99204062D01*
X99793327Y-99543327D01*
X99454062Y-100051074D01*
X99365000Y-100498819D01*
X98928076Y-100498819D01*
X98769554Y-99945248D01*
X98395606Y-99474788D01*
X97870086Y-99183244D01*
X97764740Y-99158964D01*
X97527000Y-99279622D01*
X97273000Y-99279622D01*
X97035260Y-99158964D01*
X96929914Y-99183244D01*
X96404394Y-99474788D01*
X96030446Y-99945248D01*
X95865000Y-100523000D01*
X95435000Y-100523000D01*
X95435000Y-100498818D01*
X95345938Y-100051073D01*
X95006673Y-99543327D01*
X94498926Y-99204062D01*
X93900000Y-99084928D01*
X93301073Y-99204062D01*
X92793327Y-99543327D01*
X92454062Y-100051074D01*
X92365000Y-100498819D01*
X91928076Y-100498819D01*
X91769554Y-99945248D01*
X91395606Y-99474788D01*
X90870086Y-99183244D01*
X90764740Y-99158964D01*
X90527000Y-99279622D01*
X90273000Y-99279622D01*
X90035260Y-99158964D01*
X89929914Y-99183244D01*
X89404394Y-99474788D01*
X89030446Y-99945248D01*
X88865000Y-100523000D01*
X88435000Y-100523000D01*
X88435000Y-100498818D01*
X88345938Y-100051073D01*
X88006673Y-99543327D01*
X87498926Y-99204062D01*
X86900000Y-99084928D01*
X86301073Y-99204062D01*
X85793327Y-99543327D01*
X85454062Y-100051074D01*
X85365000Y-100498819D01*
X84947440Y-100498819D01*
X84947440Y-99750000D01*
X84898157Y-99502235D01*
X84757809Y-99292191D01*
X84547765Y-99151843D01*
X84300000Y-99102560D01*
X82500000Y-99102560D01*
X82252235Y-99151843D01*
X82042191Y-99292191D01*
X81901843Y-99502235D01*
X81852560Y-99750000D01*
X80777000Y-99750000D01*
X80777000Y-99000000D01*
X80767333Y-98951399D01*
X80739803Y-98910197D01*
X80698601Y-98882667D01*
X80650000Y-98873000D01*
X77190600Y-98873000D01*
X77190600Y-94965376D01*
X105265000Y-94965376D01*
X105265000Y-95834624D01*
X105597646Y-96637703D01*
X106212297Y-97252354D01*
X107015376Y-97585000D01*
X107884624Y-97585000D01*
X108687703Y-97252354D01*
X109302354Y-96637703D01*
X109635000Y-95834624D01*
X109635000Y-94965376D01*
X109302354Y-94162297D01*
X108687703Y-93547646D01*
X107884624Y-93215000D01*
X107015376Y-93215000D01*
X106212297Y-93547646D01*
X105597646Y-94162297D01*
X105265000Y-94965376D01*
X77190600Y-94965376D01*
X77190600Y-89185750D01*
X103759000Y-89185750D01*
X103759000Y-89889910D01*
X103855673Y-90123299D01*
X104034302Y-90301927D01*
X104267691Y-90398600D01*
X105124250Y-90398600D01*
X105283000Y-90239850D01*
X105283000Y-89027000D01*
X105537000Y-89027000D01*
X105537000Y-90239850D01*
X105695750Y-90398600D01*
X106552309Y-90398600D01*
X106680000Y-90345709D01*
X106807691Y-90398600D01*
X107664250Y-90398600D01*
X107823000Y-90239850D01*
X107823000Y-89027000D01*
X108077000Y-89027000D01*
X108077000Y-90239850D01*
X108235750Y-90398600D01*
X109092309Y-90398600D01*
X109325698Y-90301927D01*
X109504327Y-90123299D01*
X109601000Y-89889910D01*
X109601000Y-89185750D01*
X109442250Y-89027000D01*
X108077000Y-89027000D01*
X107823000Y-89027000D01*
X105537000Y-89027000D01*
X105283000Y-89027000D01*
X103917750Y-89027000D01*
X103759000Y-89185750D01*
X77190600Y-89185750D01*
X77190600Y-85199245D01*
X77188165Y-85174496D01*
X77112213Y-84792218D01*
X77093291Y-84746479D01*
X76926221Y-84496084D01*
X76917333Y-84451399D01*
X76889803Y-84410197D01*
X76848601Y-84382667D01*
X76829501Y-84378868D01*
X76518173Y-84170351D01*
X76472468Y-84151349D01*
X76090325Y-84074725D01*
X76065580Y-84072246D01*
X61260957Y-84046240D01*
X61160000Y-84025997D01*
X61160000Y-81096504D01*
X61553910Y-81490414D01*
X62265105Y-81785000D01*
X63034895Y-81785000D01*
X63746090Y-81490414D01*
X64290414Y-80946090D01*
X64585000Y-80234895D01*
X64585000Y-79465105D01*
X68315000Y-79465105D01*
X68315000Y-80234895D01*
X68609586Y-80946090D01*
X69153910Y-81490414D01*
X69865105Y-81785000D01*
X70634895Y-81785000D01*
X71346090Y-81490414D01*
X71890414Y-80946090D01*
X72152622Y-80313062D01*
X77560200Y-80313062D01*
X77560200Y-80686938D01*
X77703276Y-81032354D01*
X77967646Y-81296724D01*
X78313062Y-81439800D01*
X78686938Y-81439800D01*
X79032354Y-81296724D01*
X79296724Y-81032354D01*
X79347525Y-80909710D01*
X79495328Y-80761907D01*
X80444173Y-79813062D01*
X82560200Y-79813062D01*
X82560200Y-80186938D01*
X82703276Y-80532354D01*
X82967646Y-80796724D01*
X83313062Y-80939800D01*
X83362170Y-80939800D01*
X85158117Y-82735748D01*
X85200629Y-82799371D01*
X85452683Y-82967788D01*
X85674952Y-83012000D01*
X85674953Y-83012000D01*
X85750000Y-83026928D01*
X85825047Y-83012000D01*
X100341292Y-83012000D01*
X100453276Y-83282354D01*
X100717646Y-83546724D01*
X101063062Y-83689800D01*
X101436938Y-83689800D01*
X101782354Y-83546724D01*
X102046724Y-83282354D01*
X102189800Y-82936938D01*
X102189800Y-82563062D01*
X102046724Y-82217646D01*
X101954078Y-82125000D01*
X102046724Y-82032354D01*
X102189800Y-81686938D01*
X102189800Y-81313062D01*
X102046724Y-80967646D01*
X101782354Y-80703276D01*
X101436938Y-80560200D01*
X101063062Y-80560200D01*
X100717646Y-80703276D01*
X100682922Y-80738000D01*
X86815631Y-80738000D01*
X85939800Y-79862170D01*
X85939800Y-79813062D01*
X85796724Y-79467646D01*
X85532354Y-79203276D01*
X85186938Y-79060200D01*
X84813062Y-79060200D01*
X84467646Y-79203276D01*
X84250000Y-79420922D01*
X84032354Y-79203276D01*
X83686938Y-79060200D01*
X83313062Y-79060200D01*
X82967646Y-79203276D01*
X82703276Y-79467646D01*
X82560200Y-79813062D01*
X80444173Y-79813062D01*
X81517235Y-78740000D01*
X103729641Y-78740000D01*
X103845950Y-79324725D01*
X104177170Y-79820430D01*
X104460881Y-80010000D01*
X104177170Y-80199570D01*
X103845950Y-80695275D01*
X103729641Y-81280000D01*
X103845950Y-81864725D01*
X104177170Y-82360430D01*
X104460881Y-82550000D01*
X104177170Y-82739570D01*
X103845950Y-83235275D01*
X103729641Y-83820000D01*
X103845950Y-84404725D01*
X104177170Y-84900430D01*
X104460881Y-85090000D01*
X104177170Y-85279570D01*
X103845950Y-85775275D01*
X103729641Y-86360000D01*
X103845950Y-86944725D01*
X104176367Y-87439228D01*
X104034302Y-87498073D01*
X103855673Y-87676701D01*
X103759000Y-87910090D01*
X103759000Y-88614250D01*
X103917750Y-88773000D01*
X105283000Y-88773000D01*
X105283000Y-88753000D01*
X105537000Y-88753000D01*
X105537000Y-88773000D01*
X107823000Y-88773000D01*
X107823000Y-88753000D01*
X108077000Y-88753000D01*
X108077000Y-88773000D01*
X109442250Y-88773000D01*
X109601000Y-88614250D01*
X109601000Y-87910090D01*
X109504327Y-87676701D01*
X109325698Y-87498073D01*
X109183633Y-87439228D01*
X109514050Y-86944725D01*
X109630359Y-86360000D01*
X109514050Y-85775275D01*
X109182830Y-85279570D01*
X108899119Y-85090000D01*
X109182830Y-84900430D01*
X109514050Y-84404725D01*
X109630359Y-83820000D01*
X109514050Y-83235275D01*
X109182830Y-82739570D01*
X108899119Y-82550000D01*
X109182830Y-82360430D01*
X109514050Y-81864725D01*
X109630359Y-81280000D01*
X109514050Y-80695275D01*
X109182830Y-80199570D01*
X108687125Y-79868350D01*
X108249998Y-79781400D01*
X107650002Y-79781400D01*
X107212875Y-79868350D01*
X106717170Y-80199570D01*
X106680000Y-80255199D01*
X106642830Y-80199570D01*
X106359119Y-80010000D01*
X106642830Y-79820430D01*
X106974050Y-79324725D01*
X107090359Y-78740000D01*
X106974050Y-78155275D01*
X106642830Y-77659570D01*
X106147125Y-77328350D01*
X105709998Y-77241400D01*
X105110002Y-77241400D01*
X104672875Y-77328350D01*
X104177170Y-77659570D01*
X103845950Y-78155275D01*
X103729641Y-78740000D01*
X81517235Y-78740000D01*
X82698236Y-77559000D01*
X100188893Y-77559000D01*
X100558815Y-77928922D01*
X101104615Y-78155000D01*
X101695385Y-78155000D01*
X102241185Y-77928922D01*
X102658922Y-77511185D01*
X102885000Y-76965385D01*
X102885000Y-76374615D01*
X102658922Y-75828815D01*
X102241185Y-75411078D01*
X102194753Y-75391845D01*
X102264353Y-75173958D01*
X101400000Y-74309605D01*
X100535647Y-75173958D01*
X100605247Y-75391845D01*
X100558815Y-75411078D01*
X100188893Y-75781000D01*
X82417554Y-75781000D01*
X82329999Y-75763584D01*
X82242444Y-75781000D01*
X81983130Y-75832581D01*
X81689067Y-76029067D01*
X81639471Y-76103293D01*
X78238093Y-79504672D01*
X78090290Y-79652475D01*
X77967646Y-79703276D01*
X77703276Y-79967646D01*
X77560200Y-80313062D01*
X72152622Y-80313062D01*
X72185000Y-80234895D01*
X72185000Y-79465105D01*
X71890414Y-78753910D01*
X71346090Y-78209586D01*
X70634895Y-77915000D01*
X69865105Y-77915000D01*
X69153910Y-78209586D01*
X68609586Y-78753910D01*
X68315000Y-79465105D01*
X64585000Y-79465105D01*
X64290414Y-78753910D01*
X63746090Y-78209586D01*
X63034895Y-77915000D01*
X62265105Y-77915000D01*
X61553910Y-78209586D01*
X61160000Y-78603496D01*
X61160000Y-69674778D01*
X62265320Y-69674778D01*
X62265320Y-70325222D01*
X62514234Y-70926153D01*
X62974167Y-71386086D01*
X63575098Y-71635000D01*
X64225542Y-71635000D01*
X64826473Y-71386086D01*
X65286406Y-70926153D01*
X65535320Y-70325222D01*
X65535320Y-69674778D01*
X69865000Y-69674778D01*
X69865000Y-70325222D01*
X70113914Y-70926153D01*
X70573847Y-71386086D01*
X71174778Y-71635000D01*
X71825222Y-71635000D01*
X72426153Y-71386086D01*
X72886086Y-70926153D01*
X73135000Y-70325222D01*
X73135000Y-69674778D01*
X72886086Y-69073847D01*
X72426153Y-68613914D01*
X71825222Y-68365000D01*
X71174778Y-68365000D01*
X70573847Y-68613914D01*
X70113914Y-69073847D01*
X69865000Y-69674778D01*
X65535320Y-69674778D01*
X65286406Y-69073847D01*
X64826473Y-68613914D01*
X64225542Y-68365000D01*
X63575098Y-68365000D01*
X62974167Y-68613914D01*
X62514234Y-69073847D01*
X62265320Y-69674778D01*
X61160000Y-69674778D01*
X61160000Y-59391247D01*
X61226100Y-58824292D01*
X61406685Y-58326788D01*
X61696881Y-57884165D01*
X61704445Y-57877000D01*
X61832943Y-57877000D01*
X61597646Y-58112297D01*
X61597646Y-58112297D01*
G37*
X61597646Y-58112297D02*
X61265000Y-58915376D01*
X61265000Y-59784624D01*
X61597646Y-60587703D01*
X62212297Y-61202354D01*
X63015376Y-61535000D01*
X63884624Y-61535000D01*
X64687703Y-61202354D01*
X65302354Y-60587703D01*
X65635000Y-59784624D01*
X65635000Y-58915376D01*
X65302354Y-58112297D01*
X65067057Y-57877000D01*
X77452893Y-57877000D01*
X77281078Y-58048815D01*
X77055000Y-58594615D01*
X77055000Y-59185385D01*
X77281078Y-59731185D01*
X77698815Y-60148922D01*
X77725560Y-60160000D01*
X77698815Y-60171078D01*
X77281078Y-60588815D01*
X77055000Y-61134615D01*
X77055000Y-61725385D01*
X77281078Y-62271185D01*
X77698815Y-62688922D01*
X77725560Y-62700000D01*
X77698815Y-62711078D01*
X77281078Y-63128815D01*
X77055000Y-63674615D01*
X77055000Y-64265385D01*
X77281078Y-64811185D01*
X77698815Y-65228922D01*
X77725560Y-65240000D01*
X77698815Y-65251078D01*
X77281078Y-65668815D01*
X77055000Y-66214615D01*
X77055000Y-66805385D01*
X77281078Y-67351185D01*
X77698815Y-67768922D01*
X77725560Y-67780000D01*
X77698815Y-67791078D01*
X77281078Y-68208815D01*
X77055000Y-68754615D01*
X77055000Y-69345385D01*
X77281078Y-69891185D01*
X77698815Y-70308922D01*
X77725560Y-70320000D01*
X77698815Y-70331078D01*
X77281078Y-70748815D01*
X77055000Y-71294615D01*
X77055000Y-71885385D01*
X77281078Y-72431185D01*
X77698815Y-72848922D01*
X77725560Y-72860000D01*
X77698815Y-72871078D01*
X77281078Y-73288815D01*
X77055000Y-73834615D01*
X77055000Y-74425385D01*
X77281078Y-74971185D01*
X77698815Y-75388922D01*
X77725560Y-75400000D01*
X77698815Y-75411078D01*
X77281078Y-75828815D01*
X77055000Y-76374615D01*
X77055000Y-76965385D01*
X77281078Y-77511185D01*
X77698815Y-77928922D01*
X78244615Y-78155000D01*
X78835385Y-78155000D01*
X79381185Y-77928922D01*
X79798922Y-77511185D01*
X80025000Y-76965385D01*
X80025000Y-76374615D01*
X79798922Y-75828815D01*
X79381185Y-75411078D01*
X79354440Y-75400000D01*
X79381185Y-75388922D01*
X79798922Y-74971185D01*
X80025000Y-74425385D01*
X80025000Y-73901279D01*
X99903282Y-73901279D01*
X99929685Y-74491458D01*
X100104741Y-74914080D01*
X100356042Y-74994353D01*
X101220395Y-74130000D01*
X101579605Y-74130000D01*
X102443958Y-74994353D01*
X102695259Y-74914080D01*
X102896718Y-74358721D01*
X102870315Y-73768542D01*
X102695259Y-73345920D01*
X102443958Y-73265647D01*
X101579605Y-74130000D01*
X101220395Y-74130000D01*
X100356042Y-73265647D01*
X100104741Y-73345920D01*
X99903282Y-73901279D01*
X80025000Y-73901279D01*
X80025000Y-73834615D01*
X79798922Y-73288815D01*
X79381185Y-72871078D01*
X79354440Y-72860000D01*
X79381185Y-72848922D01*
X79798922Y-72431185D01*
X79847850Y-72313062D01*
X81560200Y-72313062D01*
X81560200Y-72686938D01*
X81703276Y-73032354D01*
X81967646Y-73296724D01*
X82313062Y-73439800D01*
X82686938Y-73439800D01*
X83032354Y-73296724D01*
X83296724Y-73032354D01*
X83408708Y-72762000D01*
X90924957Y-72762000D01*
X91000000Y-72776927D01*
X91075043Y-72762000D01*
X91075048Y-72762000D01*
X91297317Y-72717788D01*
X91339204Y-72689800D01*
X91436938Y-72689800D01*
X91782354Y-72546724D01*
X92046724Y-72282354D01*
X92189800Y-71936938D01*
X92189800Y-71563062D01*
X92046724Y-71217646D01*
X91782354Y-70953276D01*
X91436938Y-70810200D01*
X91063062Y-70810200D01*
X90717646Y-70953276D01*
X90453276Y-71217646D01*
X90444845Y-71238000D01*
X83075047Y-71238000D01*
X83000000Y-71223072D01*
X82924953Y-71238000D01*
X82924952Y-71238000D01*
X82702683Y-71282212D01*
X82450629Y-71450629D01*
X82408118Y-71514251D01*
X82362169Y-71560200D01*
X82313062Y-71560200D01*
X81967646Y-71703276D01*
X81703276Y-71967646D01*
X81560200Y-72313062D01*
X79847850Y-72313062D01*
X80025000Y-71885385D01*
X80025000Y-71294615D01*
X79798922Y-70748815D01*
X79381185Y-70331078D01*
X79354440Y-70320000D01*
X79381185Y-70308922D01*
X79798922Y-69891185D01*
X80025000Y-69345385D01*
X80025000Y-68754615D01*
X79798922Y-68208815D01*
X79381185Y-67791078D01*
X79354440Y-67780000D01*
X79381185Y-67768922D01*
X79798922Y-67351185D01*
X80025000Y-66805385D01*
X80025000Y-66214615D01*
X79798922Y-65668815D01*
X79381185Y-65251078D01*
X79354440Y-65240000D01*
X79381185Y-65228922D01*
X79798922Y-64811185D01*
X80025000Y-64265385D01*
X80025000Y-63674615D01*
X79798922Y-63128815D01*
X79381185Y-62711078D01*
X79354440Y-62700000D01*
X79381185Y-62688922D01*
X79798922Y-62271185D01*
X80025000Y-61725385D01*
X80025000Y-61134615D01*
X79798922Y-60588815D01*
X79381185Y-60171078D01*
X79354440Y-60160000D01*
X79381185Y-60148922D01*
X79798922Y-59731185D01*
X80025000Y-59185385D01*
X80025000Y-58594615D01*
X79798922Y-58048815D01*
X79627107Y-57877000D01*
X100312893Y-57877000D01*
X100141078Y-58048815D01*
X99915000Y-58594615D01*
X99915000Y-59185385D01*
X100141078Y-59731185D01*
X100558815Y-60148922D01*
X100585560Y-60160000D01*
X100558815Y-60171078D01*
X100141078Y-60588815D01*
X99915000Y-61134615D01*
X99915000Y-61725385D01*
X100141078Y-62271185D01*
X100558815Y-62688922D01*
X100585560Y-62700000D01*
X100558815Y-62711078D01*
X100141078Y-63128815D01*
X99915000Y-63674615D01*
X99915000Y-64265385D01*
X100141078Y-64811185D01*
X100558815Y-65228922D01*
X100585560Y-65240000D01*
X100558815Y-65251078D01*
X100141078Y-65668815D01*
X99915000Y-66214615D01*
X99915000Y-66805385D01*
X100141078Y-67351185D01*
X100558815Y-67768922D01*
X100585560Y-67780000D01*
X100558815Y-67791078D01*
X100141078Y-68208815D01*
X99915000Y-68754615D01*
X99915000Y-69345385D01*
X100141078Y-69891185D01*
X100558815Y-70308922D01*
X100585560Y-70320000D01*
X100558815Y-70331078D01*
X100141078Y-70748815D01*
X99915000Y-71294615D01*
X99915000Y-71885385D01*
X100141078Y-72431185D01*
X100558815Y-72848922D01*
X100605247Y-72868155D01*
X100535647Y-73086042D01*
X101400000Y-73950395D01*
X102264353Y-73086042D01*
X102194753Y-72868155D01*
X102241185Y-72848922D01*
X102658922Y-72431185D01*
X102885000Y-71885385D01*
X102885000Y-71405750D01*
X106299000Y-71405750D01*
X106299000Y-72262310D01*
X106395673Y-72495699D01*
X106574302Y-72674327D01*
X106807691Y-72771000D01*
X107664250Y-72771000D01*
X107823000Y-72612250D01*
X107823000Y-71247000D01*
X108077000Y-71247000D01*
X108077000Y-72612250D01*
X108235750Y-72771000D01*
X109092309Y-72771000D01*
X109325698Y-72674327D01*
X109504327Y-72495699D01*
X109601000Y-72262310D01*
X109601000Y-71405750D01*
X109442250Y-71247000D01*
X108077000Y-71247000D01*
X107823000Y-71247000D01*
X106457750Y-71247000D01*
X106299000Y-71405750D01*
X102885000Y-71405750D01*
X102885000Y-71294615D01*
X102658922Y-70748815D01*
X102241185Y-70331078D01*
X102214440Y-70320000D01*
X102241185Y-70308922D01*
X102658922Y-69891185D01*
X102885000Y-69345385D01*
X102885000Y-68754615D01*
X102812673Y-68580000D01*
X106266655Y-68580000D01*
X106394792Y-69224188D01*
X106612416Y-69549886D01*
X106574302Y-69565673D01*
X106395673Y-69744301D01*
X106299000Y-69977690D01*
X106299000Y-70834250D01*
X106457750Y-70993000D01*
X107823000Y-70993000D01*
X107823000Y-70973000D01*
X108077000Y-70973000D01*
X108077000Y-70993000D01*
X109442250Y-70993000D01*
X109601000Y-70834250D01*
X109601000Y-69977690D01*
X109504327Y-69744301D01*
X109325698Y-69565673D01*
X109287584Y-69549886D01*
X109505208Y-69224188D01*
X109633345Y-68580000D01*
X109505208Y-67935812D01*
X109140305Y-67389695D01*
X108594188Y-67024792D01*
X108112609Y-66929000D01*
X107787391Y-66929000D01*
X107305812Y-67024792D01*
X106759695Y-67389695D01*
X106394792Y-67935812D01*
X106266655Y-68580000D01*
X102812673Y-68580000D01*
X102658922Y-68208815D01*
X102241185Y-67791078D01*
X102214440Y-67780000D01*
X102241185Y-67768922D01*
X102658922Y-67351185D01*
X102885000Y-66805385D01*
X102885000Y-66214615D01*
X102658922Y-65668815D01*
X102241185Y-65251078D01*
X102214440Y-65240000D01*
X102241185Y-65228922D01*
X102658922Y-64811185D01*
X102885000Y-64265385D01*
X102885000Y-63674615D01*
X102658922Y-63128815D01*
X102241185Y-62711078D01*
X102214440Y-62700000D01*
X102241185Y-62688922D01*
X102658922Y-62271185D01*
X102885000Y-61725385D01*
X102885000Y-61134615D01*
X102658922Y-60588815D01*
X102241185Y-60171078D01*
X102214440Y-60160000D01*
X102241185Y-60148922D01*
X102658922Y-59731185D01*
X102885000Y-59185385D01*
X102885000Y-58594615D01*
X102658922Y-58048815D01*
X102487107Y-57877000D01*
X105832943Y-57877000D01*
X105597646Y-58112297D01*
X105265000Y-58915376D01*
X105265000Y-59784624D01*
X105597646Y-60587703D01*
X106212297Y-61202354D01*
X107015376Y-61535000D01*
X107884624Y-61535000D01*
X108687703Y-61202354D01*
X109302354Y-60587703D01*
X109635000Y-59784624D01*
X109635000Y-58915376D01*
X109302354Y-58112297D01*
X109067057Y-57877000D01*
X109181193Y-57877000D01*
X109279823Y-57981116D01*
X109545658Y-58438784D01*
X109701892Y-58954629D01*
X109740000Y-59381618D01*
X109740001Y-103308744D01*
X109673900Y-103875708D01*
X109493315Y-104373212D01*
X109203118Y-104815834D01*
X108818884Y-105179823D01*
X108361216Y-105445658D01*
X107845371Y-105601892D01*
X107418382Y-105640000D01*
X80777000Y-105640000D01*
X80777000Y-99750000D01*
X81852560Y-99750000D01*
X81852560Y-103350000D01*
X81901843Y-103597765D01*
X82042191Y-103807809D01*
X82252235Y-103948157D01*
X82500000Y-103997440D01*
X84300000Y-103997440D01*
X84547765Y-103948157D01*
X84757809Y-103807809D01*
X84898157Y-103597765D01*
X84947440Y-103350000D01*
X84947440Y-100498819D01*
X85365000Y-100498819D01*
X85365001Y-102601182D01*
X85454063Y-103048927D01*
X85793328Y-103556673D01*
X86301074Y-103895938D01*
X86900000Y-104015072D01*
X87498927Y-103895938D01*
X88006673Y-103556673D01*
X88345938Y-103048927D01*
X88435000Y-102601182D01*
X88435000Y-101677000D01*
X88865000Y-101677000D01*
X88865000Y-102577000D01*
X89030446Y-103154752D01*
X89404394Y-103625212D01*
X89929914Y-103916756D01*
X90035260Y-103941036D01*
X90273000Y-103820378D01*
X90273000Y-101677000D01*
X90527000Y-101677000D01*
X90527000Y-103820378D01*
X90764740Y-103941036D01*
X90870086Y-103916756D01*
X91395606Y-103625212D01*
X91769554Y-103154752D01*
X91935000Y-102577000D01*
X91935000Y-101677000D01*
X90527000Y-101677000D01*
X90273000Y-101677000D01*
X88865000Y-101677000D01*
X88435000Y-101677000D01*
X88435000Y-100523000D01*
X88865000Y-100523000D01*
X88865000Y-101423000D01*
X90273000Y-101423000D01*
X90273000Y-99279622D01*
X90527000Y-99279622D01*
X90527000Y-101423000D01*
X91935000Y-101423000D01*
X91935000Y-100523000D01*
X91928076Y-100498819D01*
X92365000Y-100498819D01*
X92365001Y-102601182D01*
X92454063Y-103048927D01*
X92793328Y-103556673D01*
X93301074Y-103895938D01*
X93900000Y-104015072D01*
X94498927Y-103895938D01*
X95006673Y-103556673D01*
X95345938Y-103048927D01*
X95435000Y-102601182D01*
X95435000Y-101677000D01*
X95865000Y-101677000D01*
X95865000Y-102577000D01*
X96030446Y-103154752D01*
X96404394Y-103625212D01*
X96929914Y-103916756D01*
X97035260Y-103941036D01*
X97273000Y-103820378D01*
X97273000Y-101677000D01*
X97527000Y-101677000D01*
X97527000Y-103820378D01*
X97764740Y-103941036D01*
X97870086Y-103916756D01*
X98395606Y-103625212D01*
X98769554Y-103154752D01*
X98935000Y-102577000D01*
X98935000Y-101677000D01*
X97527000Y-101677000D01*
X97273000Y-101677000D01*
X95865000Y-101677000D01*
X95435000Y-101677000D01*
X95435000Y-100523000D01*
X95865000Y-100523000D01*
X95865000Y-101423000D01*
X97273000Y-101423000D01*
X97273000Y-99279622D01*
X97527000Y-99279622D01*
X97527000Y-101423000D01*
X98935000Y-101423000D01*
X98935000Y-100523000D01*
X98928076Y-100498819D01*
X99365000Y-100498819D01*
X99365001Y-102601182D01*
X99454063Y-103048927D01*
X99793328Y-103556673D01*
X100301074Y-103895938D01*
X100900000Y-104015072D01*
X101498927Y-103895938D01*
X102006673Y-103556673D01*
X102345938Y-103048927D01*
X102435000Y-102601182D01*
X102435000Y-101677000D01*
X102865000Y-101677000D01*
X102865000Y-102577000D01*
X103030446Y-103154752D01*
X103404394Y-103625212D01*
X103929914Y-103916756D01*
X104035260Y-103941036D01*
X104273000Y-103820378D01*
X104273000Y-101677000D01*
X104527000Y-101677000D01*
X104527000Y-103820378D01*
X104764740Y-103941036D01*
X104870086Y-103916756D01*
X105395606Y-103625212D01*
X105769554Y-103154752D01*
X105935000Y-102577000D01*
X105935000Y-101677000D01*
X104527000Y-101677000D01*
X104273000Y-101677000D01*
X102865000Y-101677000D01*
X102435000Y-101677000D01*
X102435000Y-100523000D01*
X102865000Y-100523000D01*
X102865000Y-101423000D01*
X104273000Y-101423000D01*
X104273000Y-99279622D01*
X104527000Y-99279622D01*
X104527000Y-101423000D01*
X105935000Y-101423000D01*
X105935000Y-100523000D01*
X105928076Y-100498819D01*
X106365000Y-100498819D01*
X106365001Y-102601182D01*
X106454063Y-103048927D01*
X106793328Y-103556673D01*
X107301074Y-103895938D01*
X107900000Y-104015072D01*
X108498927Y-103895938D01*
X109006673Y-103556673D01*
X109345938Y-103048927D01*
X109435000Y-102601182D01*
X109435000Y-100498818D01*
X109345938Y-100051073D01*
X109006673Y-99543327D01*
X108498926Y-99204062D01*
X107900000Y-99084928D01*
X107301073Y-99204062D01*
X106793327Y-99543327D01*
X106454062Y-100051074D01*
X106365000Y-100498819D01*
X105928076Y-100498819D01*
X105769554Y-99945248D01*
X105395606Y-99474788D01*
X104870086Y-99183244D01*
X104764740Y-99158964D01*
X104527000Y-99279622D01*
X104273000Y-99279622D01*
X104035260Y-99158964D01*
X103929914Y-99183244D01*
X103404394Y-99474788D01*
X103030446Y-99945248D01*
X102865000Y-100523000D01*
X102435000Y-100523000D01*
X102435000Y-100498818D01*
X102345938Y-100051073D01*
X102006673Y-99543327D01*
X101498926Y-99204062D01*
X100900000Y-99084928D01*
X100301073Y-99204062D01*
X99793327Y-99543327D01*
X99454062Y-100051074D01*
X99365000Y-100498819D01*
X98928076Y-100498819D01*
X98769554Y-99945248D01*
X98395606Y-99474788D01*
X97870086Y-99183244D01*
X97764740Y-99158964D01*
X97527000Y-99279622D01*
X97273000Y-99279622D01*
X97035260Y-99158964D01*
X96929914Y-99183244D01*
X96404394Y-99474788D01*
X96030446Y-99945248D01*
X95865000Y-100523000D01*
X95435000Y-100523000D01*
X95435000Y-100498818D01*
X95345938Y-100051073D01*
X95006673Y-99543327D01*
X94498926Y-99204062D01*
X93900000Y-99084928D01*
X93301073Y-99204062D01*
X92793327Y-99543327D01*
X92454062Y-100051074D01*
X92365000Y-100498819D01*
X91928076Y-100498819D01*
X91769554Y-99945248D01*
X91395606Y-99474788D01*
X90870086Y-99183244D01*
X90764740Y-99158964D01*
X90527000Y-99279622D01*
X90273000Y-99279622D01*
X90035260Y-99158964D01*
X89929914Y-99183244D01*
X89404394Y-99474788D01*
X89030446Y-99945248D01*
X88865000Y-100523000D01*
X88435000Y-100523000D01*
X88435000Y-100498818D01*
X88345938Y-100051073D01*
X88006673Y-99543327D01*
X87498926Y-99204062D01*
X86900000Y-99084928D01*
X86301073Y-99204062D01*
X85793327Y-99543327D01*
X85454062Y-100051074D01*
X85365000Y-100498819D01*
X84947440Y-100498819D01*
X84947440Y-99750000D01*
X84898157Y-99502235D01*
X84757809Y-99292191D01*
X84547765Y-99151843D01*
X84300000Y-99102560D01*
X82500000Y-99102560D01*
X82252235Y-99151843D01*
X82042191Y-99292191D01*
X81901843Y-99502235D01*
X81852560Y-99750000D01*
X80777000Y-99750000D01*
X80777000Y-99000000D01*
X80767333Y-98951399D01*
X80739803Y-98910197D01*
X80698601Y-98882667D01*
X80650000Y-98873000D01*
X77190600Y-98873000D01*
X77190600Y-94965376D01*
X105265000Y-94965376D01*
X105265000Y-95834624D01*
X105597646Y-96637703D01*
X106212297Y-97252354D01*
X107015376Y-97585000D01*
X107884624Y-97585000D01*
X108687703Y-97252354D01*
X109302354Y-96637703D01*
X109635000Y-95834624D01*
X109635000Y-94965376D01*
X109302354Y-94162297D01*
X108687703Y-93547646D01*
X107884624Y-93215000D01*
X107015376Y-93215000D01*
X106212297Y-93547646D01*
X105597646Y-94162297D01*
X105265000Y-94965376D01*
X77190600Y-94965376D01*
X77190600Y-89185750D01*
X103759000Y-89185750D01*
X103759000Y-89889910D01*
X103855673Y-90123299D01*
X104034302Y-90301927D01*
X104267691Y-90398600D01*
X105124250Y-90398600D01*
X105283000Y-90239850D01*
X105283000Y-89027000D01*
X105537000Y-89027000D01*
X105537000Y-90239850D01*
X105695750Y-90398600D01*
X106552309Y-90398600D01*
X106680000Y-90345709D01*
X106807691Y-90398600D01*
X107664250Y-90398600D01*
X107823000Y-90239850D01*
X107823000Y-89027000D01*
X108077000Y-89027000D01*
X108077000Y-90239850D01*
X108235750Y-90398600D01*
X109092309Y-90398600D01*
X109325698Y-90301927D01*
X109504327Y-90123299D01*
X109601000Y-89889910D01*
X109601000Y-89185750D01*
X109442250Y-89027000D01*
X108077000Y-89027000D01*
X107823000Y-89027000D01*
X105537000Y-89027000D01*
X105283000Y-89027000D01*
X103917750Y-89027000D01*
X103759000Y-89185750D01*
X77190600Y-89185750D01*
X77190600Y-85199245D01*
X77188165Y-85174496D01*
X77112213Y-84792218D01*
X77093291Y-84746479D01*
X76926221Y-84496084D01*
X76917333Y-84451399D01*
X76889803Y-84410197D01*
X76848601Y-84382667D01*
X76829501Y-84378868D01*
X76518173Y-84170351D01*
X76472468Y-84151349D01*
X76090325Y-84074725D01*
X76065580Y-84072246D01*
X61260957Y-84046240D01*
X61160000Y-84025997D01*
X61160000Y-81096504D01*
X61553910Y-81490414D01*
X62265105Y-81785000D01*
X63034895Y-81785000D01*
X63746090Y-81490414D01*
X64290414Y-80946090D01*
X64585000Y-80234895D01*
X64585000Y-79465105D01*
X68315000Y-79465105D01*
X68315000Y-80234895D01*
X68609586Y-80946090D01*
X69153910Y-81490414D01*
X69865105Y-81785000D01*
X70634895Y-81785000D01*
X71346090Y-81490414D01*
X71890414Y-80946090D01*
X72152622Y-80313062D01*
X77560200Y-80313062D01*
X77560200Y-80686938D01*
X77703276Y-81032354D01*
X77967646Y-81296724D01*
X78313062Y-81439800D01*
X78686938Y-81439800D01*
X79032354Y-81296724D01*
X79296724Y-81032354D01*
X79347525Y-80909710D01*
X79495328Y-80761907D01*
X80444173Y-79813062D01*
X82560200Y-79813062D01*
X82560200Y-80186938D01*
X82703276Y-80532354D01*
X82967646Y-80796724D01*
X83313062Y-80939800D01*
X83362170Y-80939800D01*
X85158117Y-82735748D01*
X85200629Y-82799371D01*
X85452683Y-82967788D01*
X85674952Y-83012000D01*
X85674953Y-83012000D01*
X85750000Y-83026928D01*
X85825047Y-83012000D01*
X100341292Y-83012000D01*
X100453276Y-83282354D01*
X100717646Y-83546724D01*
X101063062Y-83689800D01*
X101436938Y-83689800D01*
X101782354Y-83546724D01*
X102046724Y-83282354D01*
X102189800Y-82936938D01*
X102189800Y-82563062D01*
X102046724Y-82217646D01*
X101954078Y-82125000D01*
X102046724Y-82032354D01*
X102189800Y-81686938D01*
X102189800Y-81313062D01*
X102046724Y-80967646D01*
X101782354Y-80703276D01*
X101436938Y-80560200D01*
X101063062Y-80560200D01*
X100717646Y-80703276D01*
X100682922Y-80738000D01*
X86815631Y-80738000D01*
X85939800Y-79862170D01*
X85939800Y-79813062D01*
X85796724Y-79467646D01*
X85532354Y-79203276D01*
X85186938Y-79060200D01*
X84813062Y-79060200D01*
X84467646Y-79203276D01*
X84250000Y-79420922D01*
X84032354Y-79203276D01*
X83686938Y-79060200D01*
X83313062Y-79060200D01*
X82967646Y-79203276D01*
X82703276Y-79467646D01*
X82560200Y-79813062D01*
X80444173Y-79813062D01*
X81517235Y-78740000D01*
X103729641Y-78740000D01*
X103845950Y-79324725D01*
X104177170Y-79820430D01*
X104460881Y-80010000D01*
X104177170Y-80199570D01*
X103845950Y-80695275D01*
X103729641Y-81280000D01*
X103845950Y-81864725D01*
X104177170Y-82360430D01*
X104460881Y-82550000D01*
X104177170Y-82739570D01*
X103845950Y-83235275D01*
X103729641Y-83820000D01*
X103845950Y-84404725D01*
X104177170Y-84900430D01*
X104460881Y-85090000D01*
X104177170Y-85279570D01*
X103845950Y-85775275D01*
X103729641Y-86360000D01*
X103845950Y-86944725D01*
X104176367Y-87439228D01*
X104034302Y-87498073D01*
X103855673Y-87676701D01*
X103759000Y-87910090D01*
X103759000Y-88614250D01*
X103917750Y-88773000D01*
X105283000Y-88773000D01*
X105283000Y-88753000D01*
X105537000Y-88753000D01*
X105537000Y-88773000D01*
X107823000Y-88773000D01*
X107823000Y-88753000D01*
X108077000Y-88753000D01*
X108077000Y-88773000D01*
X109442250Y-88773000D01*
X109601000Y-88614250D01*
X109601000Y-87910090D01*
X109504327Y-87676701D01*
X109325698Y-87498073D01*
X109183633Y-87439228D01*
X109514050Y-86944725D01*
X109630359Y-86360000D01*
X109514050Y-85775275D01*
X109182830Y-85279570D01*
X108899119Y-85090000D01*
X109182830Y-84900430D01*
X109514050Y-84404725D01*
X109630359Y-83820000D01*
X109514050Y-83235275D01*
X109182830Y-82739570D01*
X108899119Y-82550000D01*
X109182830Y-82360430D01*
X109514050Y-81864725D01*
X109630359Y-81280000D01*
X109514050Y-80695275D01*
X109182830Y-80199570D01*
X108687125Y-79868350D01*
X108249998Y-79781400D01*
X107650002Y-79781400D01*
X107212875Y-79868350D01*
X106717170Y-80199570D01*
X106680000Y-80255199D01*
X106642830Y-80199570D01*
X106359119Y-80010000D01*
X106642830Y-79820430D01*
X106974050Y-79324725D01*
X107090359Y-78740000D01*
X106974050Y-78155275D01*
X106642830Y-77659570D01*
X106147125Y-77328350D01*
X105709998Y-77241400D01*
X105110002Y-77241400D01*
X104672875Y-77328350D01*
X104177170Y-77659570D01*
X103845950Y-78155275D01*
X103729641Y-78740000D01*
X81517235Y-78740000D01*
X82698236Y-77559000D01*
X100188893Y-77559000D01*
X100558815Y-77928922D01*
X101104615Y-78155000D01*
X101695385Y-78155000D01*
X102241185Y-77928922D01*
X102658922Y-77511185D01*
X102885000Y-76965385D01*
X102885000Y-76374615D01*
X102658922Y-75828815D01*
X102241185Y-75411078D01*
X102194753Y-75391845D01*
X102264353Y-75173958D01*
X101400000Y-74309605D01*
X100535647Y-75173958D01*
X100605247Y-75391845D01*
X100558815Y-75411078D01*
X100188893Y-75781000D01*
X82417554Y-75781000D01*
X82329999Y-75763584D01*
X82242444Y-75781000D01*
X81983130Y-75832581D01*
X81689067Y-76029067D01*
X81639471Y-76103293D01*
X78238093Y-79504672D01*
X78090290Y-79652475D01*
X77967646Y-79703276D01*
X77703276Y-79967646D01*
X77560200Y-80313062D01*
X72152622Y-80313062D01*
X72185000Y-80234895D01*
X72185000Y-79465105D01*
X71890414Y-78753910D01*
X71346090Y-78209586D01*
X70634895Y-77915000D01*
X69865105Y-77915000D01*
X69153910Y-78209586D01*
X68609586Y-78753910D01*
X68315000Y-79465105D01*
X64585000Y-79465105D01*
X64290414Y-78753910D01*
X63746090Y-78209586D01*
X63034895Y-77915000D01*
X62265105Y-77915000D01*
X61553910Y-78209586D01*
X61160000Y-78603496D01*
X61160000Y-69674778D01*
X62265320Y-69674778D01*
X62265320Y-70325222D01*
X62514234Y-70926153D01*
X62974167Y-71386086D01*
X63575098Y-71635000D01*
X64225542Y-71635000D01*
X64826473Y-71386086D01*
X65286406Y-70926153D01*
X65535320Y-70325222D01*
X65535320Y-69674778D01*
X69865000Y-69674778D01*
X69865000Y-70325222D01*
X70113914Y-70926153D01*
X70573847Y-71386086D01*
X71174778Y-71635000D01*
X71825222Y-71635000D01*
X72426153Y-71386086D01*
X72886086Y-70926153D01*
X73135000Y-70325222D01*
X73135000Y-69674778D01*
X72886086Y-69073847D01*
X72426153Y-68613914D01*
X71825222Y-68365000D01*
X71174778Y-68365000D01*
X70573847Y-68613914D01*
X70113914Y-69073847D01*
X69865000Y-69674778D01*
X65535320Y-69674778D01*
X65286406Y-69073847D01*
X64826473Y-68613914D01*
X64225542Y-68365000D01*
X63575098Y-68365000D01*
X62974167Y-68613914D01*
X62514234Y-69073847D01*
X62265320Y-69674778D01*
X61160000Y-69674778D01*
X61160000Y-59391247D01*
X61226100Y-58824292D01*
X61406685Y-58326788D01*
X61696881Y-57884165D01*
X61704445Y-57877000D01*
X61832943Y-57877000D01*
X61597646Y-58112297D01*
G04 #@! TO.N,Net-(P3-Pad2)*
G36*
X71133130Y-93745752D02*
X71415545Y-93934455D01*
X71515001Y-94083302D01*
X71515000Y-101016699D01*
X71415545Y-101165545D01*
X71133130Y-101354248D01*
X70787491Y-101423000D01*
X68662509Y-101423000D01*
X68316870Y-101354248D01*
X68035000Y-101165909D01*
X68035000Y-93934091D01*
X68316870Y-93745752D01*
X68662509Y-93677000D01*
X70787491Y-93677000D01*
X71133130Y-93745752D01*
X71133130Y-93745752D01*
G37*
X71133130Y-93745752D02*
X71415545Y-93934455D01*
X71515001Y-94083302D01*
X71515000Y-101016699D01*
X71415545Y-101165545D01*
X71133130Y-101354248D01*
X70787491Y-101423000D01*
X68662509Y-101423000D01*
X68316870Y-101354248D01*
X68035000Y-101165909D01*
X68035000Y-93934091D01*
X68316870Y-93745752D01*
X68662509Y-93677000D01*
X70787491Y-93677000D01*
X71133130Y-93745752D01*
G04 #@! TO.N,Net-(P3-Pad1)*
G36*
X64783130Y-91245752D02*
X65065001Y-91434091D01*
X65065000Y-101165909D01*
X64783130Y-101354248D01*
X64437491Y-101423000D01*
X62112509Y-101423000D01*
X61766870Y-101354248D01*
X61484455Y-101165545D01*
X61295752Y-100883130D01*
X61227000Y-100537491D01*
X61227000Y-92062509D01*
X61295752Y-91716870D01*
X61484455Y-91434455D01*
X61766870Y-91245752D01*
X62112509Y-91177000D01*
X64437491Y-91177000D01*
X64783130Y-91245752D01*
X64783130Y-91245752D01*
G37*
X64783130Y-91245752D02*
X65065001Y-91434091D01*
X65065000Y-101165909D01*
X64783130Y-101354248D01*
X64437491Y-101423000D01*
X62112509Y-101423000D01*
X61766870Y-101354248D01*
X61484455Y-101165545D01*
X61295752Y-100883130D01*
X61227000Y-100537491D01*
X61227000Y-92062509D01*
X61295752Y-91716870D01*
X61484455Y-91434455D01*
X61766870Y-91245752D01*
X62112509Y-91177000D01*
X64437491Y-91177000D01*
X64783130Y-91245752D01*
G04 #@! TD*
M02*
