G04 #@! TF.FileFunction,Legend,Top*
%FSLAX46Y46*%
G04 Gerber Fmt 4.6, Leading zero omitted, Abs format (unit mm)*
G04 Created by KiCad (PCBNEW 4.0.7-e2-6376~60~ubuntu17.10.1) date Wed Apr  4 01:09:11 2018*
%MOMM*%
%LPD*%
G01*
G04 APERTURE LIST*
%ADD10C,0.100000*%
%ADD11C,0.300000*%
%ADD12C,0.150000*%
G04 APERTURE END LIST*
D10*
D11*
X103828572Y-98907143D02*
X104971429Y-98907143D01*
X107328572Y-98907143D02*
X108471429Y-98907143D01*
X107900000Y-99478571D02*
X107900000Y-98335714D01*
X99307143Y-98692857D02*
X99521429Y-98764286D01*
X99592857Y-98835714D01*
X99664286Y-98978571D01*
X99664286Y-99192857D01*
X99592857Y-99335714D01*
X99521429Y-99407143D01*
X99378571Y-99478571D01*
X98807143Y-99478571D01*
X98807143Y-97978571D01*
X99307143Y-97978571D01*
X99450000Y-98050000D01*
X99521429Y-98121429D01*
X99592857Y-98264286D01*
X99592857Y-98407143D01*
X99521429Y-98550000D01*
X99450000Y-98621429D01*
X99307143Y-98692857D01*
X98807143Y-98692857D01*
X91842857Y-99050000D02*
X92557143Y-99050000D01*
X91700000Y-99478571D02*
X92200000Y-97978571D01*
X92700000Y-99478571D01*
X84914286Y-99335714D02*
X84842857Y-99407143D01*
X84628571Y-99478571D01*
X84485714Y-99478571D01*
X84271429Y-99407143D01*
X84128571Y-99264286D01*
X84057143Y-99121429D01*
X83985714Y-98835714D01*
X83985714Y-98621429D01*
X84057143Y-98335714D01*
X84128571Y-98192857D01*
X84271429Y-98050000D01*
X84485714Y-97978571D01*
X84628571Y-97978571D01*
X84842857Y-98050000D01*
X84914286Y-98121429D01*
X86414286Y-99335714D02*
X86342857Y-99407143D01*
X86128571Y-99478571D01*
X85985714Y-99478571D01*
X85771429Y-99407143D01*
X85628571Y-99264286D01*
X85557143Y-99121429D01*
X85485714Y-98835714D01*
X85485714Y-98621429D01*
X85557143Y-98335714D01*
X85628571Y-98192857D01*
X85771429Y-98050000D01*
X85985714Y-97978571D01*
X86128571Y-97978571D01*
X86342857Y-98050000D01*
X86414286Y-98121429D01*
X78321428Y-92403571D02*
X78892857Y-92403571D01*
X78535714Y-91903571D02*
X78535714Y-93189286D01*
X78607142Y-93332143D01*
X78750000Y-93403571D01*
X78892857Y-93403571D01*
X79392857Y-93403571D02*
X79392857Y-92403571D01*
X79392857Y-91903571D02*
X79321428Y-91975000D01*
X79392857Y-92046429D01*
X79464285Y-91975000D01*
X79392857Y-91903571D01*
X79392857Y-92046429D01*
X80107143Y-93403571D02*
X80107143Y-92403571D01*
X80107143Y-92546429D02*
X80178571Y-92475000D01*
X80321429Y-92403571D01*
X80535714Y-92403571D01*
X80678571Y-92475000D01*
X80750000Y-92617857D01*
X80750000Y-93403571D01*
X80750000Y-92617857D02*
X80821429Y-92475000D01*
X80964286Y-92403571D01*
X81178571Y-92403571D01*
X81321429Y-92475000D01*
X81392857Y-92617857D01*
X81392857Y-93403571D01*
X82107143Y-93403571D02*
X82107143Y-91903571D01*
X82750000Y-93403571D02*
X82750000Y-92617857D01*
X82678571Y-92475000D01*
X82535714Y-92403571D01*
X82321429Y-92403571D01*
X82178571Y-92475000D01*
X82107143Y-92546429D01*
X84107143Y-93403571D02*
X84107143Y-92617857D01*
X84035714Y-92475000D01*
X83892857Y-92403571D01*
X83607143Y-92403571D01*
X83464286Y-92475000D01*
X84107143Y-93332143D02*
X83964286Y-93403571D01*
X83607143Y-93403571D01*
X83464286Y-93332143D01*
X83392857Y-93189286D01*
X83392857Y-93046429D01*
X83464286Y-92903571D01*
X83607143Y-92832143D01*
X83964286Y-92832143D01*
X84107143Y-92760714D01*
X84678572Y-92403571D02*
X84964286Y-93403571D01*
X85250000Y-92689286D01*
X85535715Y-93403571D01*
X85821429Y-92403571D01*
X86964286Y-93332143D02*
X86821429Y-93403571D01*
X86535715Y-93403571D01*
X86392858Y-93332143D01*
X86321429Y-93189286D01*
X86321429Y-92617857D01*
X86392858Y-92475000D01*
X86535715Y-92403571D01*
X86821429Y-92403571D01*
X86964286Y-92475000D01*
X87035715Y-92617857D01*
X87035715Y-92760714D01*
X86321429Y-92903571D01*
X87607143Y-93332143D02*
X87750000Y-93403571D01*
X88035715Y-93403571D01*
X88178572Y-93332143D01*
X88250000Y-93189286D01*
X88250000Y-93117857D01*
X88178572Y-92975000D01*
X88035715Y-92903571D01*
X87821429Y-92903571D01*
X87678572Y-92832143D01*
X87607143Y-92689286D01*
X87607143Y-92617857D01*
X87678572Y-92475000D01*
X87821429Y-92403571D01*
X88035715Y-92403571D01*
X88178572Y-92475000D01*
X88892858Y-93260714D02*
X88964286Y-93332143D01*
X88892858Y-93403571D01*
X88821429Y-93332143D01*
X88892858Y-93260714D01*
X88892858Y-93403571D01*
X90250001Y-93332143D02*
X90107144Y-93403571D01*
X89821430Y-93403571D01*
X89678572Y-93332143D01*
X89607144Y-93260714D01*
X89535715Y-93117857D01*
X89535715Y-92689286D01*
X89607144Y-92546429D01*
X89678572Y-92475000D01*
X89821430Y-92403571D01*
X90107144Y-92403571D01*
X90250001Y-92475000D01*
X91107144Y-93403571D02*
X90964286Y-93332143D01*
X90892858Y-93260714D01*
X90821429Y-93117857D01*
X90821429Y-92689286D01*
X90892858Y-92546429D01*
X90964286Y-92475000D01*
X91107144Y-92403571D01*
X91321429Y-92403571D01*
X91464286Y-92475000D01*
X91535715Y-92546429D01*
X91607144Y-92689286D01*
X91607144Y-93117857D01*
X91535715Y-93260714D01*
X91464286Y-93332143D01*
X91321429Y-93403571D01*
X91107144Y-93403571D01*
X92250001Y-93403571D02*
X92250001Y-92403571D01*
X92250001Y-92546429D02*
X92321429Y-92475000D01*
X92464287Y-92403571D01*
X92678572Y-92403571D01*
X92821429Y-92475000D01*
X92892858Y-92617857D01*
X92892858Y-93403571D01*
X92892858Y-92617857D02*
X92964287Y-92475000D01*
X93107144Y-92403571D01*
X93321429Y-92403571D01*
X93464287Y-92475000D01*
X93535715Y-92617857D01*
X93535715Y-93403571D01*
X95321429Y-91832143D02*
X94035715Y-93760714D01*
X95750001Y-93332143D02*
X95892858Y-93403571D01*
X96178573Y-93403571D01*
X96321430Y-93332143D01*
X96392858Y-93189286D01*
X96392858Y-93117857D01*
X96321430Y-92975000D01*
X96178573Y-92903571D01*
X95964287Y-92903571D01*
X95821430Y-92832143D01*
X95750001Y-92689286D01*
X95750001Y-92617857D01*
X95821430Y-92475000D01*
X95964287Y-92403571D01*
X96178573Y-92403571D01*
X96321430Y-92475000D01*
X96964287Y-93332143D02*
X97107144Y-93403571D01*
X97392859Y-93403571D01*
X97535716Y-93332143D01*
X97607144Y-93189286D01*
X97607144Y-93117857D01*
X97535716Y-92975000D01*
X97392859Y-92903571D01*
X97178573Y-92903571D01*
X97035716Y-92832143D01*
X96964287Y-92689286D01*
X96964287Y-92617857D01*
X97035716Y-92475000D01*
X97178573Y-92403571D01*
X97392859Y-92403571D01*
X97535716Y-92475000D01*
X98107145Y-91903571D02*
X99035716Y-91903571D01*
X98535716Y-92475000D01*
X98750002Y-92475000D01*
X98892859Y-92546429D01*
X98964288Y-92617857D01*
X99035716Y-92760714D01*
X99035716Y-93117857D01*
X98964288Y-93260714D01*
X98892859Y-93332143D01*
X98750002Y-93403571D01*
X98321430Y-93403571D01*
X98178573Y-93332143D01*
X98107145Y-93260714D01*
X77107142Y-95882143D02*
X76964285Y-95953571D01*
X76678571Y-95953571D01*
X76535714Y-95882143D01*
X76464285Y-95739286D01*
X76464285Y-95167857D01*
X76535714Y-95025000D01*
X76678571Y-94953571D01*
X76964285Y-94953571D01*
X77107142Y-95025000D01*
X77178571Y-95167857D01*
X77178571Y-95310714D01*
X76464285Y-95453571D01*
X78464285Y-95953571D02*
X78464285Y-94453571D01*
X78464285Y-95882143D02*
X78321428Y-95953571D01*
X78035714Y-95953571D01*
X77892856Y-95882143D01*
X77821428Y-95810714D01*
X77749999Y-95667857D01*
X77749999Y-95239286D01*
X77821428Y-95096429D01*
X77892856Y-95025000D01*
X78035714Y-94953571D01*
X78321428Y-94953571D01*
X78464285Y-95025000D01*
X79178571Y-95953571D02*
X79178571Y-94953571D01*
X79178571Y-94453571D02*
X79107142Y-94525000D01*
X79178571Y-94596429D01*
X79249999Y-94525000D01*
X79178571Y-94453571D01*
X79178571Y-94596429D01*
X79892857Y-94953571D02*
X79892857Y-95953571D01*
X79892857Y-95096429D02*
X79964285Y-95025000D01*
X80107143Y-94953571D01*
X80321428Y-94953571D01*
X80464285Y-95025000D01*
X80535714Y-95167857D01*
X80535714Y-95953571D01*
X81250000Y-95953571D02*
X81250000Y-94453571D01*
X81250000Y-95025000D02*
X81392857Y-94953571D01*
X81678571Y-94953571D01*
X81821428Y-95025000D01*
X81892857Y-95096429D01*
X81964286Y-95239286D01*
X81964286Y-95667857D01*
X81892857Y-95810714D01*
X81821428Y-95882143D01*
X81678571Y-95953571D01*
X81392857Y-95953571D01*
X81250000Y-95882143D01*
X83250000Y-94953571D02*
X83250000Y-95953571D01*
X82607143Y-94953571D02*
X82607143Y-95739286D01*
X82678571Y-95882143D01*
X82821429Y-95953571D01*
X83035714Y-95953571D01*
X83178571Y-95882143D01*
X83250000Y-95810714D01*
X83964286Y-95953571D02*
X83964286Y-94953571D01*
X83964286Y-95239286D02*
X84035714Y-95096429D01*
X84107143Y-95025000D01*
X84250000Y-94953571D01*
X84392857Y-94953571D01*
X85535714Y-94953571D02*
X85535714Y-96167857D01*
X85464285Y-96310714D01*
X85392857Y-96382143D01*
X85250000Y-96453571D01*
X85035714Y-96453571D01*
X84892857Y-96382143D01*
X85535714Y-95882143D02*
X85392857Y-95953571D01*
X85107143Y-95953571D01*
X84964285Y-95882143D01*
X84892857Y-95810714D01*
X84821428Y-95667857D01*
X84821428Y-95239286D01*
X84892857Y-95096429D01*
X84964285Y-95025000D01*
X85107143Y-94953571D01*
X85392857Y-94953571D01*
X85535714Y-95025000D01*
X86250000Y-95953571D02*
X86250000Y-94453571D01*
X86892857Y-95953571D02*
X86892857Y-95167857D01*
X86821428Y-95025000D01*
X86678571Y-94953571D01*
X86464286Y-94953571D01*
X86321428Y-95025000D01*
X86250000Y-95096429D01*
X87607143Y-95953571D02*
X87607143Y-94453571D01*
X88250000Y-95953571D02*
X88250000Y-95167857D01*
X88178571Y-95025000D01*
X88035714Y-94953571D01*
X87821429Y-94953571D01*
X87678571Y-95025000D01*
X87607143Y-95096429D01*
X89607143Y-95953571D02*
X89607143Y-95167857D01*
X89535714Y-95025000D01*
X89392857Y-94953571D01*
X89107143Y-94953571D01*
X88964286Y-95025000D01*
X89607143Y-95882143D02*
X89464286Y-95953571D01*
X89107143Y-95953571D01*
X88964286Y-95882143D01*
X88892857Y-95739286D01*
X88892857Y-95596429D01*
X88964286Y-95453571D01*
X89107143Y-95382143D01*
X89464286Y-95382143D01*
X89607143Y-95310714D01*
X90964286Y-95882143D02*
X90821429Y-95953571D01*
X90535715Y-95953571D01*
X90392857Y-95882143D01*
X90321429Y-95810714D01*
X90250000Y-95667857D01*
X90250000Y-95239286D01*
X90321429Y-95096429D01*
X90392857Y-95025000D01*
X90535715Y-94953571D01*
X90821429Y-94953571D01*
X90964286Y-95025000D01*
X91607143Y-95953571D02*
X91607143Y-94453571D01*
X91750000Y-95382143D02*
X92178571Y-95953571D01*
X92178571Y-94953571D02*
X91607143Y-95525000D01*
X93035715Y-95953571D02*
X92892857Y-95882143D01*
X92821429Y-95739286D01*
X92821429Y-94453571D01*
X94250000Y-95953571D02*
X94250000Y-95167857D01*
X94178571Y-95025000D01*
X94035714Y-94953571D01*
X93750000Y-94953571D01*
X93607143Y-95025000D01*
X94250000Y-95882143D02*
X94107143Y-95953571D01*
X93750000Y-95953571D01*
X93607143Y-95882143D01*
X93535714Y-95739286D01*
X93535714Y-95596429D01*
X93607143Y-95453571D01*
X93750000Y-95382143D01*
X94107143Y-95382143D01*
X94250000Y-95310714D01*
X94964286Y-95953571D02*
X94964286Y-94453571D01*
X94964286Y-95025000D02*
X95107143Y-94953571D01*
X95392857Y-94953571D01*
X95535714Y-95025000D01*
X95607143Y-95096429D01*
X95678572Y-95239286D01*
X95678572Y-95667857D01*
X95607143Y-95810714D01*
X95535714Y-95882143D01*
X95392857Y-95953571D01*
X95107143Y-95953571D01*
X94964286Y-95882143D01*
X96321429Y-95810714D02*
X96392857Y-95882143D01*
X96321429Y-95953571D01*
X96250000Y-95882143D01*
X96321429Y-95810714D01*
X96321429Y-95953571D01*
X97678572Y-95882143D02*
X97535715Y-95953571D01*
X97250001Y-95953571D01*
X97107143Y-95882143D01*
X97035715Y-95810714D01*
X96964286Y-95667857D01*
X96964286Y-95239286D01*
X97035715Y-95096429D01*
X97107143Y-95025000D01*
X97250001Y-94953571D01*
X97535715Y-94953571D01*
X97678572Y-95025000D01*
X98535715Y-95953571D02*
X98392857Y-95882143D01*
X98321429Y-95810714D01*
X98250000Y-95667857D01*
X98250000Y-95239286D01*
X98321429Y-95096429D01*
X98392857Y-95025000D01*
X98535715Y-94953571D01*
X98750000Y-94953571D01*
X98892857Y-95025000D01*
X98964286Y-95096429D01*
X99035715Y-95239286D01*
X99035715Y-95667857D01*
X98964286Y-95810714D01*
X98892857Y-95882143D01*
X98750000Y-95953571D01*
X98535715Y-95953571D01*
X99678572Y-95953571D02*
X99678572Y-94953571D01*
X99678572Y-95096429D02*
X99750000Y-95025000D01*
X99892858Y-94953571D01*
X100107143Y-94953571D01*
X100250000Y-95025000D01*
X100321429Y-95167857D01*
X100321429Y-95953571D01*
X100321429Y-95167857D02*
X100392858Y-95025000D01*
X100535715Y-94953571D01*
X100750000Y-94953571D01*
X100892858Y-95025000D01*
X100964286Y-95167857D01*
X100964286Y-95953571D01*
D12*
X79810000Y-79210000D02*
X79810000Y-85560000D01*
X77270000Y-77940000D02*
X78540000Y-77940000D01*
X79810000Y-79210000D02*
G75*
G03X78540000Y-77940000I-1270000J0D01*
G01*
X79810000Y-85560000D02*
X102670000Y-85560000D01*
X77270000Y-57620000D02*
X77270000Y-77940000D01*
X102670000Y-57620000D02*
X102670000Y-85560000D01*
X102670000Y-53810000D02*
X100130000Y-51270000D01*
X100130000Y-51270000D02*
X79810000Y-51270000D01*
X79810000Y-51270000D02*
X77270000Y-53810000D01*
X102670000Y-57620000D02*
X77270000Y-57620000D01*
X77270000Y-57620000D02*
X77270000Y-53810000D01*
X102670000Y-53810000D02*
X102670000Y-57620000D01*
X72749940Y-78099840D02*
X73100460Y-78099840D01*
X76250060Y-78099840D02*
X75899540Y-78099840D01*
X72749940Y-82149420D02*
X73100460Y-82149420D01*
X72749940Y-77648540D02*
X73100460Y-77648540D01*
X76250060Y-77648540D02*
X75899540Y-77648540D01*
X76250060Y-82149420D02*
X75899540Y-82149420D01*
X72749940Y-77648540D02*
X72749940Y-82149420D01*
X76250060Y-77648540D02*
X76250060Y-82149420D01*
X79349760Y-87700840D02*
X79349760Y-87749100D01*
X80050800Y-90499820D02*
X79349760Y-90499820D01*
X79349760Y-90499820D02*
X79349760Y-90250900D01*
X79349760Y-87700840D02*
X79349760Y-87500180D01*
X79349760Y-87500180D02*
X80050800Y-87500180D01*
X80870000Y-100270000D02*
X80870000Y-109630000D01*
X80870000Y-109630000D02*
X110430000Y-109630000D01*
X110430000Y-109630000D02*
X110430000Y-100270000D01*
X80870000Y-100270000D02*
X82350000Y-100270000D01*
X110430000Y-100270000D02*
X108950000Y-100270000D01*
X84450000Y-100270000D02*
X85850000Y-100270000D01*
X87950000Y-100270000D02*
X89350000Y-100270000D01*
X91450000Y-100270000D02*
X92850000Y-100270000D01*
X94950000Y-100270000D02*
X96350000Y-100270000D01*
X98450000Y-100270000D02*
X99850000Y-100270000D01*
X101950000Y-100270000D02*
X103350000Y-100270000D01*
X105450000Y-100270000D02*
X106850000Y-100270000D01*
X80870000Y-106350000D02*
X110430000Y-106350000D01*
X83400000Y-99250000D02*
X83700000Y-98650000D01*
X83700000Y-98650000D02*
X83100000Y-98650000D01*
X83100000Y-98650000D02*
X83400000Y-99250000D01*
X89900000Y-67050000D02*
X88900000Y-67050000D01*
X88900000Y-68750000D02*
X89900000Y-68750000D01*
X89800000Y-61300000D02*
X88250000Y-61300000D01*
X89800000Y-62500000D02*
X88250000Y-62500000D01*
X109220000Y-87630000D02*
X109220000Y-80010000D01*
X106680000Y-87630000D02*
X106680000Y-80010000D01*
X106400000Y-90450000D02*
X106400000Y-88900000D01*
X109220000Y-80010000D02*
X106680000Y-80010000D01*
X106680000Y-87630000D02*
X109220000Y-87630000D01*
X109500000Y-88900000D02*
X109500000Y-90450000D01*
X109500000Y-90450000D02*
X106400000Y-90450000D01*
X106960000Y-88900000D02*
X106960000Y-90450000D01*
X106960000Y-90450000D02*
X103860000Y-90450000D01*
X103860000Y-90450000D02*
X103860000Y-88900000D01*
X104140000Y-87630000D02*
X104140000Y-77470000D01*
X104140000Y-77470000D02*
X106680000Y-77470000D01*
X106680000Y-77470000D02*
X106680000Y-87630000D01*
X104140000Y-87630000D02*
X106680000Y-87630000D01*
X106680000Y-69850000D02*
X106680000Y-67310000D01*
X106400000Y-72670000D02*
X106400000Y-71120000D01*
X106680000Y-69850000D02*
X109220000Y-69850000D01*
X109500000Y-71120000D02*
X109500000Y-72670000D01*
X109500000Y-72670000D02*
X106400000Y-72670000D01*
X109220000Y-69850000D02*
X109220000Y-67310000D01*
X109220000Y-67310000D02*
X106680000Y-67310000D01*
X69849760Y-59200840D02*
X69849760Y-59249100D01*
X70550800Y-61999820D02*
X69849760Y-61999820D01*
X69849760Y-61999820D02*
X69849760Y-61750900D01*
X69849760Y-59200840D02*
X69849760Y-59000180D01*
X69849760Y-59000180D02*
X70550800Y-59000180D01*
X84675000Y-88500000D02*
X84675000Y-89500000D01*
X83325000Y-89500000D02*
X83325000Y-88500000D01*
X89900000Y-77575000D02*
X88900000Y-77575000D01*
X88900000Y-76225000D02*
X89900000Y-76225000D01*
X89900000Y-80575000D02*
X88900000Y-80575000D01*
X88900000Y-79225000D02*
X89900000Y-79225000D01*
X88900000Y-64225000D02*
X89900000Y-64225000D01*
X89900000Y-65575000D02*
X88900000Y-65575000D01*
X88900000Y-70225000D02*
X89900000Y-70225000D01*
X89900000Y-71575000D02*
X88900000Y-71575000D01*
X89900000Y-74575000D02*
X88900000Y-74575000D01*
X88900000Y-73225000D02*
X89900000Y-73225000D01*
X84000000Y-74675000D02*
X83000000Y-74675000D01*
X83000000Y-73325000D02*
X84000000Y-73325000D01*
X84000000Y-77675000D02*
X83000000Y-77675000D01*
X83000000Y-76325000D02*
X84000000Y-76325000D01*
X75175000Y-60000000D02*
X75175000Y-61000000D01*
X73825000Y-61000000D02*
X73825000Y-60000000D01*
X68700920Y-70000000D02*
G75*
G03X68700920Y-70000000I-1000760J0D01*
G01*
X73900300Y-70000000D02*
G75*
G03X73900300Y-70000000I-6200140J0D01*
G01*
X60470000Y-97470000D02*
X60470000Y-109630000D01*
X60470000Y-109630000D02*
X72630000Y-109630000D01*
X72630000Y-109630000D02*
X72630000Y-97470000D01*
X72630000Y-97470000D02*
X60470000Y-97470000D01*
X60470000Y-108130000D02*
X60470000Y-106330000D01*
X60470000Y-106330000D02*
X72630000Y-106330000D01*
X72630000Y-106330000D02*
X72630000Y-108130000D01*
X72630000Y-108130000D02*
X60470000Y-108130000D01*
X63050000Y-109630000D02*
X65050000Y-109630000D01*
X65050000Y-109630000D02*
X64800000Y-108130000D01*
X64800000Y-108130000D02*
X63300000Y-108130000D01*
X63300000Y-108130000D02*
X63050000Y-109630000D01*
X68050000Y-109630000D02*
X70050000Y-109630000D01*
X70050000Y-109630000D02*
X69800000Y-108130000D01*
X69800000Y-108130000D02*
X68300000Y-108130000D01*
X68300000Y-108130000D02*
X68050000Y-109630000D01*
X64050000Y-97050000D02*
X64350000Y-96450000D01*
X64350000Y-96450000D02*
X63750000Y-96450000D01*
X63750000Y-96450000D02*
X64050000Y-97050000D01*
X61350000Y-78600000D02*
X61350000Y-96800000D01*
X61350000Y-96800000D02*
X71550000Y-96800000D01*
X71550000Y-96800000D02*
X71550000Y-78600000D01*
X61350000Y-78600000D02*
X71550000Y-78600000D01*
X89238095Y-58452381D02*
X89238095Y-59261905D01*
X89285714Y-59357143D01*
X89333333Y-59404762D01*
X89428571Y-59452381D01*
X89619048Y-59452381D01*
X89714286Y-59404762D01*
X89761905Y-59357143D01*
X89809524Y-59261905D01*
X89809524Y-58452381D01*
X90809524Y-59452381D02*
X90238095Y-59452381D01*
X90523809Y-59452381D02*
X90523809Y-58452381D01*
X90428571Y-58595238D01*
X90333333Y-58690476D01*
X90238095Y-58738095D01*
X77552381Y-80637075D02*
X76552381Y-80637075D01*
X76552381Y-80398980D01*
X76600000Y-80256122D01*
X76695238Y-80160884D01*
X76790476Y-80113265D01*
X76980952Y-80065646D01*
X77123810Y-80065646D01*
X77314286Y-80113265D01*
X77409524Y-80160884D01*
X77504762Y-80256122D01*
X77552381Y-80398980D01*
X77552381Y-80637075D01*
X77552381Y-79113265D02*
X77552381Y-79684694D01*
X77552381Y-79398980D02*
X76552381Y-79398980D01*
X76695238Y-79494218D01*
X76790476Y-79589456D01*
X76838095Y-79684694D01*
X72002381Y-77260885D02*
X71002381Y-77260885D01*
X72002381Y-76689456D02*
X71430952Y-77118028D01*
X71002381Y-76689456D02*
X71573810Y-77260885D01*
X71766667Y-83037075D02*
X71766667Y-82560884D01*
X72052381Y-83132313D02*
X71052381Y-82798980D01*
X72052381Y-82465646D01*
X79904762Y-87047619D02*
X79809524Y-87000000D01*
X79714286Y-86904762D01*
X79571429Y-86761905D01*
X79476190Y-86714286D01*
X79380952Y-86714286D01*
X79428571Y-86952381D02*
X79333333Y-86904762D01*
X79238095Y-86809524D01*
X79190476Y-86619048D01*
X79190476Y-86285714D01*
X79238095Y-86095238D01*
X79333333Y-86000000D01*
X79428571Y-85952381D01*
X79619048Y-85952381D01*
X79714286Y-86000000D01*
X79809524Y-86095238D01*
X79857143Y-86285714D01*
X79857143Y-86619048D01*
X79809524Y-86809524D01*
X79714286Y-86904762D01*
X79619048Y-86952381D01*
X79428571Y-86952381D01*
X80809524Y-86952381D02*
X80238095Y-86952381D01*
X80523809Y-86952381D02*
X80523809Y-85952381D01*
X80428571Y-86095238D01*
X80333333Y-86190476D01*
X80238095Y-86238095D01*
X94961905Y-105952381D02*
X94961905Y-104952381D01*
X95342858Y-104952381D01*
X95438096Y-105000000D01*
X95485715Y-105047619D01*
X95533334Y-105142857D01*
X95533334Y-105285714D01*
X95485715Y-105380952D01*
X95438096Y-105428571D01*
X95342858Y-105476190D01*
X94961905Y-105476190D01*
X96485715Y-105952381D02*
X95914286Y-105952381D01*
X96200000Y-105952381D02*
X96200000Y-104952381D01*
X96104762Y-105095238D01*
X96009524Y-105190476D01*
X95914286Y-105238095D01*
X92333334Y-68357143D02*
X92285715Y-68404762D01*
X92142858Y-68452381D01*
X92047620Y-68452381D01*
X91904762Y-68404762D01*
X91809524Y-68309524D01*
X91761905Y-68214286D01*
X91714286Y-68023810D01*
X91714286Y-67880952D01*
X91761905Y-67690476D01*
X91809524Y-67595238D01*
X91904762Y-67500000D01*
X92047620Y-67452381D01*
X92142858Y-67452381D01*
X92285715Y-67500000D01*
X92333334Y-67547619D01*
X92666667Y-67452381D02*
X93285715Y-67452381D01*
X92952381Y-67833333D01*
X93095239Y-67833333D01*
X93190477Y-67880952D01*
X93238096Y-67928571D01*
X93285715Y-68023810D01*
X93285715Y-68261905D01*
X93238096Y-68357143D01*
X93190477Y-68404762D01*
X93095239Y-68452381D01*
X92809524Y-68452381D01*
X92714286Y-68404762D01*
X92666667Y-68357143D01*
X91761905Y-62452381D02*
X91761905Y-61452381D01*
X92000000Y-61452381D01*
X92142858Y-61500000D01*
X92238096Y-61595238D01*
X92285715Y-61690476D01*
X92333334Y-61880952D01*
X92333334Y-62023810D01*
X92285715Y-62214286D01*
X92238096Y-62309524D01*
X92142858Y-62404762D01*
X92000000Y-62452381D01*
X91761905Y-62452381D01*
X92714286Y-61547619D02*
X92761905Y-61500000D01*
X92857143Y-61452381D01*
X93095239Y-61452381D01*
X93190477Y-61500000D01*
X93238096Y-61547619D01*
X93285715Y-61642857D01*
X93285715Y-61738095D01*
X93238096Y-61880952D01*
X92666667Y-62452381D01*
X93285715Y-62452381D01*
X108387981Y-92655076D02*
X108387981Y-93131267D01*
X107387981Y-93131267D01*
X108292743Y-91750314D02*
X108340362Y-91797933D01*
X108387981Y-91940790D01*
X108387981Y-92036028D01*
X108340362Y-92178886D01*
X108245124Y-92274124D01*
X108149886Y-92321743D01*
X107959410Y-92369362D01*
X107816552Y-92369362D01*
X107626076Y-92321743D01*
X107530838Y-92274124D01*
X107435600Y-92178886D01*
X107387981Y-92036028D01*
X107387981Y-91940790D01*
X107435600Y-91797933D01*
X107483219Y-91750314D01*
X108387981Y-91321743D02*
X107387981Y-91321743D01*
X107387981Y-91083648D01*
X107435600Y-90940790D01*
X107530838Y-90845552D01*
X107626076Y-90797933D01*
X107816552Y-90750314D01*
X107959410Y-90750314D01*
X108149886Y-90797933D01*
X108245124Y-90845552D01*
X108340362Y-90940790D01*
X108387981Y-91083648D01*
X108387981Y-91321743D01*
X105887981Y-93228886D02*
X104887981Y-93228886D01*
X105887981Y-92657457D01*
X104887981Y-92657457D01*
X105364171Y-91847933D02*
X105364171Y-92181267D01*
X105887981Y-92181267D02*
X104887981Y-92181267D01*
X104887981Y-91705076D01*
X105792743Y-90752695D02*
X105840362Y-90800314D01*
X105887981Y-90943171D01*
X105887981Y-91038409D01*
X105840362Y-91181267D01*
X105745124Y-91276505D01*
X105649886Y-91324124D01*
X105459410Y-91371743D01*
X105316552Y-91371743D01*
X105126076Y-91324124D01*
X105030838Y-91276505D01*
X104935600Y-91181267D01*
X104887981Y-91038409D01*
X104887981Y-90943171D01*
X104935600Y-90800314D01*
X104983219Y-90752695D01*
X105952381Y-71815714D02*
X104952381Y-71815714D01*
X104952381Y-71434761D01*
X105000000Y-71339523D01*
X105047619Y-71291904D01*
X105142857Y-71244285D01*
X105285714Y-71244285D01*
X105380952Y-71291904D01*
X105428571Y-71339523D01*
X105476190Y-71434761D01*
X105476190Y-71815714D01*
X105952381Y-70244285D02*
X105476190Y-70577619D01*
X105952381Y-70815714D02*
X104952381Y-70815714D01*
X104952381Y-70434761D01*
X105000000Y-70339523D01*
X105047619Y-70291904D01*
X105142857Y-70244285D01*
X105285714Y-70244285D01*
X105380952Y-70291904D01*
X105428571Y-70339523D01*
X105476190Y-70434761D01*
X105476190Y-70815714D01*
X104952381Y-69625238D02*
X104952381Y-69434761D01*
X105000000Y-69339523D01*
X105095238Y-69244285D01*
X105285714Y-69196666D01*
X105619048Y-69196666D01*
X105809524Y-69244285D01*
X105904762Y-69339523D01*
X105952381Y-69434761D01*
X105952381Y-69625238D01*
X105904762Y-69720476D01*
X105809524Y-69815714D01*
X105619048Y-69863333D01*
X105285714Y-69863333D01*
X105095238Y-69815714D01*
X105000000Y-69720476D01*
X104952381Y-69625238D01*
X105000000Y-68244285D02*
X104952381Y-68339523D01*
X104952381Y-68482380D01*
X105000000Y-68625238D01*
X105095238Y-68720476D01*
X105190476Y-68768095D01*
X105380952Y-68815714D01*
X105523810Y-68815714D01*
X105714286Y-68768095D01*
X105809524Y-68720476D01*
X105904762Y-68625238D01*
X105952381Y-68482380D01*
X105952381Y-68387142D01*
X105904762Y-68244285D01*
X105857143Y-68196666D01*
X105523810Y-68196666D01*
X105523810Y-68387142D01*
X68797619Y-60595238D02*
X68750000Y-60690476D01*
X68654762Y-60785714D01*
X68511905Y-60928571D01*
X68464286Y-61023810D01*
X68464286Y-61119048D01*
X68702381Y-61071429D02*
X68654762Y-61166667D01*
X68559524Y-61261905D01*
X68369048Y-61309524D01*
X68035714Y-61309524D01*
X67845238Y-61261905D01*
X67750000Y-61166667D01*
X67702381Y-61071429D01*
X67702381Y-60880952D01*
X67750000Y-60785714D01*
X67845238Y-60690476D01*
X68035714Y-60642857D01*
X68369048Y-60642857D01*
X68559524Y-60690476D01*
X68654762Y-60785714D01*
X68702381Y-60880952D01*
X68702381Y-61071429D01*
X67797619Y-60261905D02*
X67750000Y-60214286D01*
X67702381Y-60119048D01*
X67702381Y-59880952D01*
X67750000Y-59785714D01*
X67797619Y-59738095D01*
X67892857Y-59690476D01*
X67988095Y-59690476D01*
X68130952Y-59738095D01*
X68702381Y-60309524D01*
X68702381Y-59690476D01*
X83833334Y-86952381D02*
X83500000Y-86476190D01*
X83261905Y-86952381D02*
X83261905Y-85952381D01*
X83642858Y-85952381D01*
X83738096Y-86000000D01*
X83785715Y-86047619D01*
X83833334Y-86142857D01*
X83833334Y-86285714D01*
X83785715Y-86380952D01*
X83738096Y-86428571D01*
X83642858Y-86476190D01*
X83261905Y-86476190D01*
X84785715Y-86952381D02*
X84214286Y-86952381D01*
X84500000Y-86952381D02*
X84500000Y-85952381D01*
X84404762Y-86095238D01*
X84309524Y-86190476D01*
X84214286Y-86238095D01*
X92333334Y-77452381D02*
X92000000Y-76976190D01*
X91761905Y-77452381D02*
X91761905Y-76452381D01*
X92142858Y-76452381D01*
X92238096Y-76500000D01*
X92285715Y-76547619D01*
X92333334Y-76642857D01*
X92333334Y-76785714D01*
X92285715Y-76880952D01*
X92238096Y-76928571D01*
X92142858Y-76976190D01*
X91761905Y-76976190D01*
X92666667Y-76452381D02*
X93285715Y-76452381D01*
X92952381Y-76833333D01*
X93095239Y-76833333D01*
X93190477Y-76880952D01*
X93238096Y-76928571D01*
X93285715Y-77023810D01*
X93285715Y-77261905D01*
X93238096Y-77357143D01*
X93190477Y-77404762D01*
X93095239Y-77452381D01*
X92809524Y-77452381D01*
X92714286Y-77404762D01*
X92666667Y-77357143D01*
X92333334Y-80452381D02*
X92000000Y-79976190D01*
X91761905Y-80452381D02*
X91761905Y-79452381D01*
X92142858Y-79452381D01*
X92238096Y-79500000D01*
X92285715Y-79547619D01*
X92333334Y-79642857D01*
X92333334Y-79785714D01*
X92285715Y-79880952D01*
X92238096Y-79928571D01*
X92142858Y-79976190D01*
X91761905Y-79976190D01*
X93190477Y-79785714D02*
X93190477Y-80452381D01*
X92952381Y-79404762D02*
X92714286Y-80119048D01*
X93333334Y-80119048D01*
X92333334Y-65452381D02*
X92000000Y-64976190D01*
X91761905Y-65452381D02*
X91761905Y-64452381D01*
X92142858Y-64452381D01*
X92238096Y-64500000D01*
X92285715Y-64547619D01*
X92333334Y-64642857D01*
X92333334Y-64785714D01*
X92285715Y-64880952D01*
X92238096Y-64928571D01*
X92142858Y-64976190D01*
X91761905Y-64976190D01*
X93238096Y-64452381D02*
X92761905Y-64452381D01*
X92714286Y-64928571D01*
X92761905Y-64880952D01*
X92857143Y-64833333D01*
X93095239Y-64833333D01*
X93190477Y-64880952D01*
X93238096Y-64928571D01*
X93285715Y-65023810D01*
X93285715Y-65261905D01*
X93238096Y-65357143D01*
X93190477Y-65404762D01*
X93095239Y-65452381D01*
X92857143Y-65452381D01*
X92761905Y-65404762D01*
X92714286Y-65357143D01*
X92333334Y-71452381D02*
X92000000Y-70976190D01*
X91761905Y-71452381D02*
X91761905Y-70452381D01*
X92142858Y-70452381D01*
X92238096Y-70500000D01*
X92285715Y-70547619D01*
X92333334Y-70642857D01*
X92333334Y-70785714D01*
X92285715Y-70880952D01*
X92238096Y-70928571D01*
X92142858Y-70976190D01*
X91761905Y-70976190D01*
X93190477Y-70452381D02*
X93000000Y-70452381D01*
X92904762Y-70500000D01*
X92857143Y-70547619D01*
X92761905Y-70690476D01*
X92714286Y-70880952D01*
X92714286Y-71261905D01*
X92761905Y-71357143D01*
X92809524Y-71404762D01*
X92904762Y-71452381D01*
X93095239Y-71452381D01*
X93190477Y-71404762D01*
X93238096Y-71357143D01*
X93285715Y-71261905D01*
X93285715Y-71023810D01*
X93238096Y-70928571D01*
X93190477Y-70880952D01*
X93095239Y-70833333D01*
X92904762Y-70833333D01*
X92809524Y-70880952D01*
X92761905Y-70928571D01*
X92714286Y-71023810D01*
X92333334Y-74452381D02*
X92000000Y-73976190D01*
X91761905Y-74452381D02*
X91761905Y-73452381D01*
X92142858Y-73452381D01*
X92238096Y-73500000D01*
X92285715Y-73547619D01*
X92333334Y-73642857D01*
X92333334Y-73785714D01*
X92285715Y-73880952D01*
X92238096Y-73928571D01*
X92142858Y-73976190D01*
X91761905Y-73976190D01*
X92666667Y-73452381D02*
X93333334Y-73452381D01*
X92904762Y-74452381D01*
X80883334Y-74452381D02*
X80550000Y-73976190D01*
X80311905Y-74452381D02*
X80311905Y-73452381D01*
X80692858Y-73452381D01*
X80788096Y-73500000D01*
X80835715Y-73547619D01*
X80883334Y-73642857D01*
X80883334Y-73785714D01*
X80835715Y-73880952D01*
X80788096Y-73928571D01*
X80692858Y-73976190D01*
X80311905Y-73976190D01*
X81454762Y-73880952D02*
X81359524Y-73833333D01*
X81311905Y-73785714D01*
X81264286Y-73690476D01*
X81264286Y-73642857D01*
X81311905Y-73547619D01*
X81359524Y-73500000D01*
X81454762Y-73452381D01*
X81645239Y-73452381D01*
X81740477Y-73500000D01*
X81788096Y-73547619D01*
X81835715Y-73642857D01*
X81835715Y-73690476D01*
X81788096Y-73785714D01*
X81740477Y-73833333D01*
X81645239Y-73880952D01*
X81454762Y-73880952D01*
X81359524Y-73928571D01*
X81311905Y-73976190D01*
X81264286Y-74071429D01*
X81264286Y-74261905D01*
X81311905Y-74357143D01*
X81359524Y-74404762D01*
X81454762Y-74452381D01*
X81645239Y-74452381D01*
X81740477Y-74404762D01*
X81788096Y-74357143D01*
X81835715Y-74261905D01*
X81835715Y-74071429D01*
X81788096Y-73976190D01*
X81740477Y-73928571D01*
X81645239Y-73880952D01*
X80883334Y-77452381D02*
X80550000Y-76976190D01*
X80311905Y-77452381D02*
X80311905Y-76452381D01*
X80692858Y-76452381D01*
X80788096Y-76500000D01*
X80835715Y-76547619D01*
X80883334Y-76642857D01*
X80883334Y-76785714D01*
X80835715Y-76880952D01*
X80788096Y-76928571D01*
X80692858Y-76976190D01*
X80311905Y-76976190D01*
X81359524Y-77452381D02*
X81550000Y-77452381D01*
X81645239Y-77404762D01*
X81692858Y-77357143D01*
X81788096Y-77214286D01*
X81835715Y-77023810D01*
X81835715Y-76642857D01*
X81788096Y-76547619D01*
X81740477Y-76500000D01*
X81645239Y-76452381D01*
X81454762Y-76452381D01*
X81359524Y-76500000D01*
X81311905Y-76547619D01*
X81264286Y-76642857D01*
X81264286Y-76880952D01*
X81311905Y-76976190D01*
X81359524Y-77023810D01*
X81454762Y-77071429D01*
X81645239Y-77071429D01*
X81740477Y-77023810D01*
X81788096Y-76976190D01*
X81835715Y-76880952D01*
X76552381Y-61042857D02*
X76076190Y-61376191D01*
X76552381Y-61614286D02*
X75552381Y-61614286D01*
X75552381Y-61233333D01*
X75600000Y-61138095D01*
X75647619Y-61090476D01*
X75742857Y-61042857D01*
X75885714Y-61042857D01*
X75980952Y-61090476D01*
X76028571Y-61138095D01*
X76076190Y-61233333D01*
X76076190Y-61614286D01*
X76552381Y-60090476D02*
X76552381Y-60661905D01*
X76552381Y-60376191D02*
X75552381Y-60376191D01*
X75695238Y-60471429D01*
X75790476Y-60566667D01*
X75838095Y-60661905D01*
X75552381Y-59757143D02*
X75552381Y-59138095D01*
X75933333Y-59471429D01*
X75933333Y-59328571D01*
X75980952Y-59233333D01*
X76028571Y-59185714D01*
X76123810Y-59138095D01*
X76361905Y-59138095D01*
X76457143Y-59185714D01*
X76504762Y-59233333D01*
X76552381Y-59328571D01*
X76552381Y-59614286D01*
X76504762Y-59709524D01*
X76457143Y-59757143D01*
X66438255Y-73104762D02*
X66581112Y-73152381D01*
X66819208Y-73152381D01*
X66914446Y-73104762D01*
X66962065Y-73057143D01*
X67009684Y-72961905D01*
X67009684Y-72866667D01*
X66962065Y-72771429D01*
X66914446Y-72723810D01*
X66819208Y-72676190D01*
X66628731Y-72628571D01*
X66533493Y-72580952D01*
X66485874Y-72533333D01*
X66438255Y-72438095D01*
X66438255Y-72342857D01*
X66485874Y-72247619D01*
X66533493Y-72200000D01*
X66628731Y-72152381D01*
X66866827Y-72152381D01*
X67009684Y-72200000D01*
X67438255Y-73152381D02*
X67438255Y-72152381D01*
X67819208Y-72152381D01*
X67914446Y-72200000D01*
X67962065Y-72247619D01*
X68009684Y-72342857D01*
X68009684Y-72485714D01*
X67962065Y-72580952D01*
X67914446Y-72628571D01*
X67819208Y-72676190D01*
X67438255Y-72676190D01*
X68962065Y-73152381D02*
X68390636Y-73152381D01*
X68676350Y-73152381D02*
X68676350Y-72152381D01*
X68581112Y-72295238D01*
X68485874Y-72390476D01*
X68390636Y-72438095D01*
X63509208Y-67531429D02*
X64271113Y-67531429D01*
X63890161Y-67912381D02*
X63890161Y-67150476D01*
X65761905Y-106002381D02*
X65761905Y-105002381D01*
X66142858Y-105002381D01*
X66238096Y-105050000D01*
X66285715Y-105097619D01*
X66333334Y-105192857D01*
X66333334Y-105335714D01*
X66285715Y-105430952D01*
X66238096Y-105478571D01*
X66142858Y-105526190D01*
X65761905Y-105526190D01*
X66666667Y-105002381D02*
X67285715Y-105002381D01*
X66952381Y-105383333D01*
X67095239Y-105383333D01*
X67190477Y-105430952D01*
X67238096Y-105478571D01*
X67285715Y-105573810D01*
X67285715Y-105811905D01*
X67238096Y-105907143D01*
X67190477Y-105954762D01*
X67095239Y-106002381D01*
X66809524Y-106002381D01*
X66714286Y-105954762D01*
X66666667Y-105907143D01*
X59552381Y-88461905D02*
X60361905Y-88461905D01*
X60457143Y-88414286D01*
X60504762Y-88366667D01*
X60552381Y-88271429D01*
X60552381Y-88080952D01*
X60504762Y-87985714D01*
X60457143Y-87938095D01*
X60361905Y-87890476D01*
X59552381Y-87890476D01*
X59647619Y-87461905D02*
X59600000Y-87414286D01*
X59552381Y-87319048D01*
X59552381Y-87080952D01*
X59600000Y-86985714D01*
X59647619Y-86938095D01*
X59742857Y-86890476D01*
X59838095Y-86890476D01*
X59980952Y-86938095D01*
X60552381Y-87509524D01*
X60552381Y-86890476D01*
M02*
