G04 #@! TF.FileFunction,Copper,L1,Top,Signal*
%FSLAX46Y46*%
G04 Gerber Fmt 4.6, Leading zero omitted, Abs format (unit mm)*
G04 Created by KiCad (PCBNEW 4.0.7-e2-6376~60~ubuntu17.10.1) date Wed Apr  4 01:09:11 2018*
%MOMM*%
%LPD*%
G01*
G04 APERTURE LIST*
%ADD10C,0.100000*%
%ADD11C,1.700000*%
%ADD12R,1.800860X2.499360*%
%ADD13R,0.800100X0.800100*%
%ADD14R,1.800000X3.600000*%
%ADD15O,1.800000X3.600000*%
%ADD16R,1.000000X1.250000*%
%ADD17R,0.600000X0.700000*%
%ADD18R,2.032000X1.727200*%
%ADD19O,2.032000X1.727200*%
%ADD20R,2.032000X2.032000*%
%ADD21O,2.032000X2.032000*%
%ADD22R,0.900000X0.500000*%
%ADD23R,0.500000X0.900000*%
%ADD24C,2.000000*%
%ADD25R,2.100000X3.600000*%
%ADD26O,2.100000X3.600000*%
%ADD27C,2.600000*%
%ADD28C,0.609600*%
%ADD29C,0.508000*%
%ADD30C,0.254000*%
G04 APERTURE END LIST*
D10*
D11*
X78540000Y-58890000D03*
X78540000Y-61430000D03*
X78540000Y-63970000D03*
X78540000Y-66510000D03*
X78540000Y-69050000D03*
X78540000Y-71590000D03*
X78540000Y-74130000D03*
X78540000Y-76670000D03*
X101400000Y-76670000D03*
X101400000Y-74130000D03*
X101400000Y-71590000D03*
X101400000Y-69050000D03*
X101400000Y-66510000D03*
X101400000Y-63970000D03*
X101400000Y-61430000D03*
X101400000Y-58890000D03*
D12*
X74500000Y-77900000D03*
X74500000Y-81897960D03*
D13*
X81000760Y-89950000D03*
X81000760Y-88050000D03*
X79001780Y-89000000D03*
D14*
X83400000Y-101550000D03*
D15*
X86900000Y-101550000D03*
X90400000Y-101550000D03*
X93900000Y-101550000D03*
X97400000Y-101550000D03*
X100900000Y-101550000D03*
X104400000Y-101550000D03*
X107900000Y-101550000D03*
D16*
X88400000Y-67900000D03*
X90400000Y-67900000D03*
D17*
X90100000Y-61900000D03*
X88700000Y-61900000D03*
D18*
X107950000Y-88900000D03*
D19*
X107950000Y-86360000D03*
X107950000Y-83820000D03*
X107950000Y-81280000D03*
D18*
X105410000Y-88900000D03*
D19*
X105410000Y-86360000D03*
X105410000Y-83820000D03*
X105410000Y-81280000D03*
X105410000Y-78740000D03*
D20*
X107950000Y-71120000D03*
D21*
X107950000Y-68580000D03*
D13*
X71500760Y-61450000D03*
X71500760Y-59550000D03*
X69501780Y-60500000D03*
D22*
X84000000Y-89750000D03*
X84000000Y-88250000D03*
D23*
X88650000Y-76900000D03*
X90150000Y-76900000D03*
X88650000Y-79900000D03*
X90150000Y-79900000D03*
X90150000Y-64900000D03*
X88650000Y-64900000D03*
X90150000Y-70900000D03*
X88650000Y-70900000D03*
X88650000Y-73900000D03*
X90150000Y-73900000D03*
X82750000Y-74000000D03*
X84250000Y-74000000D03*
X82750000Y-77000000D03*
X84250000Y-77000000D03*
D22*
X74500000Y-61250000D03*
X74500000Y-59750000D03*
D24*
X63900320Y-70000000D03*
X71500000Y-70000000D03*
D25*
X64050000Y-99550000D03*
D26*
X69050000Y-99550000D03*
D27*
X62650000Y-79850000D03*
X70250000Y-79850000D03*
X70250000Y-95090000D03*
X62650000Y-92550000D03*
D28*
X78500000Y-80500000D03*
X75500000Y-59000000D03*
X81000000Y-84500000D03*
X91200000Y-66500000D03*
X91250000Y-71750000D03*
X82500000Y-72500000D03*
X83500000Y-80000000D03*
X101250000Y-82750000D03*
X85000000Y-80000000D03*
X101250000Y-81500000D03*
D29*
X78500000Y-80491570D02*
X78500000Y-80500000D01*
X75908430Y-77900000D02*
X78500000Y-80491570D01*
X74500000Y-77900000D02*
X75908430Y-77900000D01*
X101400000Y-76670000D02*
X99800000Y-78270000D01*
X99800000Y-78270000D02*
X99800000Y-84200000D01*
X74500000Y-77900000D02*
X72200000Y-77900000D01*
X72200000Y-77900000D02*
X70250000Y-79850000D01*
X99800000Y-84200000D02*
X103200000Y-87600000D01*
X105410000Y-86360000D02*
X104240000Y-86360000D01*
X103200000Y-96850000D02*
X107900000Y-101550000D01*
X103200000Y-87400000D02*
X103200000Y-87600000D01*
X103200000Y-87600000D02*
X103200000Y-96850000D01*
X104240000Y-86360000D02*
X103200000Y-87400000D01*
X105410000Y-86360000D02*
X107950000Y-86360000D01*
X70250000Y-79850000D02*
X63900320Y-73500320D01*
X63900320Y-73500320D02*
X63900320Y-70000000D01*
X75250000Y-59000000D02*
X74500000Y-59750000D01*
X75500000Y-59000000D02*
X75250000Y-59000000D01*
X81000760Y-88050000D02*
X81000760Y-84500760D01*
X81000760Y-84500760D02*
X81000000Y-84500000D01*
D30*
X81000760Y-88050000D02*
X81200760Y-88250000D01*
X81200760Y-88250000D02*
X84000000Y-88250000D01*
X91200000Y-63000000D02*
X91200000Y-66500000D01*
X91200000Y-66500000D02*
X91200000Y-67100000D01*
X74500000Y-59750000D02*
X71700760Y-59750000D01*
X71700760Y-59750000D02*
X71500760Y-59550000D01*
X90100000Y-61900000D02*
X91200000Y-63000000D01*
X91200000Y-67100000D02*
X90400000Y-67900000D01*
X90400000Y-67900000D02*
X89400000Y-68900000D01*
X89400000Y-73150000D02*
X90150000Y-73900000D01*
X89400000Y-68900000D02*
X89400000Y-73150000D01*
X81350000Y-75400000D02*
X80080000Y-76670000D01*
X80080000Y-76670000D02*
X78540000Y-76670000D01*
X91250000Y-71750000D02*
X91250000Y-71250000D01*
X91250000Y-71250000D02*
X90900000Y-70900000D01*
X90900000Y-70900000D02*
X90150000Y-70900000D01*
X82750000Y-74000000D02*
X82750000Y-72750000D01*
X82750000Y-72750000D02*
X82500000Y-72500000D01*
X81350000Y-75400000D02*
X82750000Y-74000000D01*
X81350000Y-75400000D02*
X82750000Y-76800000D01*
X82750000Y-76800000D02*
X82750000Y-77000000D01*
D29*
X74500000Y-81897960D02*
X75897960Y-81897960D01*
X79001780Y-85001780D02*
X79001780Y-89000000D01*
X75897960Y-81897960D02*
X79001780Y-85001780D01*
X74500000Y-81897960D02*
X73897960Y-82500000D01*
X65300000Y-82500000D02*
X62650000Y-79850000D01*
X73897960Y-82500000D02*
X65300000Y-82500000D01*
D30*
X78540000Y-61430000D02*
X88230000Y-61430000D01*
X88230000Y-61430000D02*
X88700000Y-61900000D01*
X88700000Y-61900000D02*
X88700000Y-62600000D01*
X90150000Y-64050000D02*
X90150000Y-64900000D01*
X88700000Y-62600000D02*
X90150000Y-64050000D01*
X105410000Y-83820000D02*
X107950000Y-83820000D01*
X83090000Y-71590000D02*
X83500000Y-72000000D01*
X78540000Y-71590000D02*
X83090000Y-71590000D01*
X83500000Y-80000000D02*
X83500000Y-77000000D01*
X83500000Y-77000000D02*
X83500000Y-72000000D01*
X84250000Y-77000000D02*
X83746000Y-77000000D01*
X83746000Y-77000000D02*
X83500000Y-77000000D01*
X105410000Y-83820000D02*
X102320000Y-83820000D01*
X102320000Y-83820000D02*
X101250000Y-82750000D01*
X105410000Y-81280000D02*
X107950000Y-81280000D01*
X78540000Y-69050000D02*
X82800000Y-69050000D01*
X82800000Y-69050000D02*
X85000000Y-71250000D01*
X85000000Y-80000000D02*
X85000000Y-74000000D01*
X85000000Y-74000000D02*
X85000000Y-71250000D01*
X84250000Y-74000000D02*
X84754000Y-74000000D01*
X84754000Y-74000000D02*
X85000000Y-74000000D01*
X105410000Y-81280000D02*
X101470000Y-81280000D01*
X101470000Y-81280000D02*
X101250000Y-81500000D01*
X105410000Y-72910000D02*
X104090000Y-71590000D01*
X104090000Y-71590000D02*
X101400000Y-71590000D01*
X105410000Y-78740000D02*
X105410000Y-72910000D01*
X107950000Y-68580000D02*
X107530000Y-69000000D01*
X107530000Y-69000000D02*
X101450000Y-69000000D01*
X101450000Y-69000000D02*
X101400000Y-69050000D01*
X81000760Y-89950000D02*
X80346710Y-89950000D01*
X80346710Y-89950000D02*
X80000000Y-89603290D01*
X80000000Y-89603290D02*
X80000000Y-80500000D01*
X80000000Y-80500000D02*
X76000000Y-76500000D01*
X76000000Y-76500000D02*
X76000000Y-67847919D01*
X76000000Y-67847919D02*
X77337919Y-66510000D01*
X77337919Y-66510000D02*
X78540000Y-66510000D01*
X81000760Y-89950000D02*
X81200760Y-89750000D01*
X81200760Y-89750000D02*
X84000000Y-89750000D01*
X77949119Y-67818999D02*
X77000000Y-68768118D01*
X78024999Y-65278999D02*
X79130881Y-65278999D01*
X79771001Y-67100881D02*
X79052883Y-67818999D01*
X77000000Y-72590000D02*
X77690001Y-73280001D01*
X79771001Y-65919119D02*
X79771001Y-67100881D01*
X74500000Y-61250000D02*
X74500000Y-61754000D01*
X74500000Y-61754000D02*
X78024999Y-65278999D01*
X79130881Y-65278999D02*
X79771001Y-65919119D01*
X77690001Y-73280001D02*
X78540000Y-74130000D01*
X79052883Y-67818999D02*
X77949119Y-67818999D01*
X77000000Y-68768118D02*
X77000000Y-72590000D01*
X74500000Y-61250000D02*
X71700760Y-61250000D01*
X71700760Y-61250000D02*
X71500760Y-61450000D01*
D29*
X71500000Y-70000000D02*
X69501780Y-68001780D01*
X69501780Y-68001780D02*
X69501780Y-60500000D01*
D30*
X101400000Y-66510000D02*
X95768118Y-66510000D01*
X95768118Y-66510000D02*
X93900000Y-68378118D01*
X93900000Y-68378118D02*
X93900000Y-99496000D01*
X93900000Y-99496000D02*
X93900000Y-101550000D01*
X100900000Y-101550000D02*
X100900000Y-100650000D01*
X100900000Y-100650000D02*
X95250000Y-95000000D01*
X95250000Y-95000000D02*
X95250000Y-68850000D01*
X95250000Y-68850000D02*
X96358999Y-67741001D01*
X96358999Y-67741001D02*
X102258999Y-67741001D01*
X102258999Y-67741001D02*
X103000000Y-67000000D01*
X103000000Y-67000000D02*
X103000000Y-65570000D01*
X103000000Y-65570000D02*
X102249999Y-64819999D01*
X102249999Y-64819999D02*
X101400000Y-63970000D01*
X90150000Y-79900000D02*
X90150000Y-94850000D01*
X86900000Y-98100000D02*
X86900000Y-101550000D01*
X90150000Y-94850000D02*
X86900000Y-98100000D01*
X88650000Y-70900000D02*
X88650000Y-73900000D01*
X88650000Y-73900000D02*
X88650000Y-74750000D01*
X88650000Y-74750000D02*
X90150000Y-76250000D01*
X90150000Y-76250000D02*
X90150000Y-76900000D01*
X88650000Y-70900000D02*
X88650000Y-68150000D01*
X88650000Y-68150000D02*
X88400000Y-67900000D01*
X90150000Y-79900000D02*
X90150000Y-76900000D01*
X86900000Y-101050000D02*
X86900000Y-101550000D01*
X88650000Y-79900000D02*
X88650000Y-94350000D01*
X83400000Y-99600000D02*
X83400000Y-101550000D01*
X88650000Y-94350000D02*
X83400000Y-99600000D01*
X88650000Y-79900000D02*
X88650000Y-76900000D01*
X88650000Y-76900000D02*
X87300000Y-75550000D01*
X87300000Y-75550000D02*
X87300000Y-66250000D01*
X87300000Y-66250000D02*
X88650000Y-64900000D01*
M02*
