G04 #@! TF.FileFunction,Legend,Bot*
%FSLAX46Y46*%
G04 Gerber Fmt 4.6, Leading zero omitted, Abs format (unit mm)*
G04 Created by KiCad (PCBNEW 4.0.4-stable) date Sunday, 30 October 2016 'PMt' 23:49:13*
%MOMM*%
%LPD*%
G01*
G04 APERTURE LIST*
%ADD10C,0.100000*%
%ADD11C,0.300000*%
G04 APERTURE END LIST*
D10*
D11*
X95878572Y-59103571D02*
X95307143Y-59103571D01*
X95664286Y-58603571D02*
X95664286Y-59889286D01*
X95592858Y-60032143D01*
X95450000Y-60103571D01*
X95307143Y-60103571D01*
X94807143Y-60103571D02*
X94807143Y-59103571D01*
X94807143Y-58603571D02*
X94878572Y-58675000D01*
X94807143Y-58746429D01*
X94735715Y-58675000D01*
X94807143Y-58603571D01*
X94807143Y-58746429D01*
X94092857Y-60103571D02*
X94092857Y-59103571D01*
X94092857Y-59246429D02*
X94021429Y-59175000D01*
X93878571Y-59103571D01*
X93664286Y-59103571D01*
X93521429Y-59175000D01*
X93450000Y-59317857D01*
X93450000Y-60103571D01*
X93450000Y-59317857D02*
X93378571Y-59175000D01*
X93235714Y-59103571D01*
X93021429Y-59103571D01*
X92878571Y-59175000D01*
X92807143Y-59317857D01*
X92807143Y-60103571D01*
X92092857Y-60103571D02*
X92092857Y-58603571D01*
X91450000Y-60103571D02*
X91450000Y-59317857D01*
X91521429Y-59175000D01*
X91664286Y-59103571D01*
X91878571Y-59103571D01*
X92021429Y-59175000D01*
X92092857Y-59246429D01*
X90092857Y-60103571D02*
X90092857Y-59317857D01*
X90164286Y-59175000D01*
X90307143Y-59103571D01*
X90592857Y-59103571D01*
X90735714Y-59175000D01*
X90092857Y-60032143D02*
X90235714Y-60103571D01*
X90592857Y-60103571D01*
X90735714Y-60032143D01*
X90807143Y-59889286D01*
X90807143Y-59746429D01*
X90735714Y-59603571D01*
X90592857Y-59532143D01*
X90235714Y-59532143D01*
X90092857Y-59460714D01*
X89521428Y-59103571D02*
X89235714Y-60103571D01*
X88950000Y-59389286D01*
X88664285Y-60103571D01*
X88378571Y-59103571D01*
X87235714Y-60032143D02*
X87378571Y-60103571D01*
X87664285Y-60103571D01*
X87807142Y-60032143D01*
X87878571Y-59889286D01*
X87878571Y-59317857D01*
X87807142Y-59175000D01*
X87664285Y-59103571D01*
X87378571Y-59103571D01*
X87235714Y-59175000D01*
X87164285Y-59317857D01*
X87164285Y-59460714D01*
X87878571Y-59603571D01*
X86592857Y-60032143D02*
X86450000Y-60103571D01*
X86164285Y-60103571D01*
X86021428Y-60032143D01*
X85950000Y-59889286D01*
X85950000Y-59817857D01*
X86021428Y-59675000D01*
X86164285Y-59603571D01*
X86378571Y-59603571D01*
X86521428Y-59532143D01*
X86592857Y-59389286D01*
X86592857Y-59317857D01*
X86521428Y-59175000D01*
X86378571Y-59103571D01*
X86164285Y-59103571D01*
X86021428Y-59175000D01*
X85307142Y-59960714D02*
X85235714Y-60032143D01*
X85307142Y-60103571D01*
X85378571Y-60032143D01*
X85307142Y-59960714D01*
X85307142Y-60103571D01*
X83949999Y-60032143D02*
X84092856Y-60103571D01*
X84378570Y-60103571D01*
X84521428Y-60032143D01*
X84592856Y-59960714D01*
X84664285Y-59817857D01*
X84664285Y-59389286D01*
X84592856Y-59246429D01*
X84521428Y-59175000D01*
X84378570Y-59103571D01*
X84092856Y-59103571D01*
X83949999Y-59175000D01*
X83092856Y-60103571D02*
X83235714Y-60032143D01*
X83307142Y-59960714D01*
X83378571Y-59817857D01*
X83378571Y-59389286D01*
X83307142Y-59246429D01*
X83235714Y-59175000D01*
X83092856Y-59103571D01*
X82878571Y-59103571D01*
X82735714Y-59175000D01*
X82664285Y-59246429D01*
X82592856Y-59389286D01*
X82592856Y-59817857D01*
X82664285Y-59960714D01*
X82735714Y-60032143D01*
X82878571Y-60103571D01*
X83092856Y-60103571D01*
X81949999Y-60103571D02*
X81949999Y-59103571D01*
X81949999Y-59246429D02*
X81878571Y-59175000D01*
X81735713Y-59103571D01*
X81521428Y-59103571D01*
X81378571Y-59175000D01*
X81307142Y-59317857D01*
X81307142Y-60103571D01*
X81307142Y-59317857D02*
X81235713Y-59175000D01*
X81092856Y-59103571D01*
X80878571Y-59103571D01*
X80735713Y-59175000D01*
X80664285Y-59317857D01*
X80664285Y-60103571D01*
X78878571Y-58532143D02*
X80164285Y-60460714D01*
X78449999Y-60032143D02*
X78307142Y-60103571D01*
X78021427Y-60103571D01*
X77878570Y-60032143D01*
X77807142Y-59889286D01*
X77807142Y-59817857D01*
X77878570Y-59675000D01*
X78021427Y-59603571D01*
X78235713Y-59603571D01*
X78378570Y-59532143D01*
X78449999Y-59389286D01*
X78449999Y-59317857D01*
X78378570Y-59175000D01*
X78235713Y-59103571D01*
X78021427Y-59103571D01*
X77878570Y-59175000D01*
X77235713Y-60032143D02*
X77092856Y-60103571D01*
X76807141Y-60103571D01*
X76664284Y-60032143D01*
X76592856Y-59889286D01*
X76592856Y-59817857D01*
X76664284Y-59675000D01*
X76807141Y-59603571D01*
X77021427Y-59603571D01*
X77164284Y-59532143D01*
X77235713Y-59389286D01*
X77235713Y-59317857D01*
X77164284Y-59175000D01*
X77021427Y-59103571D01*
X76807141Y-59103571D01*
X76664284Y-59175000D01*
X75164284Y-60103571D02*
X76021427Y-60103571D01*
X75592855Y-60103571D02*
X75592855Y-58603571D01*
X75735712Y-58817857D01*
X75878570Y-58960714D01*
X76021427Y-59032143D01*
X97092858Y-62582143D02*
X97235715Y-62653571D01*
X97521429Y-62653571D01*
X97664286Y-62582143D01*
X97735715Y-62439286D01*
X97735715Y-61867857D01*
X97664286Y-61725000D01*
X97521429Y-61653571D01*
X97235715Y-61653571D01*
X97092858Y-61725000D01*
X97021429Y-61867857D01*
X97021429Y-62010714D01*
X97735715Y-62153571D01*
X95735715Y-62653571D02*
X95735715Y-61153571D01*
X95735715Y-62582143D02*
X95878572Y-62653571D01*
X96164286Y-62653571D01*
X96307144Y-62582143D01*
X96378572Y-62510714D01*
X96450001Y-62367857D01*
X96450001Y-61939286D01*
X96378572Y-61796429D01*
X96307144Y-61725000D01*
X96164286Y-61653571D01*
X95878572Y-61653571D01*
X95735715Y-61725000D01*
X95021429Y-62653571D02*
X95021429Y-61653571D01*
X95021429Y-61153571D02*
X95092858Y-61225000D01*
X95021429Y-61296429D01*
X94950001Y-61225000D01*
X95021429Y-61153571D01*
X95021429Y-61296429D01*
X94307143Y-61653571D02*
X94307143Y-62653571D01*
X94307143Y-61796429D02*
X94235715Y-61725000D01*
X94092857Y-61653571D01*
X93878572Y-61653571D01*
X93735715Y-61725000D01*
X93664286Y-61867857D01*
X93664286Y-62653571D01*
X92950000Y-62653571D02*
X92950000Y-61153571D01*
X92950000Y-61725000D02*
X92807143Y-61653571D01*
X92521429Y-61653571D01*
X92378572Y-61725000D01*
X92307143Y-61796429D01*
X92235714Y-61939286D01*
X92235714Y-62367857D01*
X92307143Y-62510714D01*
X92378572Y-62582143D01*
X92521429Y-62653571D01*
X92807143Y-62653571D01*
X92950000Y-62582143D01*
X90950000Y-61653571D02*
X90950000Y-62653571D01*
X91592857Y-61653571D02*
X91592857Y-62439286D01*
X91521429Y-62582143D01*
X91378571Y-62653571D01*
X91164286Y-62653571D01*
X91021429Y-62582143D01*
X90950000Y-62510714D01*
X90235714Y-62653571D02*
X90235714Y-61653571D01*
X90235714Y-61939286D02*
X90164286Y-61796429D01*
X90092857Y-61725000D01*
X89950000Y-61653571D01*
X89807143Y-61653571D01*
X88664286Y-61653571D02*
X88664286Y-62867857D01*
X88735715Y-63010714D01*
X88807143Y-63082143D01*
X88950000Y-63153571D01*
X89164286Y-63153571D01*
X89307143Y-63082143D01*
X88664286Y-62582143D02*
X88807143Y-62653571D01*
X89092857Y-62653571D01*
X89235715Y-62582143D01*
X89307143Y-62510714D01*
X89378572Y-62367857D01*
X89378572Y-61939286D01*
X89307143Y-61796429D01*
X89235715Y-61725000D01*
X89092857Y-61653571D01*
X88807143Y-61653571D01*
X88664286Y-61725000D01*
X87950000Y-62653571D02*
X87950000Y-61153571D01*
X87307143Y-62653571D02*
X87307143Y-61867857D01*
X87378572Y-61725000D01*
X87521429Y-61653571D01*
X87735714Y-61653571D01*
X87878572Y-61725000D01*
X87950000Y-61796429D01*
X86592857Y-62653571D02*
X86592857Y-61153571D01*
X85950000Y-62653571D02*
X85950000Y-61867857D01*
X86021429Y-61725000D01*
X86164286Y-61653571D01*
X86378571Y-61653571D01*
X86521429Y-61725000D01*
X86592857Y-61796429D01*
X84592857Y-62653571D02*
X84592857Y-61867857D01*
X84664286Y-61725000D01*
X84807143Y-61653571D01*
X85092857Y-61653571D01*
X85235714Y-61725000D01*
X84592857Y-62582143D02*
X84735714Y-62653571D01*
X85092857Y-62653571D01*
X85235714Y-62582143D01*
X85307143Y-62439286D01*
X85307143Y-62296429D01*
X85235714Y-62153571D01*
X85092857Y-62082143D01*
X84735714Y-62082143D01*
X84592857Y-62010714D01*
X83235714Y-62582143D02*
X83378571Y-62653571D01*
X83664285Y-62653571D01*
X83807143Y-62582143D01*
X83878571Y-62510714D01*
X83950000Y-62367857D01*
X83950000Y-61939286D01*
X83878571Y-61796429D01*
X83807143Y-61725000D01*
X83664285Y-61653571D01*
X83378571Y-61653571D01*
X83235714Y-61725000D01*
X82592857Y-62653571D02*
X82592857Y-61153571D01*
X82450000Y-62082143D02*
X82021429Y-62653571D01*
X82021429Y-61653571D02*
X82592857Y-62225000D01*
X81164285Y-62653571D02*
X81307143Y-62582143D01*
X81378571Y-62439286D01*
X81378571Y-61153571D01*
X79950000Y-62653571D02*
X79950000Y-61867857D01*
X80021429Y-61725000D01*
X80164286Y-61653571D01*
X80450000Y-61653571D01*
X80592857Y-61725000D01*
X79950000Y-62582143D02*
X80092857Y-62653571D01*
X80450000Y-62653571D01*
X80592857Y-62582143D01*
X80664286Y-62439286D01*
X80664286Y-62296429D01*
X80592857Y-62153571D01*
X80450000Y-62082143D01*
X80092857Y-62082143D01*
X79950000Y-62010714D01*
X79235714Y-62653571D02*
X79235714Y-61153571D01*
X79235714Y-61725000D02*
X79092857Y-61653571D01*
X78807143Y-61653571D01*
X78664286Y-61725000D01*
X78592857Y-61796429D01*
X78521428Y-61939286D01*
X78521428Y-62367857D01*
X78592857Y-62510714D01*
X78664286Y-62582143D01*
X78807143Y-62653571D01*
X79092857Y-62653571D01*
X79235714Y-62582143D01*
X77878571Y-62510714D02*
X77807143Y-62582143D01*
X77878571Y-62653571D01*
X77950000Y-62582143D01*
X77878571Y-62510714D01*
X77878571Y-62653571D01*
X76521428Y-62582143D02*
X76664285Y-62653571D01*
X76949999Y-62653571D01*
X77092857Y-62582143D01*
X77164285Y-62510714D01*
X77235714Y-62367857D01*
X77235714Y-61939286D01*
X77164285Y-61796429D01*
X77092857Y-61725000D01*
X76949999Y-61653571D01*
X76664285Y-61653571D01*
X76521428Y-61725000D01*
X75664285Y-62653571D02*
X75807143Y-62582143D01*
X75878571Y-62510714D01*
X75950000Y-62367857D01*
X75950000Y-61939286D01*
X75878571Y-61796429D01*
X75807143Y-61725000D01*
X75664285Y-61653571D01*
X75450000Y-61653571D01*
X75307143Y-61725000D01*
X75235714Y-61796429D01*
X75164285Y-61939286D01*
X75164285Y-62367857D01*
X75235714Y-62510714D01*
X75307143Y-62582143D01*
X75450000Y-62653571D01*
X75664285Y-62653571D01*
X74521428Y-62653571D02*
X74521428Y-61653571D01*
X74521428Y-61796429D02*
X74450000Y-61725000D01*
X74307142Y-61653571D01*
X74092857Y-61653571D01*
X73950000Y-61725000D01*
X73878571Y-61867857D01*
X73878571Y-62653571D01*
X73878571Y-61867857D02*
X73807142Y-61725000D01*
X73664285Y-61653571D01*
X73450000Y-61653571D01*
X73307142Y-61725000D01*
X73235714Y-61867857D01*
X73235714Y-62653571D01*
M02*
