G04 #@! TF.FileFunction,Soldermask,Top*
%FSLAX46Y46*%
G04 Gerber Fmt 4.6, Leading zero omitted, Abs format (unit mm)*
G04 Created by KiCad (PCBNEW 4.0.7-e2-6376~60~ubuntu17.10.1) date Wed Apr  4 01:09:11 2018*
%MOMM*%
%LPD*%
G01*
G04 APERTURE LIST*
%ADD10C,0.100000*%
G04 APERTURE END LIST*
D10*
G36*
X87107062Y-99631693D02*
X87107067Y-99631694D01*
X87107110Y-99631699D01*
X87299141Y-99691143D01*
X87475969Y-99786753D01*
X87630858Y-99914889D01*
X87757909Y-100070669D01*
X87852282Y-100248160D01*
X87910384Y-100440601D01*
X87930000Y-100640662D01*
X87930000Y-102459338D01*
X87929900Y-102473719D01*
X87907492Y-102673487D01*
X87846709Y-102865098D01*
X87749867Y-103041254D01*
X87620653Y-103195245D01*
X87463990Y-103321205D01*
X87285845Y-103414337D01*
X87093003Y-103471094D01*
X87092969Y-103471097D01*
X87092956Y-103471101D01*
X86892812Y-103489316D01*
X86692938Y-103468307D01*
X86692933Y-103468306D01*
X86692890Y-103468301D01*
X86500859Y-103408857D01*
X86324031Y-103313247D01*
X86169142Y-103185111D01*
X86042091Y-103029331D01*
X85947718Y-102851840D01*
X85889616Y-102659399D01*
X85870000Y-102459338D01*
X85870000Y-100640662D01*
X85870100Y-100626281D01*
X85892508Y-100426513D01*
X85953291Y-100234902D01*
X86050133Y-100058746D01*
X86179347Y-99904755D01*
X86336010Y-99778795D01*
X86514155Y-99685663D01*
X86706997Y-99628906D01*
X86707031Y-99628903D01*
X86707044Y-99628899D01*
X86907188Y-99610684D01*
X87107062Y-99631693D01*
X87107062Y-99631693D01*
G37*
G36*
X90607062Y-99631693D02*
X90607067Y-99631694D01*
X90607110Y-99631699D01*
X90799141Y-99691143D01*
X90975969Y-99786753D01*
X91130858Y-99914889D01*
X91257909Y-100070669D01*
X91352282Y-100248160D01*
X91410384Y-100440601D01*
X91430000Y-100640662D01*
X91430000Y-102459338D01*
X91429900Y-102473719D01*
X91407492Y-102673487D01*
X91346709Y-102865098D01*
X91249867Y-103041254D01*
X91120653Y-103195245D01*
X90963990Y-103321205D01*
X90785845Y-103414337D01*
X90593003Y-103471094D01*
X90592969Y-103471097D01*
X90592956Y-103471101D01*
X90392812Y-103489316D01*
X90192938Y-103468307D01*
X90192933Y-103468306D01*
X90192890Y-103468301D01*
X90000859Y-103408857D01*
X89824031Y-103313247D01*
X89669142Y-103185111D01*
X89542091Y-103029331D01*
X89447718Y-102851840D01*
X89389616Y-102659399D01*
X89370000Y-102459338D01*
X89370000Y-100640662D01*
X89370100Y-100626281D01*
X89392508Y-100426513D01*
X89453291Y-100234902D01*
X89550133Y-100058746D01*
X89679347Y-99904755D01*
X89836010Y-99778795D01*
X90014155Y-99685663D01*
X90206997Y-99628906D01*
X90207031Y-99628903D01*
X90207044Y-99628899D01*
X90407188Y-99610684D01*
X90607062Y-99631693D01*
X90607062Y-99631693D01*
G37*
G36*
X101107062Y-99631693D02*
X101107067Y-99631694D01*
X101107110Y-99631699D01*
X101299141Y-99691143D01*
X101475969Y-99786753D01*
X101630858Y-99914889D01*
X101757909Y-100070669D01*
X101852282Y-100248160D01*
X101910384Y-100440601D01*
X101930000Y-100640662D01*
X101930000Y-102459338D01*
X101929900Y-102473719D01*
X101907492Y-102673487D01*
X101846709Y-102865098D01*
X101749867Y-103041254D01*
X101620653Y-103195245D01*
X101463990Y-103321205D01*
X101285845Y-103414337D01*
X101093003Y-103471094D01*
X101092969Y-103471097D01*
X101092956Y-103471101D01*
X100892812Y-103489316D01*
X100692938Y-103468307D01*
X100692933Y-103468306D01*
X100692890Y-103468301D01*
X100500859Y-103408857D01*
X100324031Y-103313247D01*
X100169142Y-103185111D01*
X100042091Y-103029331D01*
X99947718Y-102851840D01*
X99889616Y-102659399D01*
X99870000Y-102459338D01*
X99870000Y-100640662D01*
X99870100Y-100626281D01*
X99892508Y-100426513D01*
X99953291Y-100234902D01*
X100050133Y-100058746D01*
X100179347Y-99904755D01*
X100336010Y-99778795D01*
X100514155Y-99685663D01*
X100706997Y-99628906D01*
X100707031Y-99628903D01*
X100707044Y-99628899D01*
X100907188Y-99610684D01*
X101107062Y-99631693D01*
X101107062Y-99631693D01*
G37*
G36*
X94107062Y-99631693D02*
X94107067Y-99631694D01*
X94107110Y-99631699D01*
X94299141Y-99691143D01*
X94475969Y-99786753D01*
X94630858Y-99914889D01*
X94757909Y-100070669D01*
X94852282Y-100248160D01*
X94910384Y-100440601D01*
X94930000Y-100640662D01*
X94930000Y-102459338D01*
X94929900Y-102473719D01*
X94907492Y-102673487D01*
X94846709Y-102865098D01*
X94749867Y-103041254D01*
X94620653Y-103195245D01*
X94463990Y-103321205D01*
X94285845Y-103414337D01*
X94093003Y-103471094D01*
X94092969Y-103471097D01*
X94092956Y-103471101D01*
X93892812Y-103489316D01*
X93692938Y-103468307D01*
X93692933Y-103468306D01*
X93692890Y-103468301D01*
X93500859Y-103408857D01*
X93324031Y-103313247D01*
X93169142Y-103185111D01*
X93042091Y-103029331D01*
X92947718Y-102851840D01*
X92889616Y-102659399D01*
X92870000Y-102459338D01*
X92870000Y-100640662D01*
X92870100Y-100626281D01*
X92892508Y-100426513D01*
X92953291Y-100234902D01*
X93050133Y-100058746D01*
X93179347Y-99904755D01*
X93336010Y-99778795D01*
X93514155Y-99685663D01*
X93706997Y-99628906D01*
X93707031Y-99628903D01*
X93707044Y-99628899D01*
X93907188Y-99610684D01*
X94107062Y-99631693D01*
X94107062Y-99631693D01*
G37*
G36*
X104607062Y-99631693D02*
X104607067Y-99631694D01*
X104607110Y-99631699D01*
X104799141Y-99691143D01*
X104975969Y-99786753D01*
X105130858Y-99914889D01*
X105257909Y-100070669D01*
X105352282Y-100248160D01*
X105410384Y-100440601D01*
X105430000Y-100640662D01*
X105430000Y-102459338D01*
X105429900Y-102473719D01*
X105407492Y-102673487D01*
X105346709Y-102865098D01*
X105249867Y-103041254D01*
X105120653Y-103195245D01*
X104963990Y-103321205D01*
X104785845Y-103414337D01*
X104593003Y-103471094D01*
X104592969Y-103471097D01*
X104592956Y-103471101D01*
X104392812Y-103489316D01*
X104192938Y-103468307D01*
X104192933Y-103468306D01*
X104192890Y-103468301D01*
X104000859Y-103408857D01*
X103824031Y-103313247D01*
X103669142Y-103185111D01*
X103542091Y-103029331D01*
X103447718Y-102851840D01*
X103389616Y-102659399D01*
X103370000Y-102459338D01*
X103370000Y-100640662D01*
X103370100Y-100626281D01*
X103392508Y-100426513D01*
X103453291Y-100234902D01*
X103550133Y-100058746D01*
X103679347Y-99904755D01*
X103836010Y-99778795D01*
X104014155Y-99685663D01*
X104206997Y-99628906D01*
X104207031Y-99628903D01*
X104207044Y-99628899D01*
X104407188Y-99610684D01*
X104607062Y-99631693D01*
X104607062Y-99631693D01*
G37*
G36*
X108107062Y-99631693D02*
X108107067Y-99631694D01*
X108107110Y-99631699D01*
X108299141Y-99691143D01*
X108475969Y-99786753D01*
X108630858Y-99914889D01*
X108757909Y-100070669D01*
X108852282Y-100248160D01*
X108910384Y-100440601D01*
X108930000Y-100640662D01*
X108930000Y-102459338D01*
X108929900Y-102473719D01*
X108907492Y-102673487D01*
X108846709Y-102865098D01*
X108749867Y-103041254D01*
X108620653Y-103195245D01*
X108463990Y-103321205D01*
X108285845Y-103414337D01*
X108093003Y-103471094D01*
X108092969Y-103471097D01*
X108092956Y-103471101D01*
X107892812Y-103489316D01*
X107692938Y-103468307D01*
X107692933Y-103468306D01*
X107692890Y-103468301D01*
X107500859Y-103408857D01*
X107324031Y-103313247D01*
X107169142Y-103185111D01*
X107042091Y-103029331D01*
X106947718Y-102851840D01*
X106889616Y-102659399D01*
X106870000Y-102459338D01*
X106870000Y-100640662D01*
X106870100Y-100626281D01*
X106892508Y-100426513D01*
X106953291Y-100234902D01*
X107050133Y-100058746D01*
X107179347Y-99904755D01*
X107336010Y-99778795D01*
X107514155Y-99685663D01*
X107706997Y-99628906D01*
X107707031Y-99628903D01*
X107707044Y-99628899D01*
X107907188Y-99610684D01*
X108107062Y-99631693D01*
X108107062Y-99631693D01*
G37*
G36*
X97607062Y-99631693D02*
X97607067Y-99631694D01*
X97607110Y-99631699D01*
X97799141Y-99691143D01*
X97975969Y-99786753D01*
X98130858Y-99914889D01*
X98257909Y-100070669D01*
X98352282Y-100248160D01*
X98410384Y-100440601D01*
X98430000Y-100640662D01*
X98430000Y-102459338D01*
X98429900Y-102473719D01*
X98407492Y-102673487D01*
X98346709Y-102865098D01*
X98249867Y-103041254D01*
X98120653Y-103195245D01*
X97963990Y-103321205D01*
X97785845Y-103414337D01*
X97593003Y-103471094D01*
X97592969Y-103471097D01*
X97592956Y-103471101D01*
X97392812Y-103489316D01*
X97192938Y-103468307D01*
X97192933Y-103468306D01*
X97192890Y-103468301D01*
X97000859Y-103408857D01*
X96824031Y-103313247D01*
X96669142Y-103185111D01*
X96542091Y-103029331D01*
X96447718Y-102851840D01*
X96389616Y-102659399D01*
X96370000Y-102459338D01*
X96370000Y-100640662D01*
X96370100Y-100626281D01*
X96392508Y-100426513D01*
X96453291Y-100234902D01*
X96550133Y-100058746D01*
X96679347Y-99904755D01*
X96836010Y-99778795D01*
X97014155Y-99685663D01*
X97206997Y-99628906D01*
X97207031Y-99628903D01*
X97207044Y-99628899D01*
X97407188Y-99610684D01*
X97607062Y-99631693D01*
X97607062Y-99631693D01*
G37*
G36*
X84430000Y-103480000D02*
X82370000Y-103480000D01*
X82370000Y-99620000D01*
X84430000Y-99620000D01*
X84430000Y-103480000D01*
X84430000Y-103480000D01*
G37*
G36*
X69287223Y-97634755D02*
X69287237Y-97634759D01*
X69287272Y-97634763D01*
X69507268Y-97702863D01*
X69709848Y-97812398D01*
X69887293Y-97959194D01*
X70032847Y-98137660D01*
X70140964Y-98340999D01*
X70207527Y-98561465D01*
X70230000Y-98790662D01*
X70230000Y-100309338D01*
X70229885Y-100325813D01*
X70204214Y-100554674D01*
X70134580Y-100774189D01*
X70023634Y-100975999D01*
X69875603Y-101152416D01*
X69696125Y-101296720D01*
X69492036Y-101403415D01*
X69271110Y-101468437D01*
X69271076Y-101468440D01*
X69271063Y-101468444D01*
X69041764Y-101489312D01*
X68812777Y-101465245D01*
X68812763Y-101465241D01*
X68812728Y-101465237D01*
X68592732Y-101397137D01*
X68390152Y-101287602D01*
X68212707Y-101140806D01*
X68067153Y-100962340D01*
X67959036Y-100759001D01*
X67892473Y-100538535D01*
X67870000Y-100309338D01*
X67870000Y-98790662D01*
X67870115Y-98774187D01*
X67895786Y-98545326D01*
X67965420Y-98325811D01*
X68076366Y-98124001D01*
X68224397Y-97947584D01*
X68403875Y-97803280D01*
X68607964Y-97696585D01*
X68828890Y-97631563D01*
X68828924Y-97631560D01*
X68828937Y-97631556D01*
X69058236Y-97610688D01*
X69287223Y-97634755D01*
X69287223Y-97634755D01*
G37*
G36*
X65230000Y-101480000D02*
X62870000Y-101480000D01*
X62870000Y-97620000D01*
X65230000Y-97620000D01*
X65230000Y-101480000D01*
X65230000Y-101480000D01*
G37*
G36*
X70400199Y-93660951D02*
X70674910Y-93717341D01*
X70933433Y-93826014D01*
X71165927Y-93982833D01*
X71363535Y-94181826D01*
X71518727Y-94415407D01*
X71625592Y-94674682D01*
X71679995Y-94949438D01*
X71679995Y-94949447D01*
X71680061Y-94949781D01*
X71675588Y-95270094D01*
X71675512Y-95270428D01*
X71675512Y-95270440D01*
X71613461Y-95543561D01*
X71499396Y-95799755D01*
X71337744Y-96028913D01*
X71134654Y-96222312D01*
X70897876Y-96372575D01*
X70636416Y-96473990D01*
X70360242Y-96522686D01*
X70079865Y-96516814D01*
X69805963Y-96456592D01*
X69548984Y-96344321D01*
X69318703Y-96184271D01*
X69123893Y-95982539D01*
X68971980Y-95746816D01*
X68868743Y-95486071D01*
X68818118Y-95210235D01*
X68822034Y-94929827D01*
X68880339Y-94655520D01*
X68990817Y-94397758D01*
X69149255Y-94166365D01*
X69349621Y-93970151D01*
X69584280Y-93816595D01*
X69844298Y-93711541D01*
X70119765Y-93658993D01*
X70400199Y-93660951D01*
X70400199Y-93660951D01*
G37*
G36*
X62800199Y-91120951D02*
X63074910Y-91177341D01*
X63333433Y-91286014D01*
X63565927Y-91442833D01*
X63763535Y-91641826D01*
X63918727Y-91875407D01*
X64025592Y-92134682D01*
X64079995Y-92409438D01*
X64079995Y-92409447D01*
X64080061Y-92409781D01*
X64075588Y-92730094D01*
X64075512Y-92730428D01*
X64075512Y-92730440D01*
X64013461Y-93003561D01*
X63899396Y-93259755D01*
X63737744Y-93488913D01*
X63534654Y-93682312D01*
X63297876Y-93832575D01*
X63036416Y-93933990D01*
X62760242Y-93982686D01*
X62479865Y-93976814D01*
X62205963Y-93916592D01*
X61948984Y-93804321D01*
X61718703Y-93644271D01*
X61523893Y-93442539D01*
X61371980Y-93206816D01*
X61268743Y-92946071D01*
X61218118Y-92670235D01*
X61222034Y-92389827D01*
X61280339Y-92115520D01*
X61390817Y-91857758D01*
X61549255Y-91626365D01*
X61749621Y-91430151D01*
X61984280Y-91276595D01*
X62244298Y-91171541D01*
X62519765Y-91118993D01*
X62800199Y-91120951D01*
X62800199Y-91120951D01*
G37*
G36*
X81530810Y-90480050D02*
X80470710Y-90480050D01*
X80470710Y-89419950D01*
X81530810Y-89419950D01*
X81530810Y-90480050D01*
X81530810Y-90480050D01*
G37*
G36*
X84580000Y-90130000D02*
X83420000Y-90130000D01*
X83420000Y-89370000D01*
X84580000Y-89370000D01*
X84580000Y-90130000D01*
X84580000Y-90130000D01*
G37*
G36*
X109096000Y-89893600D02*
X106804000Y-89893600D01*
X106804000Y-87906400D01*
X109096000Y-87906400D01*
X109096000Y-89893600D01*
X109096000Y-89893600D01*
G37*
G36*
X106556000Y-89893600D02*
X104264000Y-89893600D01*
X104264000Y-87906400D01*
X106556000Y-87906400D01*
X106556000Y-89893600D01*
X106556000Y-89893600D01*
G37*
G36*
X79531830Y-89530050D02*
X78471730Y-89530050D01*
X78471730Y-88469950D01*
X79531830Y-88469950D01*
X79531830Y-89530050D01*
X79531830Y-89530050D01*
G37*
G36*
X84580000Y-88630000D02*
X83420000Y-88630000D01*
X83420000Y-87870000D01*
X84580000Y-87870000D01*
X84580000Y-88630000D01*
X84580000Y-88630000D01*
G37*
G36*
X81530810Y-88580050D02*
X80470710Y-88580050D01*
X80470710Y-87519950D01*
X81530810Y-87519950D01*
X81530810Y-88580050D01*
X81530810Y-88580050D01*
G37*
G36*
X108115403Y-85366452D02*
X108121818Y-85366497D01*
X108314526Y-85388113D01*
X108499366Y-85446747D01*
X108669296Y-85540167D01*
X108817845Y-85664815D01*
X108939354Y-85815941D01*
X109029195Y-85987791D01*
X109083946Y-86173818D01*
X109083949Y-86173852D01*
X109083953Y-86173865D01*
X109101524Y-86366935D01*
X109081259Y-86559741D01*
X109081255Y-86559754D01*
X109081251Y-86559791D01*
X109023908Y-86745035D01*
X108931677Y-86915614D01*
X108808070Y-87065029D01*
X108657795Y-87187591D01*
X108486577Y-87278629D01*
X108300936Y-87334677D01*
X108107945Y-87353600D01*
X107792020Y-87353600D01*
X107784597Y-87353548D01*
X107778182Y-87353503D01*
X107585474Y-87331887D01*
X107400634Y-87273253D01*
X107230704Y-87179833D01*
X107082155Y-87055185D01*
X106960646Y-86904059D01*
X106870805Y-86732209D01*
X106816054Y-86546182D01*
X106816051Y-86546148D01*
X106816047Y-86546135D01*
X106798476Y-86353065D01*
X106818741Y-86160259D01*
X106818745Y-86160246D01*
X106818749Y-86160209D01*
X106876092Y-85974965D01*
X106968323Y-85804386D01*
X107091930Y-85654971D01*
X107242205Y-85532409D01*
X107413423Y-85441371D01*
X107599064Y-85385323D01*
X107792055Y-85366400D01*
X108107980Y-85366400D01*
X108115403Y-85366452D01*
X108115403Y-85366452D01*
G37*
G36*
X105575403Y-85366452D02*
X105581818Y-85366497D01*
X105774526Y-85388113D01*
X105959366Y-85446747D01*
X106129296Y-85540167D01*
X106277845Y-85664815D01*
X106399354Y-85815941D01*
X106489195Y-85987791D01*
X106543946Y-86173818D01*
X106543949Y-86173852D01*
X106543953Y-86173865D01*
X106561524Y-86366935D01*
X106541259Y-86559741D01*
X106541255Y-86559754D01*
X106541251Y-86559791D01*
X106483908Y-86745035D01*
X106391677Y-86915614D01*
X106268070Y-87065029D01*
X106117795Y-87187591D01*
X105946577Y-87278629D01*
X105760936Y-87334677D01*
X105567945Y-87353600D01*
X105252020Y-87353600D01*
X105244597Y-87353548D01*
X105238182Y-87353503D01*
X105045474Y-87331887D01*
X104860634Y-87273253D01*
X104690704Y-87179833D01*
X104542155Y-87055185D01*
X104420646Y-86904059D01*
X104330805Y-86732209D01*
X104276054Y-86546182D01*
X104276051Y-86546148D01*
X104276047Y-86546135D01*
X104258476Y-86353065D01*
X104278741Y-86160259D01*
X104278745Y-86160246D01*
X104278749Y-86160209D01*
X104336092Y-85974965D01*
X104428323Y-85804386D01*
X104551930Y-85654971D01*
X104702205Y-85532409D01*
X104873423Y-85441371D01*
X105059064Y-85385323D01*
X105252055Y-85366400D01*
X105567980Y-85366400D01*
X105575403Y-85366452D01*
X105575403Y-85366452D01*
G37*
G36*
X108115403Y-82826452D02*
X108121818Y-82826497D01*
X108314526Y-82848113D01*
X108499366Y-82906747D01*
X108669296Y-83000167D01*
X108817845Y-83124815D01*
X108939354Y-83275941D01*
X109029195Y-83447791D01*
X109083946Y-83633818D01*
X109083949Y-83633852D01*
X109083953Y-83633865D01*
X109101524Y-83826935D01*
X109081259Y-84019741D01*
X109081255Y-84019754D01*
X109081251Y-84019791D01*
X109023908Y-84205035D01*
X108931677Y-84375614D01*
X108808070Y-84525029D01*
X108657795Y-84647591D01*
X108486577Y-84738629D01*
X108300936Y-84794677D01*
X108107945Y-84813600D01*
X107792020Y-84813600D01*
X107784597Y-84813548D01*
X107778182Y-84813503D01*
X107585474Y-84791887D01*
X107400634Y-84733253D01*
X107230704Y-84639833D01*
X107082155Y-84515185D01*
X106960646Y-84364059D01*
X106870805Y-84192209D01*
X106816054Y-84006182D01*
X106816051Y-84006148D01*
X106816047Y-84006135D01*
X106798476Y-83813065D01*
X106818741Y-83620259D01*
X106818745Y-83620246D01*
X106818749Y-83620209D01*
X106876092Y-83434965D01*
X106968323Y-83264386D01*
X107091930Y-83114971D01*
X107242205Y-82992409D01*
X107413423Y-82901371D01*
X107599064Y-82845323D01*
X107792055Y-82826400D01*
X108107980Y-82826400D01*
X108115403Y-82826452D01*
X108115403Y-82826452D01*
G37*
G36*
X105575403Y-82826452D02*
X105581818Y-82826497D01*
X105774526Y-82848113D01*
X105959366Y-82906747D01*
X106129296Y-83000167D01*
X106277845Y-83124815D01*
X106399354Y-83275941D01*
X106489195Y-83447791D01*
X106543946Y-83633818D01*
X106543949Y-83633852D01*
X106543953Y-83633865D01*
X106561524Y-83826935D01*
X106541259Y-84019741D01*
X106541255Y-84019754D01*
X106541251Y-84019791D01*
X106483908Y-84205035D01*
X106391677Y-84375614D01*
X106268070Y-84525029D01*
X106117795Y-84647591D01*
X105946577Y-84738629D01*
X105760936Y-84794677D01*
X105567945Y-84813600D01*
X105252020Y-84813600D01*
X105244597Y-84813548D01*
X105238182Y-84813503D01*
X105045474Y-84791887D01*
X104860634Y-84733253D01*
X104690704Y-84639833D01*
X104542155Y-84515185D01*
X104420646Y-84364059D01*
X104330805Y-84192209D01*
X104276054Y-84006182D01*
X104276051Y-84006148D01*
X104276047Y-84006135D01*
X104258476Y-83813065D01*
X104278741Y-83620259D01*
X104278745Y-83620246D01*
X104278749Y-83620209D01*
X104336092Y-83434965D01*
X104428323Y-83264386D01*
X104551930Y-83114971D01*
X104702205Y-82992409D01*
X104873423Y-82901371D01*
X105059064Y-82845323D01*
X105252055Y-82826400D01*
X105567980Y-82826400D01*
X105575403Y-82826452D01*
X105575403Y-82826452D01*
G37*
G36*
X75530430Y-83277640D02*
X73469570Y-83277640D01*
X73469570Y-80518280D01*
X75530430Y-80518280D01*
X75530430Y-83277640D01*
X75530430Y-83277640D01*
G37*
G36*
X105575403Y-80286452D02*
X105581818Y-80286497D01*
X105774526Y-80308113D01*
X105959366Y-80366747D01*
X106129296Y-80460167D01*
X106277845Y-80584815D01*
X106399354Y-80735941D01*
X106489195Y-80907791D01*
X106543946Y-81093818D01*
X106543949Y-81093852D01*
X106543953Y-81093865D01*
X106561524Y-81286935D01*
X106541259Y-81479741D01*
X106541255Y-81479754D01*
X106541251Y-81479791D01*
X106483908Y-81665035D01*
X106391677Y-81835614D01*
X106268070Y-81985029D01*
X106117795Y-82107591D01*
X105946577Y-82198629D01*
X105760936Y-82254677D01*
X105567945Y-82273600D01*
X105252020Y-82273600D01*
X105244597Y-82273548D01*
X105238182Y-82273503D01*
X105045474Y-82251887D01*
X104860634Y-82193253D01*
X104690704Y-82099833D01*
X104542155Y-81975185D01*
X104420646Y-81824059D01*
X104330805Y-81652209D01*
X104276054Y-81466182D01*
X104276051Y-81466148D01*
X104276047Y-81466135D01*
X104258476Y-81273065D01*
X104278741Y-81080259D01*
X104278745Y-81080246D01*
X104278749Y-81080209D01*
X104336092Y-80894965D01*
X104428323Y-80724386D01*
X104551930Y-80574971D01*
X104702205Y-80452409D01*
X104873423Y-80361371D01*
X105059064Y-80305323D01*
X105252055Y-80286400D01*
X105567980Y-80286400D01*
X105575403Y-80286452D01*
X105575403Y-80286452D01*
G37*
G36*
X108115403Y-80286452D02*
X108121818Y-80286497D01*
X108314526Y-80308113D01*
X108499366Y-80366747D01*
X108669296Y-80460167D01*
X108817845Y-80584815D01*
X108939354Y-80735941D01*
X109029195Y-80907791D01*
X109083946Y-81093818D01*
X109083949Y-81093852D01*
X109083953Y-81093865D01*
X109101524Y-81286935D01*
X109081259Y-81479741D01*
X109081255Y-81479754D01*
X109081251Y-81479791D01*
X109023908Y-81665035D01*
X108931677Y-81835614D01*
X108808070Y-81985029D01*
X108657795Y-82107591D01*
X108486577Y-82198629D01*
X108300936Y-82254677D01*
X108107945Y-82273600D01*
X107792020Y-82273600D01*
X107784597Y-82273548D01*
X107778182Y-82273503D01*
X107585474Y-82251887D01*
X107400634Y-82193253D01*
X107230704Y-82099833D01*
X107082155Y-81975185D01*
X106960646Y-81824059D01*
X106870805Y-81652209D01*
X106816054Y-81466182D01*
X106816051Y-81466148D01*
X106816047Y-81466135D01*
X106798476Y-81273065D01*
X106818741Y-81080259D01*
X106818745Y-81080246D01*
X106818749Y-81080209D01*
X106876092Y-80894965D01*
X106968323Y-80724386D01*
X107091930Y-80574971D01*
X107242205Y-80452409D01*
X107413423Y-80361371D01*
X107599064Y-80305323D01*
X107792055Y-80286400D01*
X108107980Y-80286400D01*
X108115403Y-80286452D01*
X108115403Y-80286452D01*
G37*
G36*
X62800199Y-78420951D02*
X63074910Y-78477341D01*
X63333433Y-78586014D01*
X63565927Y-78742833D01*
X63763535Y-78941826D01*
X63918727Y-79175407D01*
X64025592Y-79434682D01*
X64079995Y-79709438D01*
X64079995Y-79709447D01*
X64080061Y-79709781D01*
X64075588Y-80030094D01*
X64075512Y-80030428D01*
X64075512Y-80030440D01*
X64013461Y-80303561D01*
X63899396Y-80559755D01*
X63737744Y-80788913D01*
X63534654Y-80982312D01*
X63297876Y-81132575D01*
X63036416Y-81233990D01*
X62760242Y-81282686D01*
X62479865Y-81276814D01*
X62205963Y-81216592D01*
X61948984Y-81104321D01*
X61718703Y-80944271D01*
X61523893Y-80742539D01*
X61371980Y-80506816D01*
X61268743Y-80246071D01*
X61218118Y-79970235D01*
X61222034Y-79689827D01*
X61280339Y-79415520D01*
X61390817Y-79157758D01*
X61549255Y-78926365D01*
X61749621Y-78730151D01*
X61984280Y-78576595D01*
X62244298Y-78471541D01*
X62519765Y-78418993D01*
X62800199Y-78420951D01*
X62800199Y-78420951D01*
G37*
G36*
X70400199Y-78420951D02*
X70674910Y-78477341D01*
X70933433Y-78586014D01*
X71165927Y-78742833D01*
X71363535Y-78941826D01*
X71518727Y-79175407D01*
X71625592Y-79434682D01*
X71679995Y-79709438D01*
X71679995Y-79709447D01*
X71680061Y-79709781D01*
X71675588Y-80030094D01*
X71675512Y-80030428D01*
X71675512Y-80030440D01*
X71613461Y-80303561D01*
X71499396Y-80559755D01*
X71337744Y-80788913D01*
X71134654Y-80982312D01*
X70897876Y-81132575D01*
X70636416Y-81233990D01*
X70360242Y-81282686D01*
X70079865Y-81276814D01*
X69805963Y-81216592D01*
X69548984Y-81104321D01*
X69318703Y-80944271D01*
X69123893Y-80742539D01*
X68971980Y-80506816D01*
X68868743Y-80246071D01*
X68818118Y-79970235D01*
X68822034Y-79689827D01*
X68880339Y-79415520D01*
X68990817Y-79157758D01*
X69149255Y-78926365D01*
X69349621Y-78730151D01*
X69584280Y-78576595D01*
X69844298Y-78471541D01*
X70119765Y-78418993D01*
X70400199Y-78420951D01*
X70400199Y-78420951D01*
G37*
G36*
X90530000Y-80480000D02*
X89770000Y-80480000D01*
X89770000Y-79320000D01*
X90530000Y-79320000D01*
X90530000Y-80480000D01*
X90530000Y-80480000D01*
G37*
G36*
X89030000Y-80480000D02*
X88270000Y-80480000D01*
X88270000Y-79320000D01*
X89030000Y-79320000D01*
X89030000Y-80480000D01*
X89030000Y-80480000D01*
G37*
G36*
X105575403Y-77746452D02*
X105581818Y-77746497D01*
X105774526Y-77768113D01*
X105959366Y-77826747D01*
X106129296Y-77920167D01*
X106277845Y-78044815D01*
X106399354Y-78195941D01*
X106489195Y-78367791D01*
X106543946Y-78553818D01*
X106543949Y-78553852D01*
X106543953Y-78553865D01*
X106561524Y-78746935D01*
X106541259Y-78939741D01*
X106541255Y-78939754D01*
X106541251Y-78939791D01*
X106483908Y-79125035D01*
X106391677Y-79295614D01*
X106268070Y-79445029D01*
X106117795Y-79567591D01*
X105946577Y-79658629D01*
X105760936Y-79714677D01*
X105567945Y-79733600D01*
X105252020Y-79733600D01*
X105244597Y-79733548D01*
X105238182Y-79733503D01*
X105045474Y-79711887D01*
X104860634Y-79653253D01*
X104690704Y-79559833D01*
X104542155Y-79435185D01*
X104420646Y-79284059D01*
X104330805Y-79112209D01*
X104276054Y-78926182D01*
X104276051Y-78926148D01*
X104276047Y-78926135D01*
X104258476Y-78733065D01*
X104278741Y-78540259D01*
X104278745Y-78540246D01*
X104278749Y-78540209D01*
X104336092Y-78354965D01*
X104428323Y-78184386D01*
X104551930Y-78034971D01*
X104702205Y-77912409D01*
X104873423Y-77821371D01*
X105059064Y-77765323D01*
X105252055Y-77746400D01*
X105567980Y-77746400D01*
X105575403Y-77746452D01*
X105575403Y-77746452D01*
G37*
G36*
X75530430Y-79279680D02*
X73469570Y-79279680D01*
X73469570Y-76520320D01*
X75530430Y-76520320D01*
X75530430Y-79279680D01*
X75530430Y-79279680D01*
G37*
G36*
X101502933Y-75690651D02*
X101691198Y-75729296D01*
X101868369Y-75803772D01*
X102027697Y-75911239D01*
X102163123Y-76047615D01*
X102269480Y-76207693D01*
X102342713Y-76385374D01*
X102379976Y-76573562D01*
X102379976Y-76573572D01*
X102380042Y-76573906D01*
X102376977Y-76793421D01*
X102376901Y-76793755D01*
X102376901Y-76793766D01*
X102334400Y-76980833D01*
X102256230Y-77156406D01*
X102145448Y-77313451D01*
X102006266Y-77445992D01*
X101844000Y-77548968D01*
X101664817Y-77618470D01*
X101475551Y-77651842D01*
X101283405Y-77647817D01*
X101095695Y-77606546D01*
X100919585Y-77529606D01*
X100761765Y-77419918D01*
X100628261Y-77281670D01*
X100524153Y-77120127D01*
X100453404Y-76941434D01*
X100418709Y-76752398D01*
X100421393Y-76560230D01*
X100461350Y-76372245D01*
X100537063Y-76195596D01*
X100645642Y-76037019D01*
X100782957Y-75902550D01*
X100943772Y-75797315D01*
X101121966Y-75725320D01*
X101310747Y-75689309D01*
X101502933Y-75690651D01*
X101502933Y-75690651D01*
G37*
G36*
X78642933Y-75690651D02*
X78831198Y-75729296D01*
X79008369Y-75803772D01*
X79167697Y-75911239D01*
X79303123Y-76047615D01*
X79409480Y-76207693D01*
X79482713Y-76385374D01*
X79519976Y-76573562D01*
X79519976Y-76573572D01*
X79520042Y-76573906D01*
X79516977Y-76793421D01*
X79516901Y-76793755D01*
X79516901Y-76793766D01*
X79474400Y-76980833D01*
X79396230Y-77156406D01*
X79285448Y-77313451D01*
X79146266Y-77445992D01*
X78984000Y-77548968D01*
X78804817Y-77618470D01*
X78615551Y-77651842D01*
X78423405Y-77647817D01*
X78235695Y-77606546D01*
X78059585Y-77529606D01*
X77901765Y-77419918D01*
X77768261Y-77281670D01*
X77664153Y-77120127D01*
X77593404Y-76941434D01*
X77558709Y-76752398D01*
X77561393Y-76560230D01*
X77601350Y-76372245D01*
X77677063Y-76195596D01*
X77785642Y-76037019D01*
X77922957Y-75902550D01*
X78083772Y-75797315D01*
X78261966Y-75725320D01*
X78450747Y-75689309D01*
X78642933Y-75690651D01*
X78642933Y-75690651D01*
G37*
G36*
X83130000Y-77580000D02*
X82370000Y-77580000D01*
X82370000Y-76420000D01*
X83130000Y-76420000D01*
X83130000Y-77580000D01*
X83130000Y-77580000D01*
G37*
G36*
X84630000Y-77580000D02*
X83870000Y-77580000D01*
X83870000Y-76420000D01*
X84630000Y-76420000D01*
X84630000Y-77580000D01*
X84630000Y-77580000D01*
G37*
G36*
X89030000Y-77480000D02*
X88270000Y-77480000D01*
X88270000Y-76320000D01*
X89030000Y-76320000D01*
X89030000Y-77480000D01*
X89030000Y-77480000D01*
G37*
G36*
X90530000Y-77480000D02*
X89770000Y-77480000D01*
X89770000Y-76320000D01*
X90530000Y-76320000D01*
X90530000Y-77480000D01*
X90530000Y-77480000D01*
G37*
G36*
X78642933Y-73150651D02*
X78831198Y-73189296D01*
X79008369Y-73263772D01*
X79167697Y-73371239D01*
X79303123Y-73507615D01*
X79409480Y-73667693D01*
X79482713Y-73845374D01*
X79519976Y-74033562D01*
X79519976Y-74033572D01*
X79520042Y-74033906D01*
X79516977Y-74253421D01*
X79516901Y-74253755D01*
X79516901Y-74253766D01*
X79474400Y-74440833D01*
X79396230Y-74616406D01*
X79285448Y-74773451D01*
X79146266Y-74905992D01*
X78984000Y-75008968D01*
X78804817Y-75078470D01*
X78615551Y-75111842D01*
X78423405Y-75107817D01*
X78235695Y-75066546D01*
X78059585Y-74989606D01*
X77901765Y-74879918D01*
X77768261Y-74741670D01*
X77664153Y-74580127D01*
X77593404Y-74401434D01*
X77558709Y-74212398D01*
X77561393Y-74020230D01*
X77601350Y-73832245D01*
X77677063Y-73655596D01*
X77785642Y-73497019D01*
X77922957Y-73362550D01*
X78083772Y-73257315D01*
X78261966Y-73185320D01*
X78450747Y-73149309D01*
X78642933Y-73150651D01*
X78642933Y-73150651D01*
G37*
G36*
X101502933Y-73150651D02*
X101691198Y-73189296D01*
X101868369Y-73263772D01*
X102027697Y-73371239D01*
X102163123Y-73507615D01*
X102269480Y-73667693D01*
X102342713Y-73845374D01*
X102379976Y-74033562D01*
X102379976Y-74033572D01*
X102380042Y-74033906D01*
X102376977Y-74253421D01*
X102376901Y-74253755D01*
X102376901Y-74253766D01*
X102334400Y-74440833D01*
X102256230Y-74616406D01*
X102145448Y-74773451D01*
X102006266Y-74905992D01*
X101844000Y-75008968D01*
X101664817Y-75078470D01*
X101475551Y-75111842D01*
X101283405Y-75107817D01*
X101095695Y-75066546D01*
X100919585Y-74989606D01*
X100761765Y-74879918D01*
X100628261Y-74741670D01*
X100524153Y-74580127D01*
X100453404Y-74401434D01*
X100418709Y-74212398D01*
X100421393Y-74020230D01*
X100461350Y-73832245D01*
X100537063Y-73655596D01*
X100645642Y-73497019D01*
X100782957Y-73362550D01*
X100943772Y-73257315D01*
X101121966Y-73185320D01*
X101310747Y-73149309D01*
X101502933Y-73150651D01*
X101502933Y-73150651D01*
G37*
G36*
X84630000Y-74580000D02*
X83870000Y-74580000D01*
X83870000Y-73420000D01*
X84630000Y-73420000D01*
X84630000Y-74580000D01*
X84630000Y-74580000D01*
G37*
G36*
X83130000Y-74580000D02*
X82370000Y-74580000D01*
X82370000Y-73420000D01*
X83130000Y-73420000D01*
X83130000Y-74580000D01*
X83130000Y-74580000D01*
G37*
G36*
X89030000Y-74480000D02*
X88270000Y-74480000D01*
X88270000Y-73320000D01*
X89030000Y-73320000D01*
X89030000Y-74480000D01*
X89030000Y-74480000D01*
G37*
G36*
X90530000Y-74480000D02*
X89770000Y-74480000D01*
X89770000Y-73320000D01*
X90530000Y-73320000D01*
X90530000Y-74480000D01*
X90530000Y-74480000D01*
G37*
G36*
X78642933Y-70610651D02*
X78831198Y-70649296D01*
X79008369Y-70723772D01*
X79167697Y-70831239D01*
X79303123Y-70967615D01*
X79409480Y-71127693D01*
X79482713Y-71305374D01*
X79519976Y-71493562D01*
X79519976Y-71493572D01*
X79520042Y-71493906D01*
X79516977Y-71713421D01*
X79516901Y-71713755D01*
X79516901Y-71713766D01*
X79474400Y-71900833D01*
X79396230Y-72076406D01*
X79285448Y-72233451D01*
X79146266Y-72365992D01*
X78984000Y-72468968D01*
X78804817Y-72538470D01*
X78615551Y-72571842D01*
X78423405Y-72567817D01*
X78235695Y-72526546D01*
X78059585Y-72449606D01*
X77901765Y-72339918D01*
X77768261Y-72201670D01*
X77664153Y-72040127D01*
X77593404Y-71861434D01*
X77558709Y-71672398D01*
X77561393Y-71480230D01*
X77601350Y-71292245D01*
X77677063Y-71115596D01*
X77785642Y-70957019D01*
X77922957Y-70822550D01*
X78083772Y-70717315D01*
X78261966Y-70645320D01*
X78450747Y-70609309D01*
X78642933Y-70610651D01*
X78642933Y-70610651D01*
G37*
G36*
X101502933Y-70610651D02*
X101691198Y-70649296D01*
X101868369Y-70723772D01*
X102027697Y-70831239D01*
X102163123Y-70967615D01*
X102269480Y-71127693D01*
X102342713Y-71305374D01*
X102379976Y-71493562D01*
X102379976Y-71493572D01*
X102380042Y-71493906D01*
X102376977Y-71713421D01*
X102376901Y-71713755D01*
X102376901Y-71713766D01*
X102334400Y-71900833D01*
X102256230Y-72076406D01*
X102145448Y-72233451D01*
X102006266Y-72365992D01*
X101844000Y-72468968D01*
X101664817Y-72538470D01*
X101475551Y-72571842D01*
X101283405Y-72567817D01*
X101095695Y-72526546D01*
X100919585Y-72449606D01*
X100761765Y-72339918D01*
X100628261Y-72201670D01*
X100524153Y-72040127D01*
X100453404Y-71861434D01*
X100418709Y-71672398D01*
X100421393Y-71480230D01*
X100461350Y-71292245D01*
X100537063Y-71115596D01*
X100645642Y-70957019D01*
X100782957Y-70822550D01*
X100943772Y-70717315D01*
X101121966Y-70645320D01*
X101310747Y-70609309D01*
X101502933Y-70610651D01*
X101502933Y-70610651D01*
G37*
G36*
X109096000Y-72266000D02*
X106804000Y-72266000D01*
X106804000Y-69974000D01*
X109096000Y-69974000D01*
X109096000Y-72266000D01*
X109096000Y-72266000D01*
G37*
G36*
X89030000Y-71480000D02*
X88270000Y-71480000D01*
X88270000Y-70320000D01*
X89030000Y-70320000D01*
X89030000Y-71480000D01*
X89030000Y-71480000D01*
G37*
G36*
X90530000Y-71480000D02*
X89770000Y-71480000D01*
X89770000Y-70320000D01*
X90530000Y-70320000D01*
X90530000Y-71480000D01*
X90530000Y-71480000D01*
G37*
G36*
X64019008Y-68870750D02*
X64236089Y-68915311D01*
X64440375Y-69001185D01*
X64624095Y-69125105D01*
X64780247Y-69282352D01*
X64902883Y-69466932D01*
X64987326Y-69671809D01*
X65030303Y-69888854D01*
X65030303Y-69888864D01*
X65030369Y-69889198D01*
X65026834Y-70142312D01*
X65026758Y-70142646D01*
X65026758Y-70142658D01*
X64977742Y-70358408D01*
X64887606Y-70560856D01*
X64759867Y-70741938D01*
X64599382Y-70894765D01*
X64412279Y-71013504D01*
X64205670Y-71093643D01*
X63987435Y-71132123D01*
X63765878Y-71127483D01*
X63549438Y-71079895D01*
X63346372Y-70991178D01*
X63164397Y-70864702D01*
X63010460Y-70705295D01*
X62890414Y-70519022D01*
X62808836Y-70312980D01*
X62768831Y-70095011D01*
X62771926Y-69873429D01*
X62817999Y-69656670D01*
X62905300Y-69452983D01*
X63030499Y-69270134D01*
X63188832Y-69115083D01*
X63374261Y-68993742D01*
X63579730Y-68910727D01*
X63797406Y-68869203D01*
X64019008Y-68870750D01*
X64019008Y-68870750D01*
G37*
G36*
X71618688Y-68870750D02*
X71835769Y-68915311D01*
X72040055Y-69001185D01*
X72223775Y-69125105D01*
X72379927Y-69282352D01*
X72502563Y-69466932D01*
X72587006Y-69671809D01*
X72629983Y-69888854D01*
X72629983Y-69888864D01*
X72630049Y-69889198D01*
X72626514Y-70142312D01*
X72626438Y-70142646D01*
X72626438Y-70142658D01*
X72577422Y-70358408D01*
X72487286Y-70560856D01*
X72359547Y-70741938D01*
X72199062Y-70894765D01*
X72011959Y-71013504D01*
X71805350Y-71093643D01*
X71587115Y-71132123D01*
X71365558Y-71127483D01*
X71149118Y-71079895D01*
X70946052Y-70991178D01*
X70764077Y-70864702D01*
X70610140Y-70705295D01*
X70490094Y-70519022D01*
X70408516Y-70312980D01*
X70368511Y-70095011D01*
X70371606Y-69873429D01*
X70417679Y-69656670D01*
X70504980Y-69452983D01*
X70630179Y-69270134D01*
X70788512Y-69115083D01*
X70973941Y-68993742D01*
X71179410Y-68910727D01*
X71397086Y-68869203D01*
X71618688Y-68870750D01*
X71618688Y-68870750D01*
G37*
G36*
X78642933Y-68070651D02*
X78831198Y-68109296D01*
X79008369Y-68183772D01*
X79167697Y-68291239D01*
X79303123Y-68427615D01*
X79409480Y-68587693D01*
X79482713Y-68765374D01*
X79519976Y-68953562D01*
X79519976Y-68953572D01*
X79520042Y-68953906D01*
X79516977Y-69173421D01*
X79516901Y-69173755D01*
X79516901Y-69173766D01*
X79474400Y-69360833D01*
X79396230Y-69536406D01*
X79285448Y-69693451D01*
X79146266Y-69825992D01*
X78984000Y-69928968D01*
X78804817Y-69998470D01*
X78615551Y-70031842D01*
X78423405Y-70027817D01*
X78235695Y-69986546D01*
X78059585Y-69909606D01*
X77901765Y-69799918D01*
X77768261Y-69661670D01*
X77664153Y-69500127D01*
X77593404Y-69321434D01*
X77558709Y-69132398D01*
X77561393Y-68940230D01*
X77601350Y-68752245D01*
X77677063Y-68575596D01*
X77785642Y-68417019D01*
X77922957Y-68282550D01*
X78083772Y-68177315D01*
X78261966Y-68105320D01*
X78450747Y-68069309D01*
X78642933Y-68070651D01*
X78642933Y-68070651D01*
G37*
G36*
X101502933Y-68070651D02*
X101691198Y-68109296D01*
X101868369Y-68183772D01*
X102027697Y-68291239D01*
X102163123Y-68427615D01*
X102269480Y-68587693D01*
X102342713Y-68765374D01*
X102379976Y-68953562D01*
X102379976Y-68953572D01*
X102380042Y-68953906D01*
X102376977Y-69173421D01*
X102376901Y-69173755D01*
X102376901Y-69173766D01*
X102334400Y-69360833D01*
X102256230Y-69536406D01*
X102145448Y-69693451D01*
X102006266Y-69825992D01*
X101844000Y-69928968D01*
X101664817Y-69998470D01*
X101475551Y-70031842D01*
X101283405Y-70027817D01*
X101095695Y-69986546D01*
X100919585Y-69909606D01*
X100761765Y-69799918D01*
X100628261Y-69661670D01*
X100524153Y-69500127D01*
X100453404Y-69321434D01*
X100418709Y-69132398D01*
X100421393Y-68940230D01*
X100461350Y-68752245D01*
X100537063Y-68575596D01*
X100645642Y-68417019D01*
X100782957Y-68282550D01*
X100943772Y-68177315D01*
X101121966Y-68105320D01*
X101310747Y-68069309D01*
X101502933Y-68070651D01*
X101502933Y-68070651D01*
G37*
G36*
X107963868Y-67434058D02*
X107971546Y-67434112D01*
X108193812Y-67459043D01*
X108407002Y-67526671D01*
X108602997Y-67634420D01*
X108774331Y-67778186D01*
X108914477Y-67952493D01*
X109018098Y-68150701D01*
X109081246Y-68365261D01*
X109081249Y-68365295D01*
X109081253Y-68365308D01*
X109101520Y-68587999D01*
X109078146Y-68810386D01*
X109078142Y-68810400D01*
X109078138Y-68810435D01*
X109012000Y-69024093D01*
X108905622Y-69220835D01*
X108763056Y-69393168D01*
X108589732Y-69534528D01*
X108392252Y-69639530D01*
X108178138Y-69704175D01*
X107955545Y-69726000D01*
X107944420Y-69726000D01*
X107936132Y-69725942D01*
X107928454Y-69725888D01*
X107706188Y-69700957D01*
X107492998Y-69633329D01*
X107297003Y-69525580D01*
X107125669Y-69381814D01*
X106985523Y-69207507D01*
X106881902Y-69009299D01*
X106818754Y-68794739D01*
X106818751Y-68794705D01*
X106818747Y-68794692D01*
X106798480Y-68572001D01*
X106821854Y-68349614D01*
X106821858Y-68349600D01*
X106821862Y-68349565D01*
X106888000Y-68135907D01*
X106994378Y-67939165D01*
X107136944Y-67766832D01*
X107310268Y-67625472D01*
X107507748Y-67520470D01*
X107721862Y-67455825D01*
X107944455Y-67434000D01*
X107955580Y-67434000D01*
X107963868Y-67434058D01*
X107963868Y-67434058D01*
G37*
G36*
X91030000Y-68655000D02*
X89770000Y-68655000D01*
X89770000Y-67145000D01*
X91030000Y-67145000D01*
X91030000Y-68655000D01*
X91030000Y-68655000D01*
G37*
G36*
X89030000Y-68655000D02*
X87770000Y-68655000D01*
X87770000Y-67145000D01*
X89030000Y-67145000D01*
X89030000Y-68655000D01*
X89030000Y-68655000D01*
G37*
G36*
X78642933Y-65530651D02*
X78831198Y-65569296D01*
X79008369Y-65643772D01*
X79167697Y-65751239D01*
X79303123Y-65887615D01*
X79409480Y-66047693D01*
X79482713Y-66225374D01*
X79519976Y-66413562D01*
X79519976Y-66413572D01*
X79520042Y-66413906D01*
X79516977Y-66633421D01*
X79516901Y-66633755D01*
X79516901Y-66633766D01*
X79474400Y-66820833D01*
X79396230Y-66996406D01*
X79285448Y-67153451D01*
X79146266Y-67285992D01*
X78984000Y-67388968D01*
X78804817Y-67458470D01*
X78615551Y-67491842D01*
X78423405Y-67487817D01*
X78235695Y-67446546D01*
X78059585Y-67369606D01*
X77901765Y-67259918D01*
X77768261Y-67121670D01*
X77664153Y-66960127D01*
X77593404Y-66781434D01*
X77558709Y-66592398D01*
X77561393Y-66400230D01*
X77601350Y-66212245D01*
X77677063Y-66035596D01*
X77785642Y-65877019D01*
X77922957Y-65742550D01*
X78083772Y-65637315D01*
X78261966Y-65565320D01*
X78450747Y-65529309D01*
X78642933Y-65530651D01*
X78642933Y-65530651D01*
G37*
G36*
X101502933Y-65530651D02*
X101691198Y-65569296D01*
X101868369Y-65643772D01*
X102027697Y-65751239D01*
X102163123Y-65887615D01*
X102269480Y-66047693D01*
X102342713Y-66225374D01*
X102379976Y-66413562D01*
X102379976Y-66413572D01*
X102380042Y-66413906D01*
X102376977Y-66633421D01*
X102376901Y-66633755D01*
X102376901Y-66633766D01*
X102334400Y-66820833D01*
X102256230Y-66996406D01*
X102145448Y-67153451D01*
X102006266Y-67285992D01*
X101844000Y-67388968D01*
X101664817Y-67458470D01*
X101475551Y-67491842D01*
X101283405Y-67487817D01*
X101095695Y-67446546D01*
X100919585Y-67369606D01*
X100761765Y-67259918D01*
X100628261Y-67121670D01*
X100524153Y-66960127D01*
X100453404Y-66781434D01*
X100418709Y-66592398D01*
X100421393Y-66400230D01*
X100461350Y-66212245D01*
X100537063Y-66035596D01*
X100645642Y-65877019D01*
X100782957Y-65742550D01*
X100943772Y-65637315D01*
X101121966Y-65565320D01*
X101310747Y-65529309D01*
X101502933Y-65530651D01*
X101502933Y-65530651D01*
G37*
G36*
X90530000Y-65480000D02*
X89770000Y-65480000D01*
X89770000Y-64320000D01*
X90530000Y-64320000D01*
X90530000Y-65480000D01*
X90530000Y-65480000D01*
G37*
G36*
X89030000Y-65480000D02*
X88270000Y-65480000D01*
X88270000Y-64320000D01*
X89030000Y-64320000D01*
X89030000Y-65480000D01*
X89030000Y-65480000D01*
G37*
G36*
X78642933Y-62990651D02*
X78831198Y-63029296D01*
X79008369Y-63103772D01*
X79167697Y-63211239D01*
X79303123Y-63347615D01*
X79409480Y-63507693D01*
X79482713Y-63685374D01*
X79519976Y-63873562D01*
X79519976Y-63873572D01*
X79520042Y-63873906D01*
X79516977Y-64093421D01*
X79516901Y-64093755D01*
X79516901Y-64093766D01*
X79474400Y-64280833D01*
X79396230Y-64456406D01*
X79285448Y-64613451D01*
X79146266Y-64745992D01*
X78984000Y-64848968D01*
X78804817Y-64918470D01*
X78615551Y-64951842D01*
X78423405Y-64947817D01*
X78235695Y-64906546D01*
X78059585Y-64829606D01*
X77901765Y-64719918D01*
X77768261Y-64581670D01*
X77664153Y-64420127D01*
X77593404Y-64241434D01*
X77558709Y-64052398D01*
X77561393Y-63860230D01*
X77601350Y-63672245D01*
X77677063Y-63495596D01*
X77785642Y-63337019D01*
X77922957Y-63202550D01*
X78083772Y-63097315D01*
X78261966Y-63025320D01*
X78450747Y-62989309D01*
X78642933Y-62990651D01*
X78642933Y-62990651D01*
G37*
G36*
X101502933Y-62990651D02*
X101691198Y-63029296D01*
X101868369Y-63103772D01*
X102027697Y-63211239D01*
X102163123Y-63347615D01*
X102269480Y-63507693D01*
X102342713Y-63685374D01*
X102379976Y-63873562D01*
X102379976Y-63873572D01*
X102380042Y-63873906D01*
X102376977Y-64093421D01*
X102376901Y-64093755D01*
X102376901Y-64093766D01*
X102334400Y-64280833D01*
X102256230Y-64456406D01*
X102145448Y-64613451D01*
X102006266Y-64745992D01*
X101844000Y-64848968D01*
X101664817Y-64918470D01*
X101475551Y-64951842D01*
X101283405Y-64947817D01*
X101095695Y-64906546D01*
X100919585Y-64829606D01*
X100761765Y-64719918D01*
X100628261Y-64581670D01*
X100524153Y-64420127D01*
X100453404Y-64241434D01*
X100418709Y-64052398D01*
X100421393Y-63860230D01*
X100461350Y-63672245D01*
X100537063Y-63495596D01*
X100645642Y-63337019D01*
X100782957Y-63202550D01*
X100943772Y-63097315D01*
X101121966Y-63025320D01*
X101310747Y-62989309D01*
X101502933Y-62990651D01*
X101502933Y-62990651D01*
G37*
G36*
X78642933Y-60450651D02*
X78831198Y-60489296D01*
X79008369Y-60563772D01*
X79167697Y-60671239D01*
X79303123Y-60807615D01*
X79409480Y-60967693D01*
X79482713Y-61145374D01*
X79519976Y-61333562D01*
X79519976Y-61333572D01*
X79520042Y-61333906D01*
X79516977Y-61553421D01*
X79516901Y-61553755D01*
X79516901Y-61553766D01*
X79474400Y-61740833D01*
X79396230Y-61916406D01*
X79285448Y-62073451D01*
X79146266Y-62205992D01*
X78984000Y-62308968D01*
X78804817Y-62378470D01*
X78615551Y-62411842D01*
X78423405Y-62407817D01*
X78235695Y-62366546D01*
X78059585Y-62289606D01*
X77901765Y-62179918D01*
X77768261Y-62041670D01*
X77664153Y-61880127D01*
X77593404Y-61701434D01*
X77558709Y-61512398D01*
X77561393Y-61320230D01*
X77601350Y-61132245D01*
X77677063Y-60955596D01*
X77785642Y-60797019D01*
X77922957Y-60662550D01*
X78083772Y-60557315D01*
X78261966Y-60485320D01*
X78450747Y-60449309D01*
X78642933Y-60450651D01*
X78642933Y-60450651D01*
G37*
G36*
X101502933Y-60450651D02*
X101691198Y-60489296D01*
X101868369Y-60563772D01*
X102027697Y-60671239D01*
X102163123Y-60807615D01*
X102269480Y-60967693D01*
X102342713Y-61145374D01*
X102379976Y-61333562D01*
X102379976Y-61333572D01*
X102380042Y-61333906D01*
X102376977Y-61553421D01*
X102376901Y-61553755D01*
X102376901Y-61553766D01*
X102334400Y-61740833D01*
X102256230Y-61916406D01*
X102145448Y-62073451D01*
X102006266Y-62205992D01*
X101844000Y-62308968D01*
X101664817Y-62378470D01*
X101475551Y-62411842D01*
X101283405Y-62407817D01*
X101095695Y-62366546D01*
X100919585Y-62289606D01*
X100761765Y-62179918D01*
X100628261Y-62041670D01*
X100524153Y-61880127D01*
X100453404Y-61701434D01*
X100418709Y-61512398D01*
X100421393Y-61320230D01*
X100461350Y-61132245D01*
X100537063Y-60955596D01*
X100645642Y-60797019D01*
X100782957Y-60662550D01*
X100943772Y-60557315D01*
X101121966Y-60485320D01*
X101310747Y-60449309D01*
X101502933Y-60450651D01*
X101502933Y-60450651D01*
G37*
G36*
X89130000Y-62380000D02*
X88270000Y-62380000D01*
X88270000Y-61420000D01*
X89130000Y-61420000D01*
X89130000Y-62380000D01*
X89130000Y-62380000D01*
G37*
G36*
X90530000Y-62380000D02*
X89670000Y-62380000D01*
X89670000Y-61420000D01*
X90530000Y-61420000D01*
X90530000Y-62380000D01*
X90530000Y-62380000D01*
G37*
G36*
X72030810Y-61980050D02*
X70970710Y-61980050D01*
X70970710Y-60919950D01*
X72030810Y-60919950D01*
X72030810Y-61980050D01*
X72030810Y-61980050D01*
G37*
G36*
X75080000Y-61630000D02*
X73920000Y-61630000D01*
X73920000Y-60870000D01*
X75080000Y-60870000D01*
X75080000Y-61630000D01*
X75080000Y-61630000D01*
G37*
G36*
X70031830Y-61030050D02*
X68971730Y-61030050D01*
X68971730Y-59969950D01*
X70031830Y-59969950D01*
X70031830Y-61030050D01*
X70031830Y-61030050D01*
G37*
G36*
X75080000Y-60130000D02*
X73920000Y-60130000D01*
X73920000Y-59370000D01*
X75080000Y-59370000D01*
X75080000Y-60130000D01*
X75080000Y-60130000D01*
G37*
G36*
X72030810Y-60080050D02*
X70970710Y-60080050D01*
X70970710Y-59019950D01*
X72030810Y-59019950D01*
X72030810Y-60080050D01*
X72030810Y-60080050D01*
G37*
G36*
X78642933Y-57910651D02*
X78831198Y-57949296D01*
X79008369Y-58023772D01*
X79167697Y-58131239D01*
X79303123Y-58267615D01*
X79409480Y-58427693D01*
X79482713Y-58605374D01*
X79519976Y-58793562D01*
X79519976Y-58793572D01*
X79520042Y-58793906D01*
X79516977Y-59013421D01*
X79516901Y-59013755D01*
X79516901Y-59013766D01*
X79474400Y-59200833D01*
X79396230Y-59376406D01*
X79285448Y-59533451D01*
X79146266Y-59665992D01*
X78984000Y-59768968D01*
X78804817Y-59838470D01*
X78615551Y-59871842D01*
X78423405Y-59867817D01*
X78235695Y-59826546D01*
X78059585Y-59749606D01*
X77901765Y-59639918D01*
X77768261Y-59501670D01*
X77664153Y-59340127D01*
X77593404Y-59161434D01*
X77558709Y-58972398D01*
X77561393Y-58780230D01*
X77601350Y-58592245D01*
X77677063Y-58415596D01*
X77785642Y-58257019D01*
X77922957Y-58122550D01*
X78083772Y-58017315D01*
X78261966Y-57945320D01*
X78450747Y-57909309D01*
X78642933Y-57910651D01*
X78642933Y-57910651D01*
G37*
G36*
X101502933Y-57910651D02*
X101691198Y-57949296D01*
X101868369Y-58023772D01*
X102027697Y-58131239D01*
X102163123Y-58267615D01*
X102269480Y-58427693D01*
X102342713Y-58605374D01*
X102379976Y-58793562D01*
X102379976Y-58793572D01*
X102380042Y-58793906D01*
X102376977Y-59013421D01*
X102376901Y-59013755D01*
X102376901Y-59013766D01*
X102334400Y-59200833D01*
X102256230Y-59376406D01*
X102145448Y-59533451D01*
X102006266Y-59665992D01*
X101844000Y-59768968D01*
X101664817Y-59838470D01*
X101475551Y-59871842D01*
X101283405Y-59867817D01*
X101095695Y-59826546D01*
X100919585Y-59749606D01*
X100761765Y-59639918D01*
X100628261Y-59501670D01*
X100524153Y-59340127D01*
X100453404Y-59161434D01*
X100418709Y-58972398D01*
X100421393Y-58780230D01*
X100461350Y-58592245D01*
X100537063Y-58415596D01*
X100645642Y-58257019D01*
X100782957Y-58122550D01*
X100943772Y-58017315D01*
X101121966Y-57945320D01*
X101310747Y-57909309D01*
X101502933Y-57910651D01*
X101502933Y-57910651D01*
G37*
M02*
