M48
;DRILL file {KiCad (5.0.0-3-g5ebb6b6)} date Tuesday, 06 November 2018 at 19:13:40
;FORMAT={-:-/ absolute / inch / decimal}
FMAT,2
INCH,TZ
T1C0.0157
T2C0.0394
T3C0.0394
T4C0.0400
T5C0.0472
T6C0.0512
T7C0.0551
%
G90
G05
M72
T1
X2.9724Y-2.3228
X3.0906Y-3.1693
X3.189Y-3.3268
X3.248Y-2.8543
X3.2874Y-3.1496
X3.3465Y-3.1496
X3.5906Y-2.6181
X3.5925Y-2.8248
X3.9862Y-3.2087
X3.9862Y-3.2579
T2
X3.0921Y-2.3185
X3.0921Y-2.4185
X3.0921Y-2.5185
X3.0921Y-2.6185
X3.0921Y-2.7185
X3.0921Y-2.8185
X3.0921Y-2.9185
X3.0921Y-3.0185
X3.9921Y-2.3185
X3.9921Y-2.4185
X3.9921Y-2.5185
X3.9921Y-2.6185
X3.9921Y-2.7185
X3.9921Y-2.8185
X3.9921Y-2.9185
X3.9921Y-3.0185
T3
X2.5158Y-2.7559
X2.815Y-2.7559
T4
X4.15Y-3.1
X4.15Y-3.2
X4.15Y-3.3
X4.15Y-3.4
X4.15Y-3.5
X4.25Y-3.2
X4.25Y-3.3
X4.25Y-3.4
X4.25Y-3.5
X4.25Y-2.7
X4.25Y-2.8
T5
X3.2835Y-3.998
X3.4213Y-3.998
X3.5591Y-3.998
X3.6969Y-3.998
X3.8346Y-3.998
X3.9724Y-3.998
X4.1102Y-3.998
X4.248Y-3.998
T6
X2.4665Y-3.1437
X2.4665Y-3.6437
X2.7657Y-3.1437
X2.7657Y-3.7437
T7
X2.5217Y-3.9193
X2.7185Y-3.9193
T0
M30
