G04 #@! TF.FileFunction,Copper,L1,Top,Signal*
%FSLAX46Y46*%
G04 Gerber Fmt 4.6, Leading zero omitted, Abs format (unit mm)*
G04 Created by KiCad (PCBNEW 4.0.4+dfsg1-stable) date Wed Dec  7 00:54:42 2016*
%MOMM*%
%LPD*%
G01*
G04 APERTURE LIST*
%ADD10C,0.100000*%
%ADD11R,0.800100X0.800100*%
%ADD12R,1.800000X3.600000*%
%ADD13O,1.800000X3.600000*%
%ADD14R,1.250000X1.000000*%
%ADD15R,1.000000X1.250000*%
%ADD16R,0.800000X0.750000*%
%ADD17R,1.800860X2.499360*%
%ADD18R,0.700000X0.600000*%
%ADD19R,1.727200X2.032000*%
%ADD20O,1.727200X2.032000*%
%ADD21R,2.032000X1.727200*%
%ADD22O,2.032000X1.727200*%
%ADD23R,2.032000X2.032000*%
%ADD24O,2.032000X2.032000*%
%ADD25R,0.500000X0.900000*%
%ADD26R,0.900000X0.500000*%
%ADD27C,2.000000*%
%ADD28R,2.032000X3.657600*%
%ADD29R,2.032000X1.016000*%
%ADD30R,2.400000X1.100000*%
%ADD31O,2.400000X1.100000*%
%ADD32R,2.100000X3.600000*%
%ADD33O,2.100000X3.600000*%
%ADD34C,2.600000*%
%ADD35C,0.609600*%
%ADD36C,0.600000*%
%ADD37C,0.508000*%
%ADD38C,0.254000*%
G04 APERTURE END LIST*
D10*
D11*
X78650000Y-73150000D03*
X76750000Y-73150000D03*
X77700000Y-75148980D03*
D12*
X83400000Y-101550000D03*
D13*
X86900000Y-101550000D03*
X90400000Y-101550000D03*
X93900000Y-101550000D03*
X97400000Y-101550000D03*
X100900000Y-101550000D03*
X104400000Y-101550000D03*
X107900000Y-101550000D03*
D14*
X103500000Y-86500000D03*
X103500000Y-88500000D03*
X103500000Y-83000000D03*
X103500000Y-81000000D03*
D15*
X79010000Y-86360000D03*
X81010000Y-86360000D03*
D16*
X91750000Y-75600000D03*
X93250000Y-75600000D03*
D17*
X74500000Y-77900000D03*
X74500000Y-81897960D03*
D18*
X76000000Y-66000000D03*
X76000000Y-64600000D03*
D19*
X85064600Y-96164400D03*
D20*
X87604600Y-96164400D03*
X90144600Y-96164400D03*
X92684600Y-96164400D03*
D19*
X85064600Y-93624400D03*
D20*
X87604600Y-93624400D03*
X90144600Y-93624400D03*
X92684600Y-93624400D03*
X95224600Y-93624400D03*
D21*
X107950000Y-77470000D03*
D22*
X107950000Y-74930000D03*
X107950000Y-72390000D03*
X107950000Y-69850000D03*
X107950000Y-67310000D03*
X107950000Y-64770000D03*
D23*
X107950000Y-90170000D03*
D24*
X107950000Y-87630000D03*
D23*
X107950000Y-85090000D03*
D24*
X107950000Y-82550000D03*
D11*
X72000000Y-61000000D03*
X72000000Y-59100000D03*
X70001020Y-60050000D03*
D25*
X78450000Y-70650000D03*
X76950000Y-70650000D03*
D26*
X104000000Y-73500000D03*
X104000000Y-75000000D03*
D25*
X78500000Y-94500000D03*
X80000000Y-94500000D03*
X78500000Y-97000000D03*
X80000000Y-97000000D03*
X81000000Y-62000000D03*
X79500000Y-62000000D03*
X80000000Y-89500000D03*
X78500000Y-89500000D03*
X78500000Y-92000000D03*
X80000000Y-92000000D03*
X100500000Y-94000000D03*
X99000000Y-94000000D03*
X100500000Y-96500000D03*
X99000000Y-96500000D03*
X79500000Y-65000000D03*
X81000000Y-65000000D03*
X79500000Y-59000000D03*
X81000000Y-59000000D03*
D26*
X104000000Y-67000000D03*
X104000000Y-65500000D03*
X74500000Y-60800000D03*
X74500000Y-59300000D03*
X104000000Y-71000000D03*
X104000000Y-69500000D03*
D27*
X63900320Y-70000000D03*
X71500000Y-70000000D03*
D28*
X92896000Y-85000000D03*
D29*
X99500000Y-85000000D03*
X99500000Y-82714000D03*
X99500000Y-87286000D03*
D30*
X84500000Y-59000000D03*
D31*
X84500000Y-61000000D03*
X84500000Y-63000000D03*
X84500000Y-65000000D03*
X84500000Y-67000000D03*
X84500000Y-69000000D03*
X84500000Y-71000000D03*
X84500000Y-73000000D03*
X100500000Y-73000000D03*
X100500000Y-71000000D03*
X100500000Y-69000000D03*
X100500000Y-67000000D03*
X100500000Y-65000000D03*
X100500000Y-63000000D03*
X100500000Y-61000000D03*
X100500000Y-59000000D03*
D32*
X64050000Y-99550000D03*
D33*
X69050000Y-99550000D03*
D34*
X62650000Y-79850000D03*
X70250000Y-79850000D03*
X70250000Y-95090000D03*
X62650000Y-92550000D03*
D35*
X76500000Y-78000000D03*
X81500000Y-83000000D03*
X74500000Y-74500000D03*
X103987600Y-90500200D03*
X77000000Y-58500000D03*
D36*
X105800000Y-73600000D03*
X103100000Y-76300000D03*
X78130400Y-59080400D03*
X80060800Y-63576200D03*
X87000000Y-71000000D03*
X87000000Y-69000000D03*
X103000000Y-68300000D03*
X98000000Y-72000000D03*
X88400000Y-68300000D03*
D35*
X96600000Y-61250000D03*
D36*
X97000000Y-67000000D03*
X87500000Y-67000000D03*
X78000000Y-68500000D03*
X93600000Y-62400000D03*
X94300000Y-63800000D03*
D37*
X103500000Y-86500000D02*
X104633000Y-86500000D01*
X104633000Y-86500000D02*
X105000000Y-86867000D01*
X105000000Y-86867000D02*
X105000000Y-91900000D01*
X105000000Y-91900000D02*
X103800000Y-93100000D01*
X103800000Y-93100000D02*
X103800000Y-96550000D01*
X103800000Y-96550000D02*
X105750000Y-98500000D01*
X105750000Y-98500000D02*
X105850000Y-98600000D01*
X105850000Y-98600000D02*
X107900000Y-100650000D01*
X87604600Y-96164400D02*
X87604600Y-96316800D01*
X87604600Y-96316800D02*
X89887800Y-98600000D01*
X89887800Y-98600000D02*
X105850000Y-98600000D01*
X70250000Y-79850000D02*
X63900320Y-73500320D01*
X63900320Y-73500320D02*
X63900320Y-70000000D01*
X74500000Y-77900000D02*
X73345570Y-77900000D01*
X71395570Y-79850000D02*
X70250000Y-79850000D01*
X73345570Y-77900000D02*
X71395570Y-79850000D01*
X81500000Y-83000000D02*
X82500000Y-84000000D01*
X82500000Y-84000000D02*
X82500000Y-90800000D01*
X82500000Y-90800000D02*
X83100000Y-91400000D01*
X83100000Y-91400000D02*
X86650200Y-91400000D01*
X86650200Y-91400000D02*
X87604600Y-92354400D01*
X87604600Y-92354400D02*
X87604600Y-93624400D01*
X99500000Y-82714000D02*
X100008000Y-82714000D01*
X100008000Y-82714000D02*
X103500000Y-86206000D01*
X103500000Y-86206000D02*
X103500000Y-86500000D01*
X76500000Y-78000000D02*
X74600000Y-78000000D01*
X74600000Y-78000000D02*
X74500000Y-77900000D01*
X87604600Y-93624400D02*
X87604600Y-93472000D01*
X107900000Y-100650000D02*
X107900000Y-101550000D01*
X87604600Y-93624400D02*
X87604600Y-96164400D01*
X103500000Y-86500000D02*
X103625000Y-86500000D01*
X76750000Y-73150000D02*
X75850000Y-73150000D01*
X75850000Y-73150000D02*
X74500000Y-74500000D01*
X103500000Y-88500000D02*
X103500000Y-90012600D01*
X103500000Y-90012600D02*
X103987600Y-90500200D01*
X103500000Y-88500000D02*
X100714000Y-88500000D01*
X100714000Y-88500000D02*
X99500000Y-87286000D01*
X104000000Y-75000000D02*
X104200000Y-75000000D01*
X104200000Y-75000000D02*
X106670000Y-77470000D01*
X106670000Y-77470000D02*
X107950000Y-77470000D01*
X103500000Y-81000000D02*
X105537600Y-81000000D01*
X105537600Y-81000000D02*
X107950000Y-78587600D01*
X107950000Y-78587600D02*
X107950000Y-77470000D01*
X81010000Y-86360000D02*
X81010000Y-91494000D01*
X81010000Y-91494000D02*
X80504000Y-92000000D01*
X80504000Y-92000000D02*
X80000000Y-92000000D01*
D38*
X76000000Y-66000000D02*
X76000000Y-70204000D01*
X76000000Y-70204000D02*
X76446000Y-70650000D01*
X76446000Y-70650000D02*
X76950000Y-70650000D01*
X76950000Y-70650000D02*
X76950000Y-72950000D01*
D37*
X76950000Y-72950000D02*
X76750000Y-73150000D01*
X81424400Y-93624400D02*
X81000000Y-93200000D01*
X81000000Y-93200000D02*
X80000000Y-92200000D01*
X81010000Y-93190000D02*
X81000000Y-93200000D01*
X85064600Y-93624400D02*
X81424400Y-93624400D01*
X80000000Y-92200000D02*
X80000000Y-92000000D01*
X93250000Y-75600000D02*
X98704000Y-75600000D01*
X98704000Y-75600000D02*
X100500000Y-73804000D01*
X100500000Y-73804000D02*
X100500000Y-73000000D01*
X74500000Y-59300000D02*
X76200000Y-59300000D01*
X76200000Y-59300000D02*
X77000000Y-58500000D01*
X72000000Y-59100000D02*
X74300000Y-59100000D01*
X74300000Y-59100000D02*
X74500000Y-59300000D01*
X103150000Y-75000000D02*
X104000000Y-75000000D01*
X100500000Y-73000000D02*
X101150000Y-73000000D01*
X101150000Y-73000000D02*
X103150000Y-75000000D01*
D38*
X79500000Y-66100000D02*
X81830000Y-68430000D01*
X81830000Y-68430000D02*
X81830000Y-70250000D01*
X79500000Y-65000000D02*
X79500000Y-66100000D01*
X104000000Y-71000000D02*
X104200000Y-71000000D01*
X104200000Y-71000000D02*
X105590000Y-72390000D01*
X105590000Y-72390000D02*
X105610000Y-72390000D01*
X104000000Y-67000000D02*
X104000000Y-67504000D01*
X104000000Y-67504000D02*
X105610000Y-69114000D01*
X105610000Y-69114000D02*
X105610000Y-72390000D01*
X81830000Y-70250000D02*
X81830000Y-70980000D01*
X80000000Y-89500000D02*
X80000000Y-82700000D01*
X80000000Y-82700000D02*
X81830000Y-80870000D01*
X81830000Y-80870000D02*
X81830000Y-70250000D01*
D37*
X97100000Y-81500000D02*
X98800000Y-81500000D01*
X97100000Y-81500000D02*
X97100000Y-85000000D01*
X94050000Y-81500000D02*
X97100000Y-81500000D01*
X96700000Y-85000000D02*
X97100000Y-85000000D01*
X97100000Y-85000000D02*
X97500000Y-85000000D01*
X101121000Y-81500000D02*
X98800000Y-81500000D01*
X91750000Y-75600000D02*
X91750000Y-79200000D01*
X91750000Y-79200000D02*
X94050000Y-81500000D01*
X98800000Y-81500000D02*
X98100000Y-81500000D01*
D38*
X98100000Y-81500000D02*
X98000000Y-81500000D01*
X97675000Y-81500000D02*
X98000000Y-81500000D01*
D37*
X101121000Y-78279000D02*
X101121000Y-81500000D01*
X103100000Y-76300000D02*
X101121000Y-78279000D01*
X102621000Y-83000000D02*
X101121000Y-81500000D01*
X103500000Y-83000000D02*
X102621000Y-83000000D01*
X105600000Y-73400000D02*
X105800000Y-73600000D01*
X105600000Y-72400000D02*
X105600000Y-73400000D01*
D38*
X78130400Y-59080400D02*
X79419600Y-59080400D01*
X79419600Y-59080400D02*
X79500000Y-59000000D01*
X79500000Y-65000000D02*
X79500000Y-64137000D01*
X79500000Y-64137000D02*
X80060800Y-63576200D01*
D37*
X84500000Y-73000000D02*
X89150000Y-73000000D01*
X89150000Y-73000000D02*
X91750000Y-75600000D01*
D38*
X104000000Y-67000000D02*
X104200000Y-67000000D01*
X91725000Y-75600000D02*
X91750000Y-75600000D01*
D37*
X92896000Y-85000000D02*
X96700000Y-85000000D01*
D38*
X100500000Y-92300000D02*
X96700000Y-88500000D01*
X96700000Y-88500000D02*
X96700000Y-85000000D01*
X100500000Y-94000000D02*
X100500000Y-92300000D01*
X100500000Y-94000000D02*
X100500000Y-96500000D01*
X91750000Y-75600000D02*
X91775000Y-75600000D01*
X81830000Y-70980000D02*
X83850000Y-73000000D01*
X83850000Y-73000000D02*
X84500000Y-73000000D01*
X79500000Y-65000000D02*
X79500000Y-65200000D01*
D37*
X97500000Y-85000000D02*
X99500000Y-85000000D01*
D38*
X105600000Y-72400000D02*
X105610000Y-72390000D01*
D37*
X105610000Y-72390000D02*
X107950000Y-72390000D01*
X72109330Y-83134200D02*
X65934200Y-83134200D01*
X65934200Y-83134200D02*
X62650000Y-79850000D01*
X74500000Y-81897960D02*
X73345570Y-81897960D01*
X73345570Y-81897960D02*
X72109330Y-83134200D01*
X77700000Y-80150000D02*
X75952040Y-81897960D01*
X75952040Y-81897960D02*
X74500000Y-81897960D01*
X77700000Y-75148980D02*
X77700000Y-80150000D01*
D38*
X81900000Y-60750000D02*
X82150000Y-61000000D01*
X82150000Y-61000000D02*
X84500000Y-61000000D01*
X81000000Y-60750000D02*
X81900000Y-60750000D01*
X81000000Y-62000000D02*
X81000000Y-60750000D01*
X81000000Y-60750000D02*
X78750000Y-60750000D01*
X78750000Y-60750000D02*
X76000000Y-63500000D01*
X76000000Y-63500000D02*
X76000000Y-64600000D01*
X81000000Y-62200000D02*
X81000000Y-62000000D01*
X87000000Y-71000000D02*
X84500000Y-71000000D01*
X90144600Y-96164400D02*
X90144600Y-97434400D01*
X90144600Y-97434400D02*
X90421610Y-97711410D01*
X90421610Y-97711410D02*
X97284590Y-97711410D01*
X97284590Y-97711410D02*
X98496000Y-96500000D01*
X98496000Y-96500000D02*
X99000000Y-96500000D01*
X90144600Y-93624400D02*
X90144600Y-94894400D01*
X90144600Y-94894400D02*
X90144600Y-96164400D01*
X87000000Y-69000000D02*
X84500000Y-69000000D01*
X96335600Y-96164400D02*
X96335600Y-96160400D01*
X96335600Y-96160400D02*
X98496000Y-94000000D01*
X98496000Y-94000000D02*
X99000000Y-94000000D01*
X92684600Y-96164400D02*
X96335600Y-96164400D01*
X92684600Y-93624400D02*
X92684600Y-96164400D01*
X103000000Y-68300000D02*
X102300000Y-69000000D01*
X102300000Y-69000000D02*
X102100000Y-69000000D01*
X88400000Y-68300000D02*
X94300000Y-68300000D01*
X94300000Y-68300000D02*
X98000000Y-72000000D01*
X100500000Y-69000000D02*
X102100000Y-69000000D01*
X102600000Y-69500000D02*
X104000000Y-69500000D01*
X102100000Y-69000000D02*
X102600000Y-69500000D01*
X105600000Y-64646000D02*
X105600000Y-67652400D01*
X105600000Y-67652400D02*
X107797600Y-69850000D01*
X107797600Y-69850000D02*
X107950000Y-69850000D01*
X100500000Y-61000000D02*
X101954000Y-61000000D01*
X101954000Y-61000000D02*
X105600000Y-64646000D01*
X100500000Y-61000000D02*
X101150000Y-61000000D01*
X106552990Y-63598990D02*
X106552990Y-66065390D01*
X100500000Y-59000000D02*
X101954000Y-59000000D01*
X101954000Y-59000000D02*
X106552990Y-63598990D01*
X106552990Y-66065390D02*
X107797600Y-67310000D01*
X107797600Y-67310000D02*
X107950000Y-67310000D01*
X96600000Y-61250000D02*
X96600000Y-60818948D01*
X96600000Y-60818948D02*
X94781052Y-59000000D01*
X94781052Y-59000000D02*
X92746798Y-59000000D01*
X84500000Y-59000000D02*
X92746798Y-59000000D01*
X81000000Y-59000000D02*
X84500000Y-59000000D01*
X97000000Y-67000000D02*
X100500000Y-67000000D01*
X101600000Y-67000000D02*
X103100000Y-65500000D01*
X103100000Y-65500000D02*
X104000000Y-65500000D01*
X100500000Y-67000000D02*
X101600000Y-67000000D01*
X87500000Y-67000000D02*
X84500000Y-67000000D01*
X78450000Y-70650000D02*
X78450000Y-68950000D01*
X78450000Y-68950000D02*
X78000000Y-68500000D01*
X78650000Y-73150000D02*
X78650000Y-70850000D01*
X78650000Y-70850000D02*
X78450000Y-70650000D01*
X87498990Y-59998990D02*
X98500000Y-71000000D01*
X98500000Y-71000000D02*
X100500000Y-71000000D01*
X74500000Y-60800000D02*
X76654000Y-60800000D01*
X77455010Y-59998990D02*
X87498990Y-59998990D01*
X76654000Y-60800000D02*
X77455010Y-59998990D01*
X72000000Y-61000000D02*
X74300000Y-61000000D01*
X74300000Y-61000000D02*
X74500000Y-60800000D01*
X101150000Y-71000000D02*
X103650000Y-73500000D01*
X103650000Y-73500000D02*
X104000000Y-73500000D01*
X100500000Y-71000000D02*
X101150000Y-71000000D01*
D37*
X71500000Y-70000000D02*
X70001020Y-68501020D01*
X70001020Y-68501020D02*
X70001020Y-60050000D01*
D38*
X81850000Y-65000000D02*
X81000000Y-65000000D01*
X84500000Y-63000000D02*
X83850000Y-63000000D01*
X83850000Y-63000000D02*
X81850000Y-65000000D01*
X94600000Y-62400000D02*
X95200000Y-63000000D01*
X95200000Y-63000000D02*
X100500000Y-63000000D01*
X93600000Y-62400000D02*
X94600000Y-62400000D01*
X94300000Y-63800000D02*
X95500000Y-65000000D01*
X95500000Y-65000000D02*
X100500000Y-65000000D01*
X78500000Y-92000000D02*
X78500000Y-92800000D01*
X78500000Y-92800000D02*
X79000000Y-93300000D01*
X79000000Y-93300000D02*
X79504000Y-93300000D01*
X79504000Y-93300000D02*
X80000000Y-93796000D01*
X80000000Y-93796000D02*
X80000000Y-94500000D01*
X80000000Y-97000000D02*
X82850000Y-97000000D01*
X82850000Y-97000000D02*
X86900000Y-101050000D01*
X86900000Y-101050000D02*
X86900000Y-101550000D01*
X78500000Y-88000000D02*
X79010000Y-87490000D01*
X79010000Y-87490000D02*
X79010000Y-86360000D01*
X78500000Y-89500000D02*
X78500000Y-88000000D01*
X78500000Y-92000000D02*
X78500000Y-89500000D01*
X80000000Y-94500000D02*
X80000000Y-94300000D01*
X80000000Y-97000000D02*
X80000000Y-94500000D01*
X78000000Y-66500000D02*
X78000000Y-64204000D01*
X78000000Y-64204000D02*
X79500000Y-62704000D01*
X79500000Y-62704000D02*
X79500000Y-62000000D01*
X80368999Y-68868999D02*
X78000000Y-66500000D01*
X77668999Y-82411001D02*
X80368999Y-79711001D01*
X80368999Y-79711001D02*
X80368999Y-68868999D01*
X78500000Y-94500000D02*
X78500000Y-93996000D01*
X78500000Y-93996000D02*
X77668999Y-93164999D01*
X77668999Y-93164999D02*
X77668999Y-82411001D01*
X82500000Y-98400000D02*
X83400000Y-99300000D01*
X83400000Y-99300000D02*
X83400000Y-101550000D01*
X79196000Y-98400000D02*
X82500000Y-98400000D01*
X78500000Y-97000000D02*
X78500000Y-97704000D01*
X78500000Y-97704000D02*
X79196000Y-98400000D01*
X78500000Y-97000000D02*
X78500000Y-94500000D01*
G36*
X97033130Y-77395752D02*
X97315545Y-77584455D01*
X97504248Y-77866870D01*
X97573000Y-78212509D01*
X97573000Y-88987491D01*
X97504248Y-89333130D01*
X97315545Y-89615545D01*
X97033130Y-89804248D01*
X96687491Y-89873000D01*
X85112509Y-89873000D01*
X84766870Y-89804248D01*
X84484455Y-89615545D01*
X84295752Y-89333130D01*
X84227000Y-88987491D01*
X84227000Y-78212509D01*
X84295752Y-77866870D01*
X84484455Y-77584455D01*
X84766870Y-77395752D01*
X85112509Y-77327000D01*
X96687491Y-77327000D01*
X97033130Y-77395752D01*
X97033130Y-77395752D01*
G37*
X97033130Y-77395752D02*
X97315545Y-77584455D01*
X97504248Y-77866870D01*
X97573000Y-78212509D01*
X97573000Y-88987491D01*
X97504248Y-89333130D01*
X97315545Y-89615545D01*
X97033130Y-89804248D01*
X96687491Y-89873000D01*
X85112509Y-89873000D01*
X84766870Y-89804248D01*
X84484455Y-89615545D01*
X84295752Y-89333130D01*
X84227000Y-88987491D01*
X84227000Y-78212509D01*
X84295752Y-77866870D01*
X84484455Y-77584455D01*
X84766870Y-77395752D01*
X85112509Y-77327000D01*
X96687491Y-77327000D01*
X97033130Y-77395752D01*
M02*
