M48
;DRILL file {KiCad 4.0.4-stable} date Sunday, 30 October 2016 'PMt' 23:49:14
;FORMAT={-:-/ absolute / metric / decimal}
FMAT,2
METRIC,TZ
T1C0.400
T2C1.001
T3C1.016
T4C1.200
T5C1.300
T6C1.400
T7C3.100
%
G90
G05
M71
T1
X74.5Y-74.5
X76.5Y-78.
X77.Y-58.5
X78.Y-68.5
X78.13Y-59.08
X80.061Y-63.576
X81.5Y-83.
X87.Y-69.
X87.Y-71.
X87.5Y-67.
X88.4Y-68.3
X93.6Y-62.4
X94.3Y-63.8
X96.6Y-61.25
X97.Y-67.
X98.Y-72.
X103.Y-68.3
X103.1Y-76.3
X103.988Y-90.5
X105.8Y-73.6
T2
X63.9Y-70.
X71.5Y-70.
T3
X85.065Y-93.624
X85.065Y-96.164
X87.605Y-93.624
X87.605Y-96.164
X90.145Y-93.624
X90.145Y-96.164
X92.685Y-93.624
X92.685Y-96.164
X95.225Y-93.624
X107.95Y-64.77
X107.95Y-67.31
X107.95Y-69.85
X107.95Y-72.39
X107.95Y-74.93
X107.95Y-77.47
X107.95Y-82.55
X107.95Y-85.09
X107.95Y-87.63
X107.95Y-90.17
T4
X83.4Y-101.55
X86.9Y-101.55
X90.4Y-101.55
X93.9Y-101.55
X97.4Y-101.55
X100.9Y-101.55
X104.4Y-101.55
X107.9Y-101.55
T5
X62.65Y-79.85
X62.65Y-95.09
X70.25Y-79.85
X70.25Y-92.55
T6
X64.05Y-99.55
X69.05Y-99.55
T7
X63.45Y-59.35
X76.75Y-103.35
X107.45Y-59.35
X107.45Y-95.4
T0
M30
