G04 #@! TF.FileFunction,Soldermask,Top*
%FSLAX46Y46*%
G04 Gerber Fmt 4.6, Leading zero omitted, Abs format (unit mm)*
G04 Created by KiCad (PCBNEW 4.0.4-stable) date Sunday, 30 October 2016 'PMt' 23:49:13*
%MOMM*%
%LPD*%
G01*
G04 APERTURE LIST*
%ADD10C,0.100000*%
G04 APERTURE END LIST*
D10*
G36*
X87107062Y-99631693D02*
X87107067Y-99631694D01*
X87107110Y-99631699D01*
X87299141Y-99691143D01*
X87475969Y-99786753D01*
X87630858Y-99914889D01*
X87757909Y-100070669D01*
X87852282Y-100248160D01*
X87910384Y-100440601D01*
X87930000Y-100640662D01*
X87930000Y-102459338D01*
X87929900Y-102473719D01*
X87907492Y-102673487D01*
X87846709Y-102865098D01*
X87749867Y-103041254D01*
X87620653Y-103195245D01*
X87463990Y-103321205D01*
X87285845Y-103414337D01*
X87093003Y-103471094D01*
X87092969Y-103471097D01*
X87092956Y-103471101D01*
X86892812Y-103489316D01*
X86692938Y-103468307D01*
X86692933Y-103468306D01*
X86692890Y-103468301D01*
X86500859Y-103408857D01*
X86324031Y-103313247D01*
X86169142Y-103185111D01*
X86042091Y-103029331D01*
X85947718Y-102851840D01*
X85889616Y-102659399D01*
X85870000Y-102459338D01*
X85870000Y-100640662D01*
X85870100Y-100626281D01*
X85892508Y-100426513D01*
X85953291Y-100234902D01*
X86050133Y-100058746D01*
X86179347Y-99904755D01*
X86336010Y-99778795D01*
X86514155Y-99685663D01*
X86706997Y-99628906D01*
X86707031Y-99628903D01*
X86707044Y-99628899D01*
X86907188Y-99610684D01*
X87107062Y-99631693D01*
X87107062Y-99631693D01*
G37*
G36*
X90607062Y-99631693D02*
X90607067Y-99631694D01*
X90607110Y-99631699D01*
X90799141Y-99691143D01*
X90975969Y-99786753D01*
X91130858Y-99914889D01*
X91257909Y-100070669D01*
X91352282Y-100248160D01*
X91410384Y-100440601D01*
X91430000Y-100640662D01*
X91430000Y-102459338D01*
X91429900Y-102473719D01*
X91407492Y-102673487D01*
X91346709Y-102865098D01*
X91249867Y-103041254D01*
X91120653Y-103195245D01*
X90963990Y-103321205D01*
X90785845Y-103414337D01*
X90593003Y-103471094D01*
X90592969Y-103471097D01*
X90592956Y-103471101D01*
X90392812Y-103489316D01*
X90192938Y-103468307D01*
X90192933Y-103468306D01*
X90192890Y-103468301D01*
X90000859Y-103408857D01*
X89824031Y-103313247D01*
X89669142Y-103185111D01*
X89542091Y-103029331D01*
X89447718Y-102851840D01*
X89389616Y-102659399D01*
X89370000Y-102459338D01*
X89370000Y-100640662D01*
X89370100Y-100626281D01*
X89392508Y-100426513D01*
X89453291Y-100234902D01*
X89550133Y-100058746D01*
X89679347Y-99904755D01*
X89836010Y-99778795D01*
X90014155Y-99685663D01*
X90206997Y-99628906D01*
X90207031Y-99628903D01*
X90207044Y-99628899D01*
X90407188Y-99610684D01*
X90607062Y-99631693D01*
X90607062Y-99631693D01*
G37*
G36*
X94107062Y-99631693D02*
X94107067Y-99631694D01*
X94107110Y-99631699D01*
X94299141Y-99691143D01*
X94475969Y-99786753D01*
X94630858Y-99914889D01*
X94757909Y-100070669D01*
X94852282Y-100248160D01*
X94910384Y-100440601D01*
X94930000Y-100640662D01*
X94930000Y-102459338D01*
X94929900Y-102473719D01*
X94907492Y-102673487D01*
X94846709Y-102865098D01*
X94749867Y-103041254D01*
X94620653Y-103195245D01*
X94463990Y-103321205D01*
X94285845Y-103414337D01*
X94093003Y-103471094D01*
X94092969Y-103471097D01*
X94092956Y-103471101D01*
X93892812Y-103489316D01*
X93692938Y-103468307D01*
X93692933Y-103468306D01*
X93692890Y-103468301D01*
X93500859Y-103408857D01*
X93324031Y-103313247D01*
X93169142Y-103185111D01*
X93042091Y-103029331D01*
X92947718Y-102851840D01*
X92889616Y-102659399D01*
X92870000Y-102459338D01*
X92870000Y-100640662D01*
X92870100Y-100626281D01*
X92892508Y-100426513D01*
X92953291Y-100234902D01*
X93050133Y-100058746D01*
X93179347Y-99904755D01*
X93336010Y-99778795D01*
X93514155Y-99685663D01*
X93706997Y-99628906D01*
X93707031Y-99628903D01*
X93707044Y-99628899D01*
X93907188Y-99610684D01*
X94107062Y-99631693D01*
X94107062Y-99631693D01*
G37*
G36*
X97607062Y-99631693D02*
X97607067Y-99631694D01*
X97607110Y-99631699D01*
X97799141Y-99691143D01*
X97975969Y-99786753D01*
X98130858Y-99914889D01*
X98257909Y-100070669D01*
X98352282Y-100248160D01*
X98410384Y-100440601D01*
X98430000Y-100640662D01*
X98430000Y-102459338D01*
X98429900Y-102473719D01*
X98407492Y-102673487D01*
X98346709Y-102865098D01*
X98249867Y-103041254D01*
X98120653Y-103195245D01*
X97963990Y-103321205D01*
X97785845Y-103414337D01*
X97593003Y-103471094D01*
X97592969Y-103471097D01*
X97592956Y-103471101D01*
X97392812Y-103489316D01*
X97192938Y-103468307D01*
X97192933Y-103468306D01*
X97192890Y-103468301D01*
X97000859Y-103408857D01*
X96824031Y-103313247D01*
X96669142Y-103185111D01*
X96542091Y-103029331D01*
X96447718Y-102851840D01*
X96389616Y-102659399D01*
X96370000Y-102459338D01*
X96370000Y-100640662D01*
X96370100Y-100626281D01*
X96392508Y-100426513D01*
X96453291Y-100234902D01*
X96550133Y-100058746D01*
X96679347Y-99904755D01*
X96836010Y-99778795D01*
X97014155Y-99685663D01*
X97206997Y-99628906D01*
X97207031Y-99628903D01*
X97207044Y-99628899D01*
X97407188Y-99610684D01*
X97607062Y-99631693D01*
X97607062Y-99631693D01*
G37*
G36*
X101107062Y-99631693D02*
X101107067Y-99631694D01*
X101107110Y-99631699D01*
X101299141Y-99691143D01*
X101475969Y-99786753D01*
X101630858Y-99914889D01*
X101757909Y-100070669D01*
X101852282Y-100248160D01*
X101910384Y-100440601D01*
X101930000Y-100640662D01*
X101930000Y-102459338D01*
X101929900Y-102473719D01*
X101907492Y-102673487D01*
X101846709Y-102865098D01*
X101749867Y-103041254D01*
X101620653Y-103195245D01*
X101463990Y-103321205D01*
X101285845Y-103414337D01*
X101093003Y-103471094D01*
X101092969Y-103471097D01*
X101092956Y-103471101D01*
X100892812Y-103489316D01*
X100692938Y-103468307D01*
X100692933Y-103468306D01*
X100692890Y-103468301D01*
X100500859Y-103408857D01*
X100324031Y-103313247D01*
X100169142Y-103185111D01*
X100042091Y-103029331D01*
X99947718Y-102851840D01*
X99889616Y-102659399D01*
X99870000Y-102459338D01*
X99870000Y-100640662D01*
X99870100Y-100626281D01*
X99892508Y-100426513D01*
X99953291Y-100234902D01*
X100050133Y-100058746D01*
X100179347Y-99904755D01*
X100336010Y-99778795D01*
X100514155Y-99685663D01*
X100706997Y-99628906D01*
X100707031Y-99628903D01*
X100707044Y-99628899D01*
X100907188Y-99610684D01*
X101107062Y-99631693D01*
X101107062Y-99631693D01*
G37*
G36*
X104607062Y-99631693D02*
X104607067Y-99631694D01*
X104607110Y-99631699D01*
X104799141Y-99691143D01*
X104975969Y-99786753D01*
X105130858Y-99914889D01*
X105257909Y-100070669D01*
X105352282Y-100248160D01*
X105410384Y-100440601D01*
X105430000Y-100640662D01*
X105430000Y-102459338D01*
X105429900Y-102473719D01*
X105407492Y-102673487D01*
X105346709Y-102865098D01*
X105249867Y-103041254D01*
X105120653Y-103195245D01*
X104963990Y-103321205D01*
X104785845Y-103414337D01*
X104593003Y-103471094D01*
X104592969Y-103471097D01*
X104592956Y-103471101D01*
X104392812Y-103489316D01*
X104192938Y-103468307D01*
X104192933Y-103468306D01*
X104192890Y-103468301D01*
X104000859Y-103408857D01*
X103824031Y-103313247D01*
X103669142Y-103185111D01*
X103542091Y-103029331D01*
X103447718Y-102851840D01*
X103389616Y-102659399D01*
X103370000Y-102459338D01*
X103370000Y-100640662D01*
X103370100Y-100626281D01*
X103392508Y-100426513D01*
X103453291Y-100234902D01*
X103550133Y-100058746D01*
X103679347Y-99904755D01*
X103836010Y-99778795D01*
X104014155Y-99685663D01*
X104206997Y-99628906D01*
X104207031Y-99628903D01*
X104207044Y-99628899D01*
X104407188Y-99610684D01*
X104607062Y-99631693D01*
X104607062Y-99631693D01*
G37*
G36*
X108107062Y-99631693D02*
X108107067Y-99631694D01*
X108107110Y-99631699D01*
X108299141Y-99691143D01*
X108475969Y-99786753D01*
X108630858Y-99914889D01*
X108757909Y-100070669D01*
X108852282Y-100248160D01*
X108910384Y-100440601D01*
X108930000Y-100640662D01*
X108930000Y-102459338D01*
X108929900Y-102473719D01*
X108907492Y-102673487D01*
X108846709Y-102865098D01*
X108749867Y-103041254D01*
X108620653Y-103195245D01*
X108463990Y-103321205D01*
X108285845Y-103414337D01*
X108093003Y-103471094D01*
X108092969Y-103471097D01*
X108092956Y-103471101D01*
X107892812Y-103489316D01*
X107692938Y-103468307D01*
X107692933Y-103468306D01*
X107692890Y-103468301D01*
X107500859Y-103408857D01*
X107324031Y-103313247D01*
X107169142Y-103185111D01*
X107042091Y-103029331D01*
X106947718Y-102851840D01*
X106889616Y-102659399D01*
X106870000Y-102459338D01*
X106870000Y-100640662D01*
X106870100Y-100626281D01*
X106892508Y-100426513D01*
X106953291Y-100234902D01*
X107050133Y-100058746D01*
X107179347Y-99904755D01*
X107336010Y-99778795D01*
X107514155Y-99685663D01*
X107706997Y-99628906D01*
X107707031Y-99628903D01*
X107707044Y-99628899D01*
X107907188Y-99610684D01*
X108107062Y-99631693D01*
X108107062Y-99631693D01*
G37*
G36*
X84430000Y-103480000D02*
X82370000Y-103480000D01*
X82370000Y-99620000D01*
X84430000Y-99620000D01*
X84430000Y-103480000D01*
X84430000Y-103480000D01*
G37*
G36*
X69287223Y-97634755D02*
X69287237Y-97634759D01*
X69287272Y-97634763D01*
X69507268Y-97702863D01*
X69709848Y-97812398D01*
X69887293Y-97959194D01*
X70032847Y-98137660D01*
X70140964Y-98340999D01*
X70207527Y-98561465D01*
X70230000Y-98790662D01*
X70230000Y-100309338D01*
X70229885Y-100325813D01*
X70204214Y-100554674D01*
X70134580Y-100774189D01*
X70023634Y-100975999D01*
X69875603Y-101152416D01*
X69696125Y-101296720D01*
X69492036Y-101403415D01*
X69271110Y-101468437D01*
X69271076Y-101468440D01*
X69271063Y-101468444D01*
X69041764Y-101489312D01*
X68812777Y-101465245D01*
X68812763Y-101465241D01*
X68812728Y-101465237D01*
X68592732Y-101397137D01*
X68390152Y-101287602D01*
X68212707Y-101140806D01*
X68067153Y-100962340D01*
X67959036Y-100759001D01*
X67892473Y-100538535D01*
X67870000Y-100309338D01*
X67870000Y-98790662D01*
X67870115Y-98774187D01*
X67895786Y-98545326D01*
X67965420Y-98325811D01*
X68076366Y-98124001D01*
X68224397Y-97947584D01*
X68403875Y-97803280D01*
X68607964Y-97696585D01*
X68828890Y-97631563D01*
X68828924Y-97631560D01*
X68828937Y-97631556D01*
X69058236Y-97610688D01*
X69287223Y-97634755D01*
X69287223Y-97634755D01*
G37*
G36*
X65230000Y-101480000D02*
X62870000Y-101480000D01*
X62870000Y-97620000D01*
X65230000Y-97620000D01*
X65230000Y-101480000D01*
X65230000Y-101480000D01*
G37*
G36*
X80380000Y-97580000D02*
X79620000Y-97580000D01*
X79620000Y-96420000D01*
X80380000Y-96420000D01*
X80380000Y-97580000D01*
X80380000Y-97580000D01*
G37*
G36*
X78880000Y-97580000D02*
X78120000Y-97580000D01*
X78120000Y-96420000D01*
X78880000Y-96420000D01*
X78880000Y-97580000D01*
X78880000Y-97580000D01*
G37*
G36*
X87804341Y-95033141D02*
X87804354Y-95033145D01*
X87804391Y-95033149D01*
X87989635Y-95090492D01*
X88160214Y-95182723D01*
X88309629Y-95306330D01*
X88432191Y-95456605D01*
X88523229Y-95627823D01*
X88579277Y-95813464D01*
X88598200Y-96006455D01*
X88598200Y-96322345D01*
X88598103Y-96336218D01*
X88576487Y-96528926D01*
X88517853Y-96713766D01*
X88424433Y-96883696D01*
X88299785Y-97032245D01*
X88148659Y-97153754D01*
X87976809Y-97243595D01*
X87790782Y-97298346D01*
X87790748Y-97298349D01*
X87790735Y-97298353D01*
X87597665Y-97315924D01*
X87404859Y-97295659D01*
X87404846Y-97295655D01*
X87404809Y-97295651D01*
X87219565Y-97238308D01*
X87048986Y-97146077D01*
X86899571Y-97022470D01*
X86777009Y-96872195D01*
X86685971Y-96700977D01*
X86629923Y-96515336D01*
X86611000Y-96322345D01*
X86611000Y-96006455D01*
X86611097Y-95992582D01*
X86632713Y-95799874D01*
X86691347Y-95615034D01*
X86784767Y-95445104D01*
X86909415Y-95296555D01*
X87060541Y-95175046D01*
X87232391Y-95085205D01*
X87418418Y-95030454D01*
X87418452Y-95030451D01*
X87418465Y-95030447D01*
X87611535Y-95012876D01*
X87804341Y-95033141D01*
X87804341Y-95033141D01*
G37*
G36*
X90344341Y-95033141D02*
X90344354Y-95033145D01*
X90344391Y-95033149D01*
X90529635Y-95090492D01*
X90700214Y-95182723D01*
X90849629Y-95306330D01*
X90972191Y-95456605D01*
X91063229Y-95627823D01*
X91119277Y-95813464D01*
X91138200Y-96006455D01*
X91138200Y-96322345D01*
X91138103Y-96336218D01*
X91116487Y-96528926D01*
X91057853Y-96713766D01*
X90964433Y-96883696D01*
X90839785Y-97032245D01*
X90688659Y-97153754D01*
X90516809Y-97243595D01*
X90330782Y-97298346D01*
X90330748Y-97298349D01*
X90330735Y-97298353D01*
X90137665Y-97315924D01*
X89944859Y-97295659D01*
X89944846Y-97295655D01*
X89944809Y-97295651D01*
X89759565Y-97238308D01*
X89588986Y-97146077D01*
X89439571Y-97022470D01*
X89317009Y-96872195D01*
X89225971Y-96700977D01*
X89169923Y-96515336D01*
X89151000Y-96322345D01*
X89151000Y-96006455D01*
X89151097Y-95992582D01*
X89172713Y-95799874D01*
X89231347Y-95615034D01*
X89324767Y-95445104D01*
X89449415Y-95296555D01*
X89600541Y-95175046D01*
X89772391Y-95085205D01*
X89958418Y-95030454D01*
X89958452Y-95030451D01*
X89958465Y-95030447D01*
X90151535Y-95012876D01*
X90344341Y-95033141D01*
X90344341Y-95033141D01*
G37*
G36*
X92884341Y-95033141D02*
X92884354Y-95033145D01*
X92884391Y-95033149D01*
X93069635Y-95090492D01*
X93240214Y-95182723D01*
X93389629Y-95306330D01*
X93512191Y-95456605D01*
X93603229Y-95627823D01*
X93659277Y-95813464D01*
X93678200Y-96006455D01*
X93678200Y-96322345D01*
X93678103Y-96336218D01*
X93656487Y-96528926D01*
X93597853Y-96713766D01*
X93504433Y-96883696D01*
X93379785Y-97032245D01*
X93228659Y-97153754D01*
X93056809Y-97243595D01*
X92870782Y-97298346D01*
X92870748Y-97298349D01*
X92870735Y-97298353D01*
X92677665Y-97315924D01*
X92484859Y-97295659D01*
X92484846Y-97295655D01*
X92484809Y-97295651D01*
X92299565Y-97238308D01*
X92128986Y-97146077D01*
X91979571Y-97022470D01*
X91857009Y-96872195D01*
X91765971Y-96700977D01*
X91709923Y-96515336D01*
X91691000Y-96322345D01*
X91691000Y-96006455D01*
X91691097Y-95992582D01*
X91712713Y-95799874D01*
X91771347Y-95615034D01*
X91864767Y-95445104D01*
X91989415Y-95296555D01*
X92140541Y-95175046D01*
X92312391Y-95085205D01*
X92498418Y-95030454D01*
X92498452Y-95030451D01*
X92498465Y-95030447D01*
X92691535Y-95012876D01*
X92884341Y-95033141D01*
X92884341Y-95033141D01*
G37*
G36*
X86058200Y-97310400D02*
X84071000Y-97310400D01*
X84071000Y-95018400D01*
X86058200Y-95018400D01*
X86058200Y-97310400D01*
X86058200Y-97310400D01*
G37*
G36*
X99380000Y-97080000D02*
X98620000Y-97080000D01*
X98620000Y-95920000D01*
X99380000Y-95920000D01*
X99380000Y-97080000D01*
X99380000Y-97080000D01*
G37*
G36*
X100880000Y-97080000D02*
X100120000Y-97080000D01*
X100120000Y-95920000D01*
X100880000Y-95920000D01*
X100880000Y-97080000D01*
X100880000Y-97080000D01*
G37*
G36*
X62800199Y-93660951D02*
X63074910Y-93717341D01*
X63333433Y-93826014D01*
X63565927Y-93982833D01*
X63763535Y-94181826D01*
X63918727Y-94415407D01*
X64025592Y-94674682D01*
X64079995Y-94949438D01*
X64079995Y-94949447D01*
X64080061Y-94949781D01*
X64075588Y-95270094D01*
X64075512Y-95270428D01*
X64075512Y-95270440D01*
X64013461Y-95543561D01*
X63899396Y-95799755D01*
X63737744Y-96028913D01*
X63534654Y-96222312D01*
X63297876Y-96372575D01*
X63036416Y-96473990D01*
X62760242Y-96522686D01*
X62479865Y-96516814D01*
X62205963Y-96456592D01*
X61948984Y-96344321D01*
X61718703Y-96184271D01*
X61523893Y-95982539D01*
X61371980Y-95746816D01*
X61268743Y-95486071D01*
X61218118Y-95210235D01*
X61222034Y-94929827D01*
X61280339Y-94655520D01*
X61390817Y-94397758D01*
X61549255Y-94166365D01*
X61749621Y-93970151D01*
X61984280Y-93816595D01*
X62244298Y-93711541D01*
X62519765Y-93658993D01*
X62800199Y-93660951D01*
X62800199Y-93660951D01*
G37*
G36*
X78880000Y-95080000D02*
X78120000Y-95080000D01*
X78120000Y-93920000D01*
X78880000Y-93920000D01*
X78880000Y-95080000D01*
X78880000Y-95080000D01*
G37*
G36*
X80380000Y-95080000D02*
X79620000Y-95080000D01*
X79620000Y-93920000D01*
X80380000Y-93920000D01*
X80380000Y-95080000D01*
X80380000Y-95080000D01*
G37*
G36*
X90344341Y-92493141D02*
X90344354Y-92493145D01*
X90344391Y-92493149D01*
X90529635Y-92550492D01*
X90700214Y-92642723D01*
X90849629Y-92766330D01*
X90972191Y-92916605D01*
X91063229Y-93087823D01*
X91119277Y-93273464D01*
X91138200Y-93466455D01*
X91138200Y-93782345D01*
X91138103Y-93796218D01*
X91116487Y-93988926D01*
X91057853Y-94173766D01*
X90964433Y-94343696D01*
X90839785Y-94492245D01*
X90688659Y-94613754D01*
X90516809Y-94703595D01*
X90330782Y-94758346D01*
X90330748Y-94758349D01*
X90330735Y-94758353D01*
X90137665Y-94775924D01*
X89944859Y-94755659D01*
X89944846Y-94755655D01*
X89944809Y-94755651D01*
X89759565Y-94698308D01*
X89588986Y-94606077D01*
X89439571Y-94482470D01*
X89317009Y-94332195D01*
X89225971Y-94160977D01*
X89169923Y-93975336D01*
X89151000Y-93782345D01*
X89151000Y-93466455D01*
X89151097Y-93452582D01*
X89172713Y-93259874D01*
X89231347Y-93075034D01*
X89324767Y-92905104D01*
X89449415Y-92756555D01*
X89600541Y-92635046D01*
X89772391Y-92545205D01*
X89958418Y-92490454D01*
X89958452Y-92490451D01*
X89958465Y-92490447D01*
X90151535Y-92472876D01*
X90344341Y-92493141D01*
X90344341Y-92493141D01*
G37*
G36*
X92884341Y-92493141D02*
X92884354Y-92493145D01*
X92884391Y-92493149D01*
X93069635Y-92550492D01*
X93240214Y-92642723D01*
X93389629Y-92766330D01*
X93512191Y-92916605D01*
X93603229Y-93087823D01*
X93659277Y-93273464D01*
X93678200Y-93466455D01*
X93678200Y-93782345D01*
X93678103Y-93796218D01*
X93656487Y-93988926D01*
X93597853Y-94173766D01*
X93504433Y-94343696D01*
X93379785Y-94492245D01*
X93228659Y-94613754D01*
X93056809Y-94703595D01*
X92870782Y-94758346D01*
X92870748Y-94758349D01*
X92870735Y-94758353D01*
X92677665Y-94775924D01*
X92484859Y-94755659D01*
X92484846Y-94755655D01*
X92484809Y-94755651D01*
X92299565Y-94698308D01*
X92128986Y-94606077D01*
X91979571Y-94482470D01*
X91857009Y-94332195D01*
X91765971Y-94160977D01*
X91709923Y-93975336D01*
X91691000Y-93782345D01*
X91691000Y-93466455D01*
X91691097Y-93452582D01*
X91712713Y-93259874D01*
X91771347Y-93075034D01*
X91864767Y-92905104D01*
X91989415Y-92756555D01*
X92140541Y-92635046D01*
X92312391Y-92545205D01*
X92498418Y-92490454D01*
X92498452Y-92490451D01*
X92498465Y-92490447D01*
X92691535Y-92472876D01*
X92884341Y-92493141D01*
X92884341Y-92493141D01*
G37*
G36*
X87804341Y-92493141D02*
X87804354Y-92493145D01*
X87804391Y-92493149D01*
X87989635Y-92550492D01*
X88160214Y-92642723D01*
X88309629Y-92766330D01*
X88432191Y-92916605D01*
X88523229Y-93087823D01*
X88579277Y-93273464D01*
X88598200Y-93466455D01*
X88598200Y-93782345D01*
X88598103Y-93796218D01*
X88576487Y-93988926D01*
X88517853Y-94173766D01*
X88424433Y-94343696D01*
X88299785Y-94492245D01*
X88148659Y-94613754D01*
X87976809Y-94703595D01*
X87790782Y-94758346D01*
X87790748Y-94758349D01*
X87790735Y-94758353D01*
X87597665Y-94775924D01*
X87404859Y-94755659D01*
X87404846Y-94755655D01*
X87404809Y-94755651D01*
X87219565Y-94698308D01*
X87048986Y-94606077D01*
X86899571Y-94482470D01*
X86777009Y-94332195D01*
X86685971Y-94160977D01*
X86629923Y-93975336D01*
X86611000Y-93782345D01*
X86611000Y-93466455D01*
X86611097Y-93452582D01*
X86632713Y-93259874D01*
X86691347Y-93075034D01*
X86784767Y-92905104D01*
X86909415Y-92756555D01*
X87060541Y-92635046D01*
X87232391Y-92545205D01*
X87418418Y-92490454D01*
X87418452Y-92490451D01*
X87418465Y-92490447D01*
X87611535Y-92472876D01*
X87804341Y-92493141D01*
X87804341Y-92493141D01*
G37*
G36*
X95424341Y-92493141D02*
X95424354Y-92493145D01*
X95424391Y-92493149D01*
X95609635Y-92550492D01*
X95780214Y-92642723D01*
X95929629Y-92766330D01*
X96052191Y-92916605D01*
X96143229Y-93087823D01*
X96199277Y-93273464D01*
X96218200Y-93466455D01*
X96218200Y-93782345D01*
X96218103Y-93796218D01*
X96196487Y-93988926D01*
X96137853Y-94173766D01*
X96044433Y-94343696D01*
X95919785Y-94492245D01*
X95768659Y-94613754D01*
X95596809Y-94703595D01*
X95410782Y-94758346D01*
X95410748Y-94758349D01*
X95410735Y-94758353D01*
X95217665Y-94775924D01*
X95024859Y-94755659D01*
X95024846Y-94755655D01*
X95024809Y-94755651D01*
X94839565Y-94698308D01*
X94668986Y-94606077D01*
X94519571Y-94482470D01*
X94397009Y-94332195D01*
X94305971Y-94160977D01*
X94249923Y-93975336D01*
X94231000Y-93782345D01*
X94231000Y-93466455D01*
X94231097Y-93452582D01*
X94252713Y-93259874D01*
X94311347Y-93075034D01*
X94404767Y-92905104D01*
X94529415Y-92756555D01*
X94680541Y-92635046D01*
X94852391Y-92545205D01*
X95038418Y-92490454D01*
X95038452Y-92490451D01*
X95038465Y-92490447D01*
X95231535Y-92472876D01*
X95424341Y-92493141D01*
X95424341Y-92493141D01*
G37*
G36*
X86058200Y-94770400D02*
X84071000Y-94770400D01*
X84071000Y-92478400D01*
X86058200Y-92478400D01*
X86058200Y-94770400D01*
X86058200Y-94770400D01*
G37*
G36*
X100880000Y-94580000D02*
X100120000Y-94580000D01*
X100120000Y-93420000D01*
X100880000Y-93420000D01*
X100880000Y-94580000D01*
X100880000Y-94580000D01*
G37*
G36*
X99380000Y-94580000D02*
X98620000Y-94580000D01*
X98620000Y-93420000D01*
X99380000Y-93420000D01*
X99380000Y-94580000D01*
X99380000Y-94580000D01*
G37*
G36*
X70400199Y-91120951D02*
X70674910Y-91177341D01*
X70933433Y-91286014D01*
X71165927Y-91442833D01*
X71363535Y-91641826D01*
X71518727Y-91875407D01*
X71625592Y-92134682D01*
X71679995Y-92409438D01*
X71679995Y-92409447D01*
X71680061Y-92409781D01*
X71675588Y-92730094D01*
X71675512Y-92730428D01*
X71675512Y-92730440D01*
X71613461Y-93003561D01*
X71499396Y-93259755D01*
X71337744Y-93488913D01*
X71134654Y-93682312D01*
X70897876Y-93832575D01*
X70636416Y-93933990D01*
X70360242Y-93982686D01*
X70079865Y-93976814D01*
X69805963Y-93916592D01*
X69548984Y-93804321D01*
X69318703Y-93644271D01*
X69123893Y-93442539D01*
X68971980Y-93206816D01*
X68868743Y-92946071D01*
X68818118Y-92670235D01*
X68822034Y-92389827D01*
X68880339Y-92115520D01*
X68990817Y-91857758D01*
X69149255Y-91626365D01*
X69349621Y-91430151D01*
X69584280Y-91276595D01*
X69844298Y-91171541D01*
X70119765Y-91118993D01*
X70400199Y-91120951D01*
X70400199Y-91120951D01*
G37*
G36*
X78880000Y-92580000D02*
X78120000Y-92580000D01*
X78120000Y-91420000D01*
X78880000Y-91420000D01*
X78880000Y-92580000D01*
X78880000Y-92580000D01*
G37*
G36*
X80380000Y-92580000D02*
X79620000Y-92580000D01*
X79620000Y-91420000D01*
X80380000Y-91420000D01*
X80380000Y-92580000D01*
X80380000Y-92580000D01*
G37*
G36*
X109096000Y-91316000D02*
X106804000Y-91316000D01*
X106804000Y-89024000D01*
X109096000Y-89024000D01*
X109096000Y-91316000D01*
X109096000Y-91316000D01*
G37*
G36*
X78880000Y-90080000D02*
X78120000Y-90080000D01*
X78120000Y-88920000D01*
X78880000Y-88920000D01*
X78880000Y-90080000D01*
X78880000Y-90080000D01*
G37*
G36*
X80380000Y-90080000D02*
X79620000Y-90080000D01*
X79620000Y-88920000D01*
X80380000Y-88920000D01*
X80380000Y-90080000D01*
X80380000Y-90080000D01*
G37*
G36*
X104255000Y-89130000D02*
X102745000Y-89130000D01*
X102745000Y-87870000D01*
X104255000Y-87870000D01*
X104255000Y-89130000D01*
X104255000Y-89130000D01*
G37*
G36*
X107963868Y-86484058D02*
X107971546Y-86484112D01*
X108193812Y-86509043D01*
X108407002Y-86576671D01*
X108602997Y-86684420D01*
X108774331Y-86828186D01*
X108914477Y-87002493D01*
X109018098Y-87200701D01*
X109081246Y-87415261D01*
X109081249Y-87415295D01*
X109081253Y-87415308D01*
X109101520Y-87637999D01*
X109078146Y-87860386D01*
X109078142Y-87860400D01*
X109078138Y-87860435D01*
X109012000Y-88074093D01*
X108905622Y-88270835D01*
X108763056Y-88443168D01*
X108589732Y-88584528D01*
X108392252Y-88689530D01*
X108178138Y-88754175D01*
X107955545Y-88776000D01*
X107944420Y-88776000D01*
X107936132Y-88775942D01*
X107928454Y-88775888D01*
X107706188Y-88750957D01*
X107492998Y-88683329D01*
X107297003Y-88575580D01*
X107125669Y-88431814D01*
X106985523Y-88257507D01*
X106881902Y-88059299D01*
X106818754Y-87844739D01*
X106818751Y-87844705D01*
X106818747Y-87844692D01*
X106798480Y-87622001D01*
X106821854Y-87399614D01*
X106821858Y-87399600D01*
X106821862Y-87399565D01*
X106888000Y-87185907D01*
X106994378Y-86989165D01*
X107136944Y-86816832D01*
X107310268Y-86675472D01*
X107507748Y-86570470D01*
X107721862Y-86505825D01*
X107944455Y-86484000D01*
X107955580Y-86484000D01*
X107963868Y-86484058D01*
X107963868Y-86484058D01*
G37*
G36*
X100646000Y-87924000D02*
X98354000Y-87924000D01*
X98354000Y-86648000D01*
X100646000Y-86648000D01*
X100646000Y-87924000D01*
X100646000Y-87924000D01*
G37*
G36*
X104255000Y-87130000D02*
X102745000Y-87130000D01*
X102745000Y-85870000D01*
X104255000Y-85870000D01*
X104255000Y-87130000D01*
X104255000Y-87130000D01*
G37*
G36*
X81640000Y-87115000D02*
X80380000Y-87115000D01*
X80380000Y-85605000D01*
X81640000Y-85605000D01*
X81640000Y-87115000D01*
X81640000Y-87115000D01*
G37*
G36*
X79640000Y-87115000D02*
X78380000Y-87115000D01*
X78380000Y-85605000D01*
X79640000Y-85605000D01*
X79640000Y-87115000D01*
X79640000Y-87115000D01*
G37*
G36*
X94042000Y-86958800D02*
X91750000Y-86958800D01*
X91750000Y-83041200D01*
X94042000Y-83041200D01*
X94042000Y-86958800D01*
X94042000Y-86958800D01*
G37*
G36*
X109096000Y-86236000D02*
X106804000Y-86236000D01*
X106804000Y-83944000D01*
X109096000Y-83944000D01*
X109096000Y-86236000D01*
X109096000Y-86236000D01*
G37*
G36*
X100646000Y-85638000D02*
X98354000Y-85638000D01*
X98354000Y-84362000D01*
X100646000Y-84362000D01*
X100646000Y-85638000D01*
X100646000Y-85638000D01*
G37*
G36*
X107963868Y-81404058D02*
X107971546Y-81404112D01*
X108193812Y-81429043D01*
X108407002Y-81496671D01*
X108602997Y-81604420D01*
X108774331Y-81748186D01*
X108914477Y-81922493D01*
X109018098Y-82120701D01*
X109081246Y-82335261D01*
X109081249Y-82335295D01*
X109081253Y-82335308D01*
X109101520Y-82557999D01*
X109078146Y-82780386D01*
X109078142Y-82780400D01*
X109078138Y-82780435D01*
X109012000Y-82994093D01*
X108905622Y-83190835D01*
X108763056Y-83363168D01*
X108589732Y-83504528D01*
X108392252Y-83609530D01*
X108178138Y-83674175D01*
X107955545Y-83696000D01*
X107944420Y-83696000D01*
X107936132Y-83695942D01*
X107928454Y-83695888D01*
X107706188Y-83670957D01*
X107492998Y-83603329D01*
X107297003Y-83495580D01*
X107125669Y-83351814D01*
X106985523Y-83177507D01*
X106881902Y-82979299D01*
X106818754Y-82764739D01*
X106818751Y-82764705D01*
X106818747Y-82764692D01*
X106798480Y-82542001D01*
X106821854Y-82319614D01*
X106821858Y-82319600D01*
X106821862Y-82319565D01*
X106888000Y-82105907D01*
X106994378Y-81909165D01*
X107136944Y-81736832D01*
X107310268Y-81595472D01*
X107507748Y-81490470D01*
X107721862Y-81425825D01*
X107944455Y-81404000D01*
X107955580Y-81404000D01*
X107963868Y-81404058D01*
X107963868Y-81404058D01*
G37*
G36*
X104255000Y-83630000D02*
X102745000Y-83630000D01*
X102745000Y-82370000D01*
X104255000Y-82370000D01*
X104255000Y-83630000D01*
X104255000Y-83630000D01*
G37*
G36*
X100646000Y-83352000D02*
X98354000Y-83352000D01*
X98354000Y-82076000D01*
X100646000Y-82076000D01*
X100646000Y-83352000D01*
X100646000Y-83352000D01*
G37*
G36*
X75530430Y-83277640D02*
X73469570Y-83277640D01*
X73469570Y-80518280D01*
X75530430Y-80518280D01*
X75530430Y-83277640D01*
X75530430Y-83277640D01*
G37*
G36*
X104255000Y-81630000D02*
X102745000Y-81630000D01*
X102745000Y-80370000D01*
X104255000Y-80370000D01*
X104255000Y-81630000D01*
X104255000Y-81630000D01*
G37*
G36*
X62800199Y-78420951D02*
X63074910Y-78477341D01*
X63333433Y-78586014D01*
X63565927Y-78742833D01*
X63763535Y-78941826D01*
X63918727Y-79175407D01*
X64025592Y-79434682D01*
X64079995Y-79709438D01*
X64079995Y-79709447D01*
X64080061Y-79709781D01*
X64075588Y-80030094D01*
X64075512Y-80030428D01*
X64075512Y-80030440D01*
X64013461Y-80303561D01*
X63899396Y-80559755D01*
X63737744Y-80788913D01*
X63534654Y-80982312D01*
X63297876Y-81132575D01*
X63036416Y-81233990D01*
X62760242Y-81282686D01*
X62479865Y-81276814D01*
X62205963Y-81216592D01*
X61948984Y-81104321D01*
X61718703Y-80944271D01*
X61523893Y-80742539D01*
X61371980Y-80506816D01*
X61268743Y-80246071D01*
X61218118Y-79970235D01*
X61222034Y-79689827D01*
X61280339Y-79415520D01*
X61390817Y-79157758D01*
X61549255Y-78926365D01*
X61749621Y-78730151D01*
X61984280Y-78576595D01*
X62244298Y-78471541D01*
X62519765Y-78418993D01*
X62800199Y-78420951D01*
X62800199Y-78420951D01*
G37*
G36*
X70400199Y-78420951D02*
X70674910Y-78477341D01*
X70933433Y-78586014D01*
X71165927Y-78742833D01*
X71363535Y-78941826D01*
X71518727Y-79175407D01*
X71625592Y-79434682D01*
X71679995Y-79709438D01*
X71679995Y-79709447D01*
X71680061Y-79709781D01*
X71675588Y-80030094D01*
X71675512Y-80030428D01*
X71675512Y-80030440D01*
X71613461Y-80303561D01*
X71499396Y-80559755D01*
X71337744Y-80788913D01*
X71134654Y-80982312D01*
X70897876Y-81132575D01*
X70636416Y-81233990D01*
X70360242Y-81282686D01*
X70079865Y-81276814D01*
X69805963Y-81216592D01*
X69548984Y-81104321D01*
X69318703Y-80944271D01*
X69123893Y-80742539D01*
X68971980Y-80506816D01*
X68868743Y-80246071D01*
X68818118Y-79970235D01*
X68822034Y-79689827D01*
X68880339Y-79415520D01*
X68990817Y-79157758D01*
X69149255Y-78926365D01*
X69349621Y-78730151D01*
X69584280Y-78576595D01*
X69844298Y-78471541D01*
X70119765Y-78418993D01*
X70400199Y-78420951D01*
X70400199Y-78420951D01*
G37*
G36*
X75530430Y-79279680D02*
X73469570Y-79279680D01*
X73469570Y-76520320D01*
X75530430Y-76520320D01*
X75530430Y-79279680D01*
X75530430Y-79279680D01*
G37*
G36*
X109096000Y-78463600D02*
X106804000Y-78463600D01*
X106804000Y-76476400D01*
X109096000Y-76476400D01*
X109096000Y-78463600D01*
X109096000Y-78463600D01*
G37*
G36*
X93780000Y-76105000D02*
X92720000Y-76105000D01*
X92720000Y-75095000D01*
X93780000Y-75095000D01*
X93780000Y-76105000D01*
X93780000Y-76105000D01*
G37*
G36*
X92280000Y-76105000D02*
X91220000Y-76105000D01*
X91220000Y-75095000D01*
X92280000Y-75095000D01*
X92280000Y-76105000D01*
X92280000Y-76105000D01*
G37*
G36*
X108115403Y-73936452D02*
X108121818Y-73936497D01*
X108314526Y-73958113D01*
X108499366Y-74016747D01*
X108669296Y-74110167D01*
X108817845Y-74234815D01*
X108939354Y-74385941D01*
X109029195Y-74557791D01*
X109083946Y-74743818D01*
X109083949Y-74743852D01*
X109083953Y-74743865D01*
X109101524Y-74936935D01*
X109081259Y-75129741D01*
X109081255Y-75129754D01*
X109081251Y-75129791D01*
X109023908Y-75315035D01*
X108931677Y-75485614D01*
X108808070Y-75635029D01*
X108657795Y-75757591D01*
X108486577Y-75848629D01*
X108300936Y-75904677D01*
X108107945Y-75923600D01*
X107792020Y-75923600D01*
X107784597Y-75923548D01*
X107778182Y-75923503D01*
X107585474Y-75901887D01*
X107400634Y-75843253D01*
X107230704Y-75749833D01*
X107082155Y-75625185D01*
X106960646Y-75474059D01*
X106870805Y-75302209D01*
X106816054Y-75116182D01*
X106816051Y-75116148D01*
X106816047Y-75116135D01*
X106798476Y-74923065D01*
X106818741Y-74730259D01*
X106818745Y-74730246D01*
X106818749Y-74730209D01*
X106876092Y-74544965D01*
X106968323Y-74374386D01*
X107091930Y-74224971D01*
X107242205Y-74102409D01*
X107413423Y-74011371D01*
X107599064Y-73955323D01*
X107792055Y-73936400D01*
X108107980Y-73936400D01*
X108115403Y-73936452D01*
X108115403Y-73936452D01*
G37*
G36*
X78230050Y-75679030D02*
X77169950Y-75679030D01*
X77169950Y-74618930D01*
X78230050Y-74618930D01*
X78230050Y-75679030D01*
X78230050Y-75679030D01*
G37*
G36*
X104580000Y-75380000D02*
X103420000Y-75380000D01*
X103420000Y-74620000D01*
X104580000Y-74620000D01*
X104580000Y-75380000D01*
X104580000Y-75380000D01*
G37*
G36*
X104580000Y-73880000D02*
X103420000Y-73880000D01*
X103420000Y-73120000D01*
X104580000Y-73120000D01*
X104580000Y-73880000D01*
X104580000Y-73880000D01*
G37*
G36*
X77280050Y-73680050D02*
X76219950Y-73680050D01*
X76219950Y-72619950D01*
X77280050Y-72619950D01*
X77280050Y-73680050D01*
X77280050Y-73680050D01*
G37*
G36*
X79180050Y-73680050D02*
X78119950Y-73680050D01*
X78119950Y-72619950D01*
X79180050Y-72619950D01*
X79180050Y-73680050D01*
X79180050Y-73680050D01*
G37*
G36*
X85162467Y-72320042D02*
X85165929Y-72320066D01*
X85297815Y-72334860D01*
X85424315Y-72374988D01*
X85540613Y-72438923D01*
X85642276Y-72524229D01*
X85725435Y-72627657D01*
X85786920Y-72745268D01*
X85824390Y-72872581D01*
X85824393Y-72872611D01*
X85824398Y-72872629D01*
X85836421Y-73004745D01*
X85822554Y-73136683D01*
X85822550Y-73136696D01*
X85822546Y-73136733D01*
X85783302Y-73263511D01*
X85720181Y-73380251D01*
X85635586Y-73482508D01*
X85532741Y-73566386D01*
X85415563Y-73628691D01*
X85288514Y-73667050D01*
X85156435Y-73680000D01*
X83843527Y-73680000D01*
X83837533Y-73679958D01*
X83834071Y-73679934D01*
X83702185Y-73665140D01*
X83575685Y-73625012D01*
X83459387Y-73561077D01*
X83357724Y-73475771D01*
X83274565Y-73372343D01*
X83213080Y-73254732D01*
X83175610Y-73127419D01*
X83175607Y-73127389D01*
X83175602Y-73127371D01*
X83163579Y-72995255D01*
X83177446Y-72863317D01*
X83177450Y-72863304D01*
X83177454Y-72863267D01*
X83216698Y-72736489D01*
X83279819Y-72619749D01*
X83364414Y-72517492D01*
X83467259Y-72433614D01*
X83584437Y-72371309D01*
X83711486Y-72332950D01*
X83843565Y-72320000D01*
X85156473Y-72320000D01*
X85162467Y-72320042D01*
X85162467Y-72320042D01*
G37*
G36*
X101162467Y-72320042D02*
X101165929Y-72320066D01*
X101297815Y-72334860D01*
X101424315Y-72374988D01*
X101540613Y-72438923D01*
X101642276Y-72524229D01*
X101725435Y-72627657D01*
X101786920Y-72745268D01*
X101824390Y-72872581D01*
X101824393Y-72872611D01*
X101824398Y-72872629D01*
X101836421Y-73004745D01*
X101822554Y-73136683D01*
X101822550Y-73136696D01*
X101822546Y-73136733D01*
X101783302Y-73263511D01*
X101720181Y-73380251D01*
X101635586Y-73482508D01*
X101532741Y-73566386D01*
X101415563Y-73628691D01*
X101288514Y-73667050D01*
X101156435Y-73680000D01*
X99843527Y-73680000D01*
X99837533Y-73679958D01*
X99834071Y-73679934D01*
X99702185Y-73665140D01*
X99575685Y-73625012D01*
X99459387Y-73561077D01*
X99357724Y-73475771D01*
X99274565Y-73372343D01*
X99213080Y-73254732D01*
X99175610Y-73127419D01*
X99175607Y-73127389D01*
X99175602Y-73127371D01*
X99163579Y-72995255D01*
X99177446Y-72863317D01*
X99177450Y-72863304D01*
X99177454Y-72863267D01*
X99216698Y-72736489D01*
X99279819Y-72619749D01*
X99364414Y-72517492D01*
X99467259Y-72433614D01*
X99584437Y-72371309D01*
X99711486Y-72332950D01*
X99843565Y-72320000D01*
X101156473Y-72320000D01*
X101162467Y-72320042D01*
X101162467Y-72320042D01*
G37*
G36*
X108115403Y-71396452D02*
X108121818Y-71396497D01*
X108314526Y-71418113D01*
X108499366Y-71476747D01*
X108669296Y-71570167D01*
X108817845Y-71694815D01*
X108939354Y-71845941D01*
X109029195Y-72017791D01*
X109083946Y-72203818D01*
X109083949Y-72203852D01*
X109083953Y-72203865D01*
X109101524Y-72396935D01*
X109081259Y-72589741D01*
X109081255Y-72589754D01*
X109081251Y-72589791D01*
X109023908Y-72775035D01*
X108931677Y-72945614D01*
X108808070Y-73095029D01*
X108657795Y-73217591D01*
X108486577Y-73308629D01*
X108300936Y-73364677D01*
X108107945Y-73383600D01*
X107792020Y-73383600D01*
X107784597Y-73383548D01*
X107778182Y-73383503D01*
X107585474Y-73361887D01*
X107400634Y-73303253D01*
X107230704Y-73209833D01*
X107082155Y-73085185D01*
X106960646Y-72934059D01*
X106870805Y-72762209D01*
X106816054Y-72576182D01*
X106816051Y-72576148D01*
X106816047Y-72576135D01*
X106798476Y-72383065D01*
X106818741Y-72190259D01*
X106818745Y-72190246D01*
X106818749Y-72190209D01*
X106876092Y-72004965D01*
X106968323Y-71834386D01*
X107091930Y-71684971D01*
X107242205Y-71562409D01*
X107413423Y-71471371D01*
X107599064Y-71415323D01*
X107792055Y-71396400D01*
X108107980Y-71396400D01*
X108115403Y-71396452D01*
X108115403Y-71396452D01*
G37*
G36*
X85162467Y-70320042D02*
X85165929Y-70320066D01*
X85297815Y-70334860D01*
X85424315Y-70374988D01*
X85540613Y-70438923D01*
X85642276Y-70524229D01*
X85725435Y-70627657D01*
X85786920Y-70745268D01*
X85824390Y-70872581D01*
X85824393Y-70872611D01*
X85824398Y-70872629D01*
X85836421Y-71004745D01*
X85822554Y-71136683D01*
X85822550Y-71136696D01*
X85822546Y-71136733D01*
X85783302Y-71263511D01*
X85720181Y-71380251D01*
X85635586Y-71482508D01*
X85532741Y-71566386D01*
X85415563Y-71628691D01*
X85288514Y-71667050D01*
X85156435Y-71680000D01*
X83843527Y-71680000D01*
X83837533Y-71679958D01*
X83834071Y-71679934D01*
X83702185Y-71665140D01*
X83575685Y-71625012D01*
X83459387Y-71561077D01*
X83357724Y-71475771D01*
X83274565Y-71372343D01*
X83213080Y-71254732D01*
X83175610Y-71127419D01*
X83175607Y-71127389D01*
X83175602Y-71127371D01*
X83163579Y-70995255D01*
X83177446Y-70863317D01*
X83177450Y-70863304D01*
X83177454Y-70863267D01*
X83216698Y-70736489D01*
X83279819Y-70619749D01*
X83364414Y-70517492D01*
X83467259Y-70433614D01*
X83584437Y-70371309D01*
X83711486Y-70332950D01*
X83843565Y-70320000D01*
X85156473Y-70320000D01*
X85162467Y-70320042D01*
X85162467Y-70320042D01*
G37*
G36*
X101162467Y-70320042D02*
X101165929Y-70320066D01*
X101297815Y-70334860D01*
X101424315Y-70374988D01*
X101540613Y-70438923D01*
X101642276Y-70524229D01*
X101725435Y-70627657D01*
X101786920Y-70745268D01*
X101824390Y-70872581D01*
X101824393Y-70872611D01*
X101824398Y-70872629D01*
X101836421Y-71004745D01*
X101822554Y-71136683D01*
X101822550Y-71136696D01*
X101822546Y-71136733D01*
X101783302Y-71263511D01*
X101720181Y-71380251D01*
X101635586Y-71482508D01*
X101532741Y-71566386D01*
X101415563Y-71628691D01*
X101288514Y-71667050D01*
X101156435Y-71680000D01*
X99843527Y-71680000D01*
X99837533Y-71679958D01*
X99834071Y-71679934D01*
X99702185Y-71665140D01*
X99575685Y-71625012D01*
X99459387Y-71561077D01*
X99357724Y-71475771D01*
X99274565Y-71372343D01*
X99213080Y-71254732D01*
X99175610Y-71127419D01*
X99175607Y-71127389D01*
X99175602Y-71127371D01*
X99163579Y-70995255D01*
X99177446Y-70863317D01*
X99177450Y-70863304D01*
X99177454Y-70863267D01*
X99216698Y-70736489D01*
X99279819Y-70619749D01*
X99364414Y-70517492D01*
X99467259Y-70433614D01*
X99584437Y-70371309D01*
X99711486Y-70332950D01*
X99843565Y-70320000D01*
X101156473Y-70320000D01*
X101162467Y-70320042D01*
X101162467Y-70320042D01*
G37*
G36*
X104580000Y-71380000D02*
X103420000Y-71380000D01*
X103420000Y-70620000D01*
X104580000Y-70620000D01*
X104580000Y-71380000D01*
X104580000Y-71380000D01*
G37*
G36*
X77330000Y-71230000D02*
X76570000Y-71230000D01*
X76570000Y-70070000D01*
X77330000Y-70070000D01*
X77330000Y-71230000D01*
X77330000Y-71230000D01*
G37*
G36*
X78830000Y-71230000D02*
X78070000Y-71230000D01*
X78070000Y-70070000D01*
X78830000Y-70070000D01*
X78830000Y-71230000D01*
X78830000Y-71230000D01*
G37*
G36*
X71618688Y-68870750D02*
X71835769Y-68915311D01*
X72040055Y-69001185D01*
X72223775Y-69125105D01*
X72379927Y-69282352D01*
X72502563Y-69466932D01*
X72587006Y-69671809D01*
X72629983Y-69888854D01*
X72629983Y-69888864D01*
X72630049Y-69889198D01*
X72626514Y-70142312D01*
X72626438Y-70142646D01*
X72626438Y-70142658D01*
X72577422Y-70358408D01*
X72487286Y-70560856D01*
X72359547Y-70741938D01*
X72199062Y-70894765D01*
X72011959Y-71013504D01*
X71805350Y-71093643D01*
X71587115Y-71132123D01*
X71365558Y-71127483D01*
X71149118Y-71079895D01*
X70946052Y-70991178D01*
X70764077Y-70864702D01*
X70610140Y-70705295D01*
X70490094Y-70519022D01*
X70408516Y-70312980D01*
X70368511Y-70095011D01*
X70371606Y-69873429D01*
X70417679Y-69656670D01*
X70504980Y-69452983D01*
X70630179Y-69270134D01*
X70788512Y-69115083D01*
X70973941Y-68993742D01*
X71179410Y-68910727D01*
X71397086Y-68869203D01*
X71618688Y-68870750D01*
X71618688Y-68870750D01*
G37*
G36*
X64019008Y-68870750D02*
X64236089Y-68915311D01*
X64440375Y-69001185D01*
X64624095Y-69125105D01*
X64780247Y-69282352D01*
X64902883Y-69466932D01*
X64987326Y-69671809D01*
X65030303Y-69888854D01*
X65030303Y-69888864D01*
X65030369Y-69889198D01*
X65026834Y-70142312D01*
X65026758Y-70142646D01*
X65026758Y-70142658D01*
X64977742Y-70358408D01*
X64887606Y-70560856D01*
X64759867Y-70741938D01*
X64599382Y-70894765D01*
X64412279Y-71013504D01*
X64205670Y-71093643D01*
X63987435Y-71132123D01*
X63765878Y-71127483D01*
X63549438Y-71079895D01*
X63346372Y-70991178D01*
X63164397Y-70864702D01*
X63010460Y-70705295D01*
X62890414Y-70519022D01*
X62808836Y-70312980D01*
X62768831Y-70095011D01*
X62771926Y-69873429D01*
X62817999Y-69656670D01*
X62905300Y-69452983D01*
X63030499Y-69270134D01*
X63188832Y-69115083D01*
X63374261Y-68993742D01*
X63579730Y-68910727D01*
X63797406Y-68869203D01*
X64019008Y-68870750D01*
X64019008Y-68870750D01*
G37*
G36*
X108115403Y-68856452D02*
X108121818Y-68856497D01*
X108314526Y-68878113D01*
X108499366Y-68936747D01*
X108669296Y-69030167D01*
X108817845Y-69154815D01*
X108939354Y-69305941D01*
X109029195Y-69477791D01*
X109083946Y-69663818D01*
X109083949Y-69663852D01*
X109083953Y-69663865D01*
X109101524Y-69856935D01*
X109081259Y-70049741D01*
X109081255Y-70049754D01*
X109081251Y-70049791D01*
X109023908Y-70235035D01*
X108931677Y-70405614D01*
X108808070Y-70555029D01*
X108657795Y-70677591D01*
X108486577Y-70768629D01*
X108300936Y-70824677D01*
X108107945Y-70843600D01*
X107792020Y-70843600D01*
X107784597Y-70843548D01*
X107778182Y-70843503D01*
X107585474Y-70821887D01*
X107400634Y-70763253D01*
X107230704Y-70669833D01*
X107082155Y-70545185D01*
X106960646Y-70394059D01*
X106870805Y-70222209D01*
X106816054Y-70036182D01*
X106816051Y-70036148D01*
X106816047Y-70036135D01*
X106798476Y-69843065D01*
X106818741Y-69650259D01*
X106818745Y-69650246D01*
X106818749Y-69650209D01*
X106876092Y-69464965D01*
X106968323Y-69294386D01*
X107091930Y-69144971D01*
X107242205Y-69022409D01*
X107413423Y-68931371D01*
X107599064Y-68875323D01*
X107792055Y-68856400D01*
X108107980Y-68856400D01*
X108115403Y-68856452D01*
X108115403Y-68856452D01*
G37*
G36*
X104580000Y-69880000D02*
X103420000Y-69880000D01*
X103420000Y-69120000D01*
X104580000Y-69120000D01*
X104580000Y-69880000D01*
X104580000Y-69880000D01*
G37*
G36*
X85162467Y-68320042D02*
X85165929Y-68320066D01*
X85297815Y-68334860D01*
X85424315Y-68374988D01*
X85540613Y-68438923D01*
X85642276Y-68524229D01*
X85725435Y-68627657D01*
X85786920Y-68745268D01*
X85824390Y-68872581D01*
X85824393Y-68872611D01*
X85824398Y-68872629D01*
X85836421Y-69004745D01*
X85822554Y-69136683D01*
X85822550Y-69136696D01*
X85822546Y-69136733D01*
X85783302Y-69263511D01*
X85720181Y-69380251D01*
X85635586Y-69482508D01*
X85532741Y-69566386D01*
X85415563Y-69628691D01*
X85288514Y-69667050D01*
X85156435Y-69680000D01*
X83843527Y-69680000D01*
X83837533Y-69679958D01*
X83834071Y-69679934D01*
X83702185Y-69665140D01*
X83575685Y-69625012D01*
X83459387Y-69561077D01*
X83357724Y-69475771D01*
X83274565Y-69372343D01*
X83213080Y-69254732D01*
X83175610Y-69127419D01*
X83175607Y-69127389D01*
X83175602Y-69127371D01*
X83163579Y-68995255D01*
X83177446Y-68863317D01*
X83177450Y-68863304D01*
X83177454Y-68863267D01*
X83216698Y-68736489D01*
X83279819Y-68619749D01*
X83364414Y-68517492D01*
X83467259Y-68433614D01*
X83584437Y-68371309D01*
X83711486Y-68332950D01*
X83843565Y-68320000D01*
X85156473Y-68320000D01*
X85162467Y-68320042D01*
X85162467Y-68320042D01*
G37*
G36*
X101162467Y-68320042D02*
X101165929Y-68320066D01*
X101297815Y-68334860D01*
X101424315Y-68374988D01*
X101540613Y-68438923D01*
X101642276Y-68524229D01*
X101725435Y-68627657D01*
X101786920Y-68745268D01*
X101824390Y-68872581D01*
X101824393Y-68872611D01*
X101824398Y-68872629D01*
X101836421Y-69004745D01*
X101822554Y-69136683D01*
X101822550Y-69136696D01*
X101822546Y-69136733D01*
X101783302Y-69263511D01*
X101720181Y-69380251D01*
X101635586Y-69482508D01*
X101532741Y-69566386D01*
X101415563Y-69628691D01*
X101288514Y-69667050D01*
X101156435Y-69680000D01*
X99843527Y-69680000D01*
X99837533Y-69679958D01*
X99834071Y-69679934D01*
X99702185Y-69665140D01*
X99575685Y-69625012D01*
X99459387Y-69561077D01*
X99357724Y-69475771D01*
X99274565Y-69372343D01*
X99213080Y-69254732D01*
X99175610Y-69127419D01*
X99175607Y-69127389D01*
X99175602Y-69127371D01*
X99163579Y-68995255D01*
X99177446Y-68863317D01*
X99177450Y-68863304D01*
X99177454Y-68863267D01*
X99216698Y-68736489D01*
X99279819Y-68619749D01*
X99364414Y-68517492D01*
X99467259Y-68433614D01*
X99584437Y-68371309D01*
X99711486Y-68332950D01*
X99843565Y-68320000D01*
X101156473Y-68320000D01*
X101162467Y-68320042D01*
X101162467Y-68320042D01*
G37*
G36*
X108115403Y-66316452D02*
X108121818Y-66316497D01*
X108314526Y-66338113D01*
X108499366Y-66396747D01*
X108669296Y-66490167D01*
X108817845Y-66614815D01*
X108939354Y-66765941D01*
X109029195Y-66937791D01*
X109083946Y-67123818D01*
X109083949Y-67123852D01*
X109083953Y-67123865D01*
X109101524Y-67316935D01*
X109081259Y-67509741D01*
X109081255Y-67509754D01*
X109081251Y-67509791D01*
X109023908Y-67695035D01*
X108931677Y-67865614D01*
X108808070Y-68015029D01*
X108657795Y-68137591D01*
X108486577Y-68228629D01*
X108300936Y-68284677D01*
X108107945Y-68303600D01*
X107792020Y-68303600D01*
X107784597Y-68303548D01*
X107778182Y-68303503D01*
X107585474Y-68281887D01*
X107400634Y-68223253D01*
X107230704Y-68129833D01*
X107082155Y-68005185D01*
X106960646Y-67854059D01*
X106870805Y-67682209D01*
X106816054Y-67496182D01*
X106816051Y-67496148D01*
X106816047Y-67496135D01*
X106798476Y-67303065D01*
X106818741Y-67110259D01*
X106818745Y-67110246D01*
X106818749Y-67110209D01*
X106876092Y-66924965D01*
X106968323Y-66754386D01*
X107091930Y-66604971D01*
X107242205Y-66482409D01*
X107413423Y-66391371D01*
X107599064Y-66335323D01*
X107792055Y-66316400D01*
X108107980Y-66316400D01*
X108115403Y-66316452D01*
X108115403Y-66316452D01*
G37*
G36*
X85162467Y-66320042D02*
X85165929Y-66320066D01*
X85297815Y-66334860D01*
X85424315Y-66374988D01*
X85540613Y-66438923D01*
X85642276Y-66524229D01*
X85725435Y-66627657D01*
X85786920Y-66745268D01*
X85824390Y-66872581D01*
X85824393Y-66872611D01*
X85824398Y-66872629D01*
X85836421Y-67004745D01*
X85822554Y-67136683D01*
X85822550Y-67136696D01*
X85822546Y-67136733D01*
X85783302Y-67263511D01*
X85720181Y-67380251D01*
X85635586Y-67482508D01*
X85532741Y-67566386D01*
X85415563Y-67628691D01*
X85288514Y-67667050D01*
X85156435Y-67680000D01*
X83843527Y-67680000D01*
X83837533Y-67679958D01*
X83834071Y-67679934D01*
X83702185Y-67665140D01*
X83575685Y-67625012D01*
X83459387Y-67561077D01*
X83357724Y-67475771D01*
X83274565Y-67372343D01*
X83213080Y-67254732D01*
X83175610Y-67127419D01*
X83175607Y-67127389D01*
X83175602Y-67127371D01*
X83163579Y-66995255D01*
X83177446Y-66863317D01*
X83177450Y-66863304D01*
X83177454Y-66863267D01*
X83216698Y-66736489D01*
X83279819Y-66619749D01*
X83364414Y-66517492D01*
X83467259Y-66433614D01*
X83584437Y-66371309D01*
X83711486Y-66332950D01*
X83843565Y-66320000D01*
X85156473Y-66320000D01*
X85162467Y-66320042D01*
X85162467Y-66320042D01*
G37*
G36*
X101162467Y-66320042D02*
X101165929Y-66320066D01*
X101297815Y-66334860D01*
X101424315Y-66374988D01*
X101540613Y-66438923D01*
X101642276Y-66524229D01*
X101725435Y-66627657D01*
X101786920Y-66745268D01*
X101824390Y-66872581D01*
X101824393Y-66872611D01*
X101824398Y-66872629D01*
X101836421Y-67004745D01*
X101822554Y-67136683D01*
X101822550Y-67136696D01*
X101822546Y-67136733D01*
X101783302Y-67263511D01*
X101720181Y-67380251D01*
X101635586Y-67482508D01*
X101532741Y-67566386D01*
X101415563Y-67628691D01*
X101288514Y-67667050D01*
X101156435Y-67680000D01*
X99843527Y-67680000D01*
X99837533Y-67679958D01*
X99834071Y-67679934D01*
X99702185Y-67665140D01*
X99575685Y-67625012D01*
X99459387Y-67561077D01*
X99357724Y-67475771D01*
X99274565Y-67372343D01*
X99213080Y-67254732D01*
X99175610Y-67127419D01*
X99175607Y-67127389D01*
X99175602Y-67127371D01*
X99163579Y-66995255D01*
X99177446Y-66863317D01*
X99177450Y-66863304D01*
X99177454Y-66863267D01*
X99216698Y-66736489D01*
X99279819Y-66619749D01*
X99364414Y-66517492D01*
X99467259Y-66433614D01*
X99584437Y-66371309D01*
X99711486Y-66332950D01*
X99843565Y-66320000D01*
X101156473Y-66320000D01*
X101162467Y-66320042D01*
X101162467Y-66320042D01*
G37*
G36*
X104580000Y-67380000D02*
X103420000Y-67380000D01*
X103420000Y-66620000D01*
X104580000Y-66620000D01*
X104580000Y-67380000D01*
X104580000Y-67380000D01*
G37*
G36*
X76480000Y-66430000D02*
X75520000Y-66430000D01*
X75520000Y-65570000D01*
X76480000Y-65570000D01*
X76480000Y-66430000D01*
X76480000Y-66430000D01*
G37*
G36*
X104580000Y-65880000D02*
X103420000Y-65880000D01*
X103420000Y-65120000D01*
X104580000Y-65120000D01*
X104580000Y-65880000D01*
X104580000Y-65880000D01*
G37*
G36*
X108115403Y-63776452D02*
X108121818Y-63776497D01*
X108314526Y-63798113D01*
X108499366Y-63856747D01*
X108669296Y-63950167D01*
X108817845Y-64074815D01*
X108939354Y-64225941D01*
X109029195Y-64397791D01*
X109083946Y-64583818D01*
X109083949Y-64583852D01*
X109083953Y-64583865D01*
X109101524Y-64776935D01*
X109081259Y-64969741D01*
X109081255Y-64969754D01*
X109081251Y-64969791D01*
X109023908Y-65155035D01*
X108931677Y-65325614D01*
X108808070Y-65475029D01*
X108657795Y-65597591D01*
X108486577Y-65688629D01*
X108300936Y-65744677D01*
X108107945Y-65763600D01*
X107792020Y-65763600D01*
X107784597Y-65763548D01*
X107778182Y-65763503D01*
X107585474Y-65741887D01*
X107400634Y-65683253D01*
X107230704Y-65589833D01*
X107082155Y-65465185D01*
X106960646Y-65314059D01*
X106870805Y-65142209D01*
X106816054Y-64956182D01*
X106816051Y-64956148D01*
X106816047Y-64956135D01*
X106798476Y-64763065D01*
X106818741Y-64570259D01*
X106818745Y-64570246D01*
X106818749Y-64570209D01*
X106876092Y-64384965D01*
X106968323Y-64214386D01*
X107091930Y-64064971D01*
X107242205Y-63942409D01*
X107413423Y-63851371D01*
X107599064Y-63795323D01*
X107792055Y-63776400D01*
X108107980Y-63776400D01*
X108115403Y-63776452D01*
X108115403Y-63776452D01*
G37*
G36*
X85162467Y-64320042D02*
X85165929Y-64320066D01*
X85297815Y-64334860D01*
X85424315Y-64374988D01*
X85540613Y-64438923D01*
X85642276Y-64524229D01*
X85725435Y-64627657D01*
X85786920Y-64745268D01*
X85824390Y-64872581D01*
X85824393Y-64872611D01*
X85824398Y-64872629D01*
X85836421Y-65004745D01*
X85822554Y-65136683D01*
X85822550Y-65136696D01*
X85822546Y-65136733D01*
X85783302Y-65263511D01*
X85720181Y-65380251D01*
X85635586Y-65482508D01*
X85532741Y-65566386D01*
X85415563Y-65628691D01*
X85288514Y-65667050D01*
X85156435Y-65680000D01*
X83843527Y-65680000D01*
X83837533Y-65679958D01*
X83834071Y-65679934D01*
X83702185Y-65665140D01*
X83575685Y-65625012D01*
X83459387Y-65561077D01*
X83357724Y-65475771D01*
X83274565Y-65372343D01*
X83213080Y-65254732D01*
X83175610Y-65127419D01*
X83175607Y-65127389D01*
X83175602Y-65127371D01*
X83163579Y-64995255D01*
X83177446Y-64863317D01*
X83177450Y-64863304D01*
X83177454Y-64863267D01*
X83216698Y-64736489D01*
X83279819Y-64619749D01*
X83364414Y-64517492D01*
X83467259Y-64433614D01*
X83584437Y-64371309D01*
X83711486Y-64332950D01*
X83843565Y-64320000D01*
X85156473Y-64320000D01*
X85162467Y-64320042D01*
X85162467Y-64320042D01*
G37*
G36*
X101162467Y-64320042D02*
X101165929Y-64320066D01*
X101297815Y-64334860D01*
X101424315Y-64374988D01*
X101540613Y-64438923D01*
X101642276Y-64524229D01*
X101725435Y-64627657D01*
X101786920Y-64745268D01*
X101824390Y-64872581D01*
X101824393Y-64872611D01*
X101824398Y-64872629D01*
X101836421Y-65004745D01*
X101822554Y-65136683D01*
X101822550Y-65136696D01*
X101822546Y-65136733D01*
X101783302Y-65263511D01*
X101720181Y-65380251D01*
X101635586Y-65482508D01*
X101532741Y-65566386D01*
X101415563Y-65628691D01*
X101288514Y-65667050D01*
X101156435Y-65680000D01*
X99843527Y-65680000D01*
X99837533Y-65679958D01*
X99834071Y-65679934D01*
X99702185Y-65665140D01*
X99575685Y-65625012D01*
X99459387Y-65561077D01*
X99357724Y-65475771D01*
X99274565Y-65372343D01*
X99213080Y-65254732D01*
X99175610Y-65127419D01*
X99175607Y-65127389D01*
X99175602Y-65127371D01*
X99163579Y-64995255D01*
X99177446Y-64863317D01*
X99177450Y-64863304D01*
X99177454Y-64863267D01*
X99216698Y-64736489D01*
X99279819Y-64619749D01*
X99364414Y-64517492D01*
X99467259Y-64433614D01*
X99584437Y-64371309D01*
X99711486Y-64332950D01*
X99843565Y-64320000D01*
X101156473Y-64320000D01*
X101162467Y-64320042D01*
X101162467Y-64320042D01*
G37*
G36*
X79880000Y-65580000D02*
X79120000Y-65580000D01*
X79120000Y-64420000D01*
X79880000Y-64420000D01*
X79880000Y-65580000D01*
X79880000Y-65580000D01*
G37*
G36*
X81380000Y-65580000D02*
X80620000Y-65580000D01*
X80620000Y-64420000D01*
X81380000Y-64420000D01*
X81380000Y-65580000D01*
X81380000Y-65580000D01*
G37*
G36*
X76480000Y-65030000D02*
X75520000Y-65030000D01*
X75520000Y-64170000D01*
X76480000Y-64170000D01*
X76480000Y-65030000D01*
X76480000Y-65030000D01*
G37*
G36*
X101162467Y-62320042D02*
X101165929Y-62320066D01*
X101297815Y-62334860D01*
X101424315Y-62374988D01*
X101540613Y-62438923D01*
X101642276Y-62524229D01*
X101725435Y-62627657D01*
X101786920Y-62745268D01*
X101824390Y-62872581D01*
X101824393Y-62872611D01*
X101824398Y-62872629D01*
X101836421Y-63004745D01*
X101822554Y-63136683D01*
X101822550Y-63136696D01*
X101822546Y-63136733D01*
X101783302Y-63263511D01*
X101720181Y-63380251D01*
X101635586Y-63482508D01*
X101532741Y-63566386D01*
X101415563Y-63628691D01*
X101288514Y-63667050D01*
X101156435Y-63680000D01*
X99843527Y-63680000D01*
X99837533Y-63679958D01*
X99834071Y-63679934D01*
X99702185Y-63665140D01*
X99575685Y-63625012D01*
X99459387Y-63561077D01*
X99357724Y-63475771D01*
X99274565Y-63372343D01*
X99213080Y-63254732D01*
X99175610Y-63127419D01*
X99175607Y-63127389D01*
X99175602Y-63127371D01*
X99163579Y-62995255D01*
X99177446Y-62863317D01*
X99177450Y-62863304D01*
X99177454Y-62863267D01*
X99216698Y-62736489D01*
X99279819Y-62619749D01*
X99364414Y-62517492D01*
X99467259Y-62433614D01*
X99584437Y-62371309D01*
X99711486Y-62332950D01*
X99843565Y-62320000D01*
X101156473Y-62320000D01*
X101162467Y-62320042D01*
X101162467Y-62320042D01*
G37*
G36*
X85162467Y-62320042D02*
X85165929Y-62320066D01*
X85297815Y-62334860D01*
X85424315Y-62374988D01*
X85540613Y-62438923D01*
X85642276Y-62524229D01*
X85725435Y-62627657D01*
X85786920Y-62745268D01*
X85824390Y-62872581D01*
X85824393Y-62872611D01*
X85824398Y-62872629D01*
X85836421Y-63004745D01*
X85822554Y-63136683D01*
X85822550Y-63136696D01*
X85822546Y-63136733D01*
X85783302Y-63263511D01*
X85720181Y-63380251D01*
X85635586Y-63482508D01*
X85532741Y-63566386D01*
X85415563Y-63628691D01*
X85288514Y-63667050D01*
X85156435Y-63680000D01*
X83843527Y-63680000D01*
X83837533Y-63679958D01*
X83834071Y-63679934D01*
X83702185Y-63665140D01*
X83575685Y-63625012D01*
X83459387Y-63561077D01*
X83357724Y-63475771D01*
X83274565Y-63372343D01*
X83213080Y-63254732D01*
X83175610Y-63127419D01*
X83175607Y-63127389D01*
X83175602Y-63127371D01*
X83163579Y-62995255D01*
X83177446Y-62863317D01*
X83177450Y-62863304D01*
X83177454Y-62863267D01*
X83216698Y-62736489D01*
X83279819Y-62619749D01*
X83364414Y-62517492D01*
X83467259Y-62433614D01*
X83584437Y-62371309D01*
X83711486Y-62332950D01*
X83843565Y-62320000D01*
X85156473Y-62320000D01*
X85162467Y-62320042D01*
X85162467Y-62320042D01*
G37*
G36*
X79880000Y-62580000D02*
X79120000Y-62580000D01*
X79120000Y-61420000D01*
X79880000Y-61420000D01*
X79880000Y-62580000D01*
X79880000Y-62580000D01*
G37*
G36*
X81380000Y-62580000D02*
X80620000Y-62580000D01*
X80620000Y-61420000D01*
X81380000Y-61420000D01*
X81380000Y-62580000D01*
X81380000Y-62580000D01*
G37*
G36*
X85162467Y-60320042D02*
X85165929Y-60320066D01*
X85297815Y-60334860D01*
X85424315Y-60374988D01*
X85540613Y-60438923D01*
X85642276Y-60524229D01*
X85725435Y-60627657D01*
X85786920Y-60745268D01*
X85824390Y-60872581D01*
X85824393Y-60872611D01*
X85824398Y-60872629D01*
X85836421Y-61004745D01*
X85822554Y-61136683D01*
X85822550Y-61136696D01*
X85822546Y-61136733D01*
X85783302Y-61263511D01*
X85720181Y-61380251D01*
X85635586Y-61482508D01*
X85532741Y-61566386D01*
X85415563Y-61628691D01*
X85288514Y-61667050D01*
X85156435Y-61680000D01*
X83843527Y-61680000D01*
X83837533Y-61679958D01*
X83834071Y-61679934D01*
X83702185Y-61665140D01*
X83575685Y-61625012D01*
X83459387Y-61561077D01*
X83357724Y-61475771D01*
X83274565Y-61372343D01*
X83213080Y-61254732D01*
X83175610Y-61127419D01*
X83175607Y-61127389D01*
X83175602Y-61127371D01*
X83163579Y-60995255D01*
X83177446Y-60863317D01*
X83177450Y-60863304D01*
X83177454Y-60863267D01*
X83216698Y-60736489D01*
X83279819Y-60619749D01*
X83364414Y-60517492D01*
X83467259Y-60433614D01*
X83584437Y-60371309D01*
X83711486Y-60332950D01*
X83843565Y-60320000D01*
X85156473Y-60320000D01*
X85162467Y-60320042D01*
X85162467Y-60320042D01*
G37*
G36*
X101162467Y-60320042D02*
X101165929Y-60320066D01*
X101297815Y-60334860D01*
X101424315Y-60374988D01*
X101540613Y-60438923D01*
X101642276Y-60524229D01*
X101725435Y-60627657D01*
X101786920Y-60745268D01*
X101824390Y-60872581D01*
X101824393Y-60872611D01*
X101824398Y-60872629D01*
X101836421Y-61004745D01*
X101822554Y-61136683D01*
X101822550Y-61136696D01*
X101822546Y-61136733D01*
X101783302Y-61263511D01*
X101720181Y-61380251D01*
X101635586Y-61482508D01*
X101532741Y-61566386D01*
X101415563Y-61628691D01*
X101288514Y-61667050D01*
X101156435Y-61680000D01*
X99843527Y-61680000D01*
X99837533Y-61679958D01*
X99834071Y-61679934D01*
X99702185Y-61665140D01*
X99575685Y-61625012D01*
X99459387Y-61561077D01*
X99357724Y-61475771D01*
X99274565Y-61372343D01*
X99213080Y-61254732D01*
X99175610Y-61127419D01*
X99175607Y-61127389D01*
X99175602Y-61127371D01*
X99163579Y-60995255D01*
X99177446Y-60863317D01*
X99177450Y-60863304D01*
X99177454Y-60863267D01*
X99216698Y-60736489D01*
X99279819Y-60619749D01*
X99364414Y-60517492D01*
X99467259Y-60433614D01*
X99584437Y-60371309D01*
X99711486Y-60332950D01*
X99843565Y-60320000D01*
X101156473Y-60320000D01*
X101162467Y-60320042D01*
X101162467Y-60320042D01*
G37*
G36*
X72530050Y-61530050D02*
X71469950Y-61530050D01*
X71469950Y-60469950D01*
X72530050Y-60469950D01*
X72530050Y-61530050D01*
X72530050Y-61530050D01*
G37*
G36*
X75080000Y-61180000D02*
X73920000Y-61180000D01*
X73920000Y-60420000D01*
X75080000Y-60420000D01*
X75080000Y-61180000D01*
X75080000Y-61180000D01*
G37*
G36*
X70531070Y-60580050D02*
X69470970Y-60580050D01*
X69470970Y-59519950D01*
X70531070Y-59519950D01*
X70531070Y-60580050D01*
X70531070Y-60580050D01*
G37*
G36*
X75080000Y-59680000D02*
X73920000Y-59680000D01*
X73920000Y-58920000D01*
X75080000Y-58920000D01*
X75080000Y-59680000D01*
X75080000Y-59680000D01*
G37*
G36*
X101162467Y-58320042D02*
X101165929Y-58320066D01*
X101297815Y-58334860D01*
X101424315Y-58374988D01*
X101540613Y-58438923D01*
X101642276Y-58524229D01*
X101725435Y-58627657D01*
X101786920Y-58745268D01*
X101824390Y-58872581D01*
X101824393Y-58872611D01*
X101824398Y-58872629D01*
X101836421Y-59004745D01*
X101822554Y-59136683D01*
X101822550Y-59136696D01*
X101822546Y-59136733D01*
X101783302Y-59263511D01*
X101720181Y-59380251D01*
X101635586Y-59482508D01*
X101532741Y-59566386D01*
X101415563Y-59628691D01*
X101288514Y-59667050D01*
X101156435Y-59680000D01*
X99843527Y-59680000D01*
X99837533Y-59679958D01*
X99834071Y-59679934D01*
X99702185Y-59665140D01*
X99575685Y-59625012D01*
X99459387Y-59561077D01*
X99357724Y-59475771D01*
X99274565Y-59372343D01*
X99213080Y-59254732D01*
X99175610Y-59127419D01*
X99175607Y-59127389D01*
X99175602Y-59127371D01*
X99163579Y-58995255D01*
X99177446Y-58863317D01*
X99177450Y-58863304D01*
X99177454Y-58863267D01*
X99216698Y-58736489D01*
X99279819Y-58619749D01*
X99364414Y-58517492D01*
X99467259Y-58433614D01*
X99584437Y-58371309D01*
X99711486Y-58332950D01*
X99843565Y-58320000D01*
X101156473Y-58320000D01*
X101162467Y-58320042D01*
X101162467Y-58320042D01*
G37*
G36*
X85830000Y-59680000D02*
X83170000Y-59680000D01*
X83170000Y-58320000D01*
X85830000Y-58320000D01*
X85830000Y-59680000D01*
X85830000Y-59680000D01*
G37*
G36*
X72530050Y-59630050D02*
X71469950Y-59630050D01*
X71469950Y-58569950D01*
X72530050Y-58569950D01*
X72530050Y-59630050D01*
X72530050Y-59630050D01*
G37*
G36*
X81380000Y-59580000D02*
X80620000Y-59580000D01*
X80620000Y-58420000D01*
X81380000Y-58420000D01*
X81380000Y-59580000D01*
X81380000Y-59580000D01*
G37*
G36*
X79880000Y-59580000D02*
X79120000Y-59580000D01*
X79120000Y-58420000D01*
X79880000Y-58420000D01*
X79880000Y-59580000D01*
X79880000Y-59580000D01*
G37*
M02*
